<?xml version="1.0" encoding="iso-8859-1"?>
<!-- Generator: Adobe Illustrator 19.0.0, SVG Export Plug-In . SVG Version: 6.00 Build 0)  -->
<svg version="1.1" id="Capa_1" xmlns="http://www.w3.org/2000/svg" xmlns:xlink="http://www.w3.org/1999/xlink" x="0px" y="0px"
	 viewBox="0 0 496 496" style="enable-background:new 0 0 496 496;" xml:space="preserve">
<g>
	<circle style="fill:#FFCB57;" cx="368" cy="192" r="88"/>
	<circle style="fill:#FFCB57;" cx="128" cy="96" r="88"/>
</g>
<path style="fill:#E56565;" d="M128,368c-30.872,0-56-25.12-56-56v-96h16v96c0,22.056,17.944,40,40,40s40-17.944,40-40v-96h16v96
	C184,342.88,158.872,368,128,368z"/>
<g>
	<path style="fill:#3F3A34;" d="M464,192c0-52.936-43.064-96-96-96s-96,43.064-96,96s43.064,96,96,96S464,244.936,464,192z M288,192
		c0-44.112,35.888-80,80-80s80,35.888,80,80s-35.888,80-80,80S288,236.112,288,192z"/>
	<path style="fill:#3F3A34;" d="M376,256v-16.408c13.536-1.96,24-13.528,24-27.592c0-15.44-12.56-28-28-28h-8
		c-6.616,0-12-5.384-12-12s5.384-12,12-12h8c6.616,0,12,5.384,12,12v4h16v-4c0-14.064-10.464-25.632-24-27.592V128h-16v16.408
		c-13.536,1.96-24,13.528-24,27.592c0,15.44,12.56,28,28,28h8c6.616,0,12,5.384,12,12s-5.384,12-12,12h-8c-6.616,0-12-5.384-12-12
		v-4h-16v4c0,14.064,10.464,25.632,24,27.592V256H376z"/>
	<path style="fill:#3F3A34;" d="M128,288c-13.232,0-24,10.768-24,24s10.768,24,24,24s24-10.768,24-24S141.232,288,128,288z M128,320
		c-4.416,0-8-3.592-8-8s3.584-8,8-8s8,3.592,8,8S132.416,320,128,320z"/>
	<path style="fill:#3F3A34;" d="M272,336h208v24c0,13.232-10.768,24-24,24H280c-13.232,0-24-10.768-24-24v-32v-80
		c0-22.056-17.944-40-40-40H40c-22.056,0-40,17.944-40,40v208c0,22.056,17.944,40,40,40h240c22.056,0,40-17.944,40-40v-56h136
		c22.056,0,40-17.944,40-40v-40H272V336z M40,480c-13.232,0-24-10.768-24-24V248c0-13.232,10.768-24,24-24h176
		c13.232,0,24,10.768,24,24v80v32v96c0,9,2.984,17.312,8.016,24H40z M304,456c0,13.232-10.768,24-24,24s-24-10.768-24-24v-64.208
		c4.672,3.536,10.056,6.184,16,7.392V464h16v-64h16V456z"/>
	<path style="fill:#3F3A34;" d="M456,0H280c-22.056,0-40,17.944-40,40v160h16V64h224v240h16V40C496,17.944,478.056,0,456,0z M480,48
		H256v-8c0-13.232,10.768-24,24-24h176c13.232,0,24,10.768,24,24V48z"/>
	<rect x="336" y="352" style="fill:#3F3A34;" width="64" height="16"/>
	<path style="fill:#3F3A34;" d="M128,192c52.936,0,96-43.064,96-96S180.936,0,128,0S32,43.064,32,96S75.064,192,128,192z M128,16
		c44.112,0,80,35.888,80,80s-35.888,80-80,80s-80-35.888-80-80S83.888,16,128,16z"/>
	<path style="fill:#3F3A34;" d="M120,143.592V160h16v-16.408c13.536-1.96,24-13.528,24-27.592c0-15.44-12.56-28-28-28h-8
		c-6.616,0-12-5.384-12-12s5.384-12,12-12h8c6.616,0,12,5.384,12,12v4h16v-4c0-14.064-10.464-25.632-24-27.592V32h-16v16.408
		C106.464,50.368,96,61.936,96,76c0,15.44,12.56,28,28,28h8c6.616,0,12,5.384,12,12s-5.384,12-12,12h-8c-6.616,0-12-5.384-12-12v-4
		H96v4C96,130.064,106.464,141.632,120,143.592z"/>
</g>
<g>
</g>
<g>
</g>
<g>
</g>
<g>
</g>
<g>
</g>
<g>
</g>
<g>
</g>
<g>
</g>
<g>
</g>
<g>
</g>
<g>
</g>
<g>
</g>
<g>
</g>
<g>
</g>
<g>
</g>
</svg>
