<?xml version="1.0" encoding="iso-8859-1"?>
<!-- Generator: Adobe Illustrator 19.0.0, SVG Export Plug-In . SVG Version: 6.00 Build 0)  -->
<svg version="1.1" id="Capa_1" xmlns="http://www.w3.org/2000/svg" xmlns:xlink="http://www.w3.org/1999/xlink" x="0px" y="0px"
	 viewBox="0 0 511.996 511.996" style="enable-background:new 0 0 511.996 511.996;" xml:space="preserve">
<path style="fill:#DD3E46;" d="M230.4,381.018c-26.624,9.515-55.927-4.352-65.442-30.985c-9.515-26.624,4.352-55.927,30.985-65.442
	c11.145-3.985,23.322-3.985,34.466,0v-54.195h-54.195c9.515-26.624-4.352-55.927-30.985-65.442
	c-26.624-9.515-55.927,4.352-65.442,30.985c-3.985,11.145-3.985,23.322,0,34.466H25.6v54.178
	c26.624-9.515,55.927,4.352,65.442,30.985c9.515,26.624-4.352,55.927-30.985,65.442c-11.145,3.985-23.322,3.985-34.466,0v54.187
	H79.77c-9.515,26.624,4.352,55.927,30.985,65.442s55.927-4.352,65.442-30.985c3.985-11.145,3.985-23.322,0-34.466H230.4V381.018z"/>
<path style="fill:#195C85;" d="M448.094,115.034c-12.117,25.549-42.65,36.446-68.198,24.329
	c-25.549-12.117-36.446-42.65-24.329-68.198c5.06-10.675,13.653-19.268,24.329-24.329L341.572,8.529l-38.298,38.306
	c-12.117-25.549-42.65-36.446-68.198-24.329s-36.446,42.65-24.329,68.198c5.06,10.675,13.653,19.268,24.329,24.329l-38.306,38.315
	l38.306,38.306c12.117-25.549,42.65-36.446,68.198-24.329s36.446,42.65,24.329,68.198c-5.06,10.675-13.653,19.268-24.329,24.329
	l38.306,38.306l38.315-38.306c12.117,25.549,42.65,36.446,68.198,24.329c25.549-12.117,36.446-42.65,24.329-68.198
	c-5.06-10.675-13.653-19.268-24.329-24.329l38.306-38.306L448.094,115.034z"/>
<path style="fill:#F49E21;" d="M365.363,366.929c1.015-2.731,1.545-5.623,1.57-8.533c0-14.14-11.46-25.6-25.6-25.6
	s-25.6,11.46-25.6,25.6c0.026,2.91,0.555,5.803,1.57,8.533H281.6v35.703c2.731-1.015,5.623-1.545,8.533-1.57
	c14.14,0,25.6,11.46,25.6,25.6s-11.46,25.6-25.6,25.6c-2.91-0.026-5.803-0.555-8.533-1.57v35.703h119.467V366.929H365.363z"/>
<path style="fill:#FFF69A;" d="M366.933,460.796c-4.71,0-8.533-3.823-8.533-8.533v-8.533c0-4.71,3.823-8.533,8.533-8.533
	s8.533,3.823,8.533,8.533v8.533C375.467,456.973,371.644,460.796,366.933,460.796z"/>
<path d="M230.4,221.862h-43.29c0.41-2.825,0.623-5.683,0.623-8.533c0-32.99-26.743-59.733-59.733-59.733
	s-59.733,26.743-59.733,59.733c0,2.859,0.205,5.709,0.623,8.533H25.6c-4.71,0-8.533,3.823-8.533,8.533v54.178
	c0,4.71,3.823,8.533,8.542,8.525c0.973,0,1.929-0.162,2.842-0.486c22.195-7.919,46.609,3.644,54.528,25.839
	c7.919,22.195-3.644,46.609-25.839,54.528c-9.276,3.311-19.413,3.311-28.689,0c-4.446-1.57-9.318,0.751-10.897,5.197
	c-0.324,0.905-0.486,1.869-0.486,2.842v54.178c0,4.71,3.823,8.533,8.533,8.533h43.29c-0.418,2.825-0.631,5.675-0.623,8.533
	c0,32.99,26.743,59.733,59.733,59.733s59.733-26.743,59.733-59.733c0-2.859-0.205-5.709-0.623-8.533h43.29
	c4.71,0,8.533-3.823,8.533-8.533v-54.178c0-4.71-3.823-8.533-8.542-8.525c-0.973,0-1.929,0.162-2.842,0.486
	c-22.195,7.919-46.609-3.644-54.528-25.839s3.644-46.609,25.839-54.528c9.276-3.311,19.413-3.311,28.689,0
	c4.446,1.57,9.318-0.751,10.897-5.197c0.324-0.913,0.486-1.877,0.486-2.842v-54.178C238.933,225.685,235.11,221.862,230.4,221.862z
	 M221.867,273.685c-2.833-0.418-5.683-0.623-8.533-0.623c-32.99,0-59.733,26.743-59.733,59.733s26.743,59.733,59.733,59.733
	c2.859,0,5.709-0.205,8.533-0.623v34.756h-45.653c-4.71,0-8.533,3.823-8.525,8.542c0,0.973,0.162,1.929,0.486,2.842
	c7.919,22.195-3.644,46.609-25.839,54.528s-46.609-3.644-54.528-25.839c-3.311-9.276-3.311-19.413,0-28.689
	c1.57-4.446-0.751-9.318-5.197-10.897c-0.905-0.324-1.869-0.486-2.833-0.486H34.133v-34.756c2.825,0.418,5.675,0.623,8.533,0.623
	c32.99,0,59.733-26.743,59.733-59.733s-26.743-59.733-59.733-59.733c-2.859,0-5.709,0.205-8.533,0.623v-34.756h45.645
	c4.71,0,8.533-3.823,8.525-8.542c0-0.973-0.162-1.929-0.486-2.842c-7.919-22.195,3.644-46.609,25.839-54.528
	s46.609,3.644,54.528,25.839c3.311,9.276,3.311,19.413,0,28.689c-1.57,4.446,0.751,9.318,5.197,10.897
	c0.905,0.316,1.869,0.486,2.833,0.486h45.653V273.685z"/>
<path d="M454.118,109.001c-3.328-3.337-8.738-3.337-12.066,0c-0.691,0.691-1.254,1.485-1.673,2.364
	c-10.086,21.299-35.524,30.387-56.823,20.301s-30.387-35.524-20.301-56.823c4.215-8.909,11.392-16.077,20.301-20.301
	c4.258-2.022,6.059-7.117,4.036-11.375c-0.418-0.879-0.981-1.681-1.673-2.364L347.605,2.496c-3.328-3.328-8.738-3.328-12.066,0
	l-30.618,30.618c-1.698-2.295-3.558-4.463-5.581-6.485c-23.33-23.33-61.15-23.33-84.48,0s-23.33,61.15,0,84.48
	c2.014,2.022,4.181,3.891,6.477,5.598l-30.609,30.618c-3.328,3.328-3.328,8.738,0,12.066l38.306,38.306
	c3.337,3.328,8.738,3.328,12.066-0.009c0.683-0.683,1.246-1.476,1.664-2.347c10.086-21.299,35.524-30.387,56.823-20.301
	c21.299,10.086,30.387,35.524,20.301,56.823c-4.215,8.909-11.392,16.077-20.301,20.301c-4.25,2.031-6.05,7.125-4.019,11.383
	c0.418,0.87,0.981,1.664,1.664,2.347l38.306,38.306c3.328,3.328,8.738,3.328,12.066,0l30.618-30.609
	c1.707,2.287,3.567,4.454,5.589,6.468c23.33,23.33,61.15,23.33,84.48,0s23.33-61.15,0-84.48c-2.022-2.014-4.181-3.874-6.477-5.572
	l30.618-30.618c3.328-3.328,3.328-8.738,0-12.066L454.118,109.001z M442.018,185.621c-3.328,3.337-3.328,8.738,0.009,12.066
	c0.683,0.683,1.476,1.246,2.347,1.664c21.239,10.035,30.327,35.388,20.292,56.636c-2.108,4.463-4.975,8.525-8.474,11.998
	c-16.589,16.666-43.546,16.717-60.203,0.128c-3.482-3.465-6.332-7.501-8.439-11.938c-2.031-4.25-7.125-6.05-11.383-4.019
	c-0.87,0.418-1.664,0.981-2.347,1.664l-32.282,32.273l-24.585-24.585c2.296-1.698,4.463-3.567,6.485-5.589
	c23.33-23.33,23.33-61.15,0-84.48c-23.33-23.33-61.15-23.33-84.48,0c-2.022,2.022-3.891,4.19-5.589,6.485l-24.585-24.585
	l32.273-32.282c3.328-3.337,3.328-8.738-0.009-12.066c-0.683-0.683-1.476-1.246-2.347-1.664
	c-21.291-10.095-30.37-35.541-20.275-56.832c10.095-21.291,35.541-30.37,56.832-20.275c4.446,2.108,8.491,4.966,11.964,8.457
	c3.422,3.447,6.229,7.441,8.303,11.827c2.031,4.25,7.125,6.05,11.383,4.019c0.87-0.418,1.664-0.981,2.347-1.664l32.273-32.273
	l24.636,24.636c-26.394,19.797-31.744,57.233-11.947,83.627s57.233,31.744,83.627,11.947c4.531-3.396,8.55-7.415,11.947-11.947
	l24.585,24.585L442.018,185.621z"/>
<path d="M401.067,358.396h-25.6c0-18.85-15.283-34.133-34.133-34.133S307.2,339.546,307.2,358.396h-25.6
	c-4.71,0-8.533,3.823-8.533,8.533v35.703c0,4.71,3.823,8.533,8.542,8.525c0.973,0,1.929-0.162,2.842-0.486
	c1.818-0.683,3.738-1.05,5.683-1.075c9.429,0,17.067,7.637,17.067,17.067s-7.637,17.067-17.067,17.067
	c-1.946-0.026-3.866-0.393-5.683-1.075c-4.446-1.57-9.318,0.751-10.897,5.197c-0.324,0.905-0.486,1.869-0.486,2.842v35.703
	c0,4.71,3.823,8.533,8.533,8.533h119.467c4.71,0,8.533-3.823,8.533-8.533V366.929C409.6,362.219,405.777,358.396,401.067,358.396z
	 M392.533,477.862h-102.4v-17.067c18.85,0,34.133-15.283,34.133-34.133s-15.283-34.133-34.133-34.133v-17.067h27.17
	c4.71,0,8.533-3.823,8.525-8.542c0-0.973-0.162-1.929-0.486-2.842c-0.683-1.818-1.05-3.746-1.075-5.683
	c0-9.429,7.637-17.067,17.067-17.067s17.067,7.637,17.067,17.067c-0.026,1.946-0.393,3.866-1.075,5.683
	c-1.57,4.446,0.751,9.318,5.197,10.897c0.905,0.316,1.869,0.486,2.842,0.486h27.17V477.862z"/>
<path d="M358.4,443.729v8.533c0,4.71,3.823,8.533,8.533,8.533s8.533-3.823,8.533-8.533v-8.533c0-4.71-3.823-8.533-8.533-8.533
	S358.4,439.019,358.4,443.729z"/>
<g>
</g>
<g>
</g>
<g>
</g>
<g>
</g>
<g>
</g>
<g>
</g>
<g>
</g>
<g>
</g>
<g>
</g>
<g>
</g>
<g>
</g>
<g>
</g>
<g>
</g>
<g>
</g>
<g>
</g>
</svg>
