<?xml version="1.0" encoding="iso-8859-1"?>
<!-- Generator: Adobe Illustrator 19.0.0, SVG Export Plug-In . SVG Version: 6.00 Build 0)  -->
<svg version="1.1" id="Capa_1" xmlns="http://www.w3.org/2000/svg" xmlns:xlink="http://www.w3.org/1999/xlink" x="0px" y="0px"
	 viewBox="0 0 512 512" style="enable-background:new 0 0 512 512;" xml:space="preserve">
<g>
	<path style="fill:#F49E21;" d="M59.733,204.8h443.733l0,0v102.4l0,0H59.733c-28.279,0-51.2-22.921-51.2-51.2l0,0
		C8.533,227.721,31.454,204.8,59.733,204.8z"/>
	<path style="fill:#F49E21;" d="M512,315.733H59.733C26.743,315.733,0,288.99,0,256s26.743-59.733,59.733-59.733H512V315.733z
		 M59.733,213.333c-23.561,0-42.667,19.106-42.667,42.667c0,23.561,19.106,42.667,42.667,42.667h435.2v-85.333H59.733z"/>
</g>
<g>
	<circle style="fill:#195C85;" cx="452.267" cy="256" r="17.067"/>
	<path style="fill:#195C85;" d="M452.267,281.6c-14.14,0-25.6-11.46-25.6-25.6c0-14.14,11.46-25.6,25.6-25.6s25.6,11.46,25.6,25.6
		C477.867,270.14,466.406,281.6,452.267,281.6z M452.267,247.467c-4.71,0-8.533,3.823-8.533,8.533c0,4.71,3.823,8.533,8.533,8.533
		S460.8,260.71,460.8,256C460.8,251.29,456.977,247.467,452.267,247.467z"/>
</g>
<g>
	<path style="fill:#FDBD40;" d="M59.733,68.267h443.733l0,0v102.4l0,0H59.733c-28.279,0-51.2-22.921-51.2-51.2l0,0
		C8.533,91.187,31.454,68.267,59.733,68.267z"/>
	<path style="fill:#FDBD40;" d="M503.467,179.2H59.733C26.743,179.2,0,152.457,0,119.467s26.743-59.733,59.733-59.733h443.733
		c4.71,0,8.533,3.823,8.533,8.533v102.4C512,175.377,508.177,179.2,503.467,179.2z M59.733,76.8
		c-23.561,0-42.667,19.106-42.667,42.667s19.106,42.667,42.667,42.667h435.2V76.8H59.733z"/>
</g>
<g>
	<circle style="fill:#195C85;" cx="452.267" cy="119.467" r="17.067"/>
	<path style="fill:#195C85;" d="M452.267,145.067c-14.14,0-25.6-11.46-25.6-25.6s11.46-25.6,25.6-25.6s25.6,11.46,25.6,25.6
		S466.406,145.067,452.267,145.067z M452.267,110.933c-4.71,0-8.533,3.823-8.533,8.533c0,4.71,3.823,8.533,8.533,8.533
		s8.533-3.823,8.533-8.533C460.8,114.756,456.977,110.933,452.267,110.933z"/>
</g>
<g>
	<path style="fill:#FDBD40;" d="M59.733,341.333h443.733l0,0v102.4l0,0H59.733c-28.279,0-51.2-22.921-51.2-51.2l0,0
		C8.533,364.254,31.454,341.333,59.733,341.333z"/>
	<path style="fill:#FDBD40;" d="M503.467,452.267H59.733C26.743,452.267,0,425.523,0,392.533S26.743,332.8,59.733,332.8h443.733
		c4.71,0,8.533,3.823,8.533,8.533v102.4C512,448.444,508.177,452.267,503.467,452.267z M59.733,349.867
		c-23.561,0-42.667,19.106-42.667,42.667S36.173,435.2,59.733,435.2h435.2v-85.333H59.733z"/>
</g>
<g>
	<circle style="fill:#195C85;" cx="452.267" cy="392.533" r="17.067"/>
	<path style="fill:#195C85;" d="M452.267,418.133c-14.14,0-25.6-11.46-25.6-25.6s11.46-25.6,25.6-25.6s25.6,11.46,25.6,25.6
		S466.406,418.133,452.267,418.133z M452.267,384c-4.71,0-8.533,3.823-8.533,8.533s3.823,8.533,8.533,8.533s8.533-3.823,8.533-8.533
		S456.977,384,452.267,384z"/>
</g>
<g>
	<rect x="51.2" y="110.933" style="fill:#FFFFFF;" width="17.067" height="17.067"/>
	<rect x="85.333" y="110.933" style="fill:#FFFFFF;" width="17.067" height="17.067"/>
	<rect x="51.2" y="247.467" style="fill:#FFFFFF;" width="17.067" height="17.067"/>
	<rect x="85.333" y="247.467" style="fill:#FFFFFF;" width="17.067" height="17.067"/>
	<rect x="51.2" y="384" style="fill:#FFFFFF;" width="17.067" height="17.067"/>
	<rect x="85.333" y="384" style="fill:#FFFFFF;" width="17.067" height="17.067"/>
</g>
<g>
	<path style="fill:#195C85;" d="M426.667,68.267H409.6v-51.2h-51.2V0h59.733c4.71,0,8.533,3.823,8.533,8.533V68.267z"/>
	<rect x="443.733" style="fill:#195C85;" width="17.067" height="68.267"/>
	<rect x="51.2" y="443.733" style="fill:#195C85;" width="17.067" height="68.267"/>
	<rect x="324.267" style="fill:#195C85;" width="17.067" height="17.067"/>
	<path style="fill:#195C85;" d="M153.6,512H93.867c-4.71,0-8.533-3.823-8.533-8.533v-59.733H102.4v51.2h51.2V512z"/>
	<rect x="170.667" y="494.933" style="fill:#195C85;" width="17.067" height="17.067"/>
</g>
<path d="M503.467,196.267H59.733C26.743,196.267,0,223.01,0,256s26.743,59.733,59.733,59.733h443.733
	c4.71,0,8.533-3.823,8.533-8.533V204.8C512,200.09,508.177,196.267,503.467,196.267z M494.933,298.667h-435.2
	c-23.561,0-42.667-19.106-42.667-42.667s19.106-42.667,42.667-42.667h435.2V298.667z"/>
<path d="M452.267,281.6c14.14,0,25.6-11.46,25.6-25.6c0-14.14-11.46-25.6-25.6-25.6s-25.6,11.46-25.6,25.6
	C426.667,270.14,438.127,281.6,452.267,281.6z M452.267,247.467c4.71,0,8.533,3.823,8.533,8.533c0,4.71-3.823,8.533-8.533,8.533
	s-8.533-3.823-8.533-8.533C443.733,251.29,447.556,247.467,452.267,247.467z"/>
<path d="M503.467,59.733H460.8V0h-17.067v59.733h-17.067v-51.2c0-4.71-3.823-8.533-8.533-8.533H358.4v17.067h51.2v42.667H59.733
	C26.743,59.733,0,86.477,0,119.467S26.743,179.2,59.733,179.2h443.733c4.71,0,8.533-3.823,8.533-8.533v-102.4
	C512,63.556,508.177,59.733,503.467,59.733z M494.933,162.133h-435.2c-23.561,0-42.667-19.106-42.667-42.667
	S36.173,76.8,59.733,76.8h435.2V162.133z"/>
<path d="M452.267,145.067c14.14,0,25.6-11.46,25.6-25.6s-11.46-25.6-25.6-25.6s-25.6,11.46-25.6,25.6
	S438.127,145.067,452.267,145.067z M452.267,110.933c4.71,0,8.533,3.823,8.533,8.533c0,4.71-3.823,8.533-8.533,8.533
	s-8.533-3.823-8.533-8.533C443.733,114.756,447.556,110.933,452.267,110.933z"/>
<path d="M503.467,332.8H59.733c-32.99,0.256-59.529,27.204-59.273,60.194c0.23,29.338,21.734,54.17,50.739,58.59V512h17.067v-59.733
	h17.067v51.2c0,4.71,3.823,8.533,8.533,8.533H153.6v-17.067h-51.2v-42.667h401.067c4.71,0,8.533-3.823,8.533-8.533v-102.4
	C512,336.623,508.177,332.8,503.467,332.8z M494.933,435.2h-435.2c-23.561,0-42.667-19.106-42.667-42.667
	s19.106-42.667,42.667-42.667h435.2V435.2z"/>
<path d="M452.267,418.133c14.14,0,25.6-11.46,25.6-25.6s-11.46-25.6-25.6-25.6s-25.6,11.46-25.6,25.6
	S438.127,418.133,452.267,418.133z M452.267,384c4.71,0,8.533,3.823,8.533,8.533s-3.823,8.533-8.533,8.533s-8.533-3.823-8.533-8.533
	S447.556,384,452.267,384z"/>
<rect x="51.2" y="110.933" width="17.067" height="17.067"/>
<rect x="85.333" y="110.933" width="17.067" height="17.067"/>
<rect x="51.2" y="247.467" width="17.067" height="17.067"/>
<rect x="85.333" y="247.467" width="17.067" height="17.067"/>
<rect x="51.2" y="384" width="17.067" height="17.067"/>
<rect x="85.333" y="384" width="17.067" height="17.067"/>
<rect x="324.267" width="17.067" height="17.067"/>
<rect x="170.667" y="494.933" width="17.067" height="17.067"/>
<g>
</g>
<g>
</g>
<g>
</g>
<g>
</g>
<g>
</g>
<g>
</g>
<g>
</g>
<g>
</g>
<g>
</g>
<g>
</g>
<g>
</g>
<g>
</g>
<g>
</g>
<g>
</g>
<g>
</g>
</svg>
