<?xml version="1.0" encoding="iso-8859-1"?>
<!-- Generator: Adobe Illustrator 19.0.0, SVG Export Plug-In . SVG Version: 6.00 Build 0)  -->
<svg version="1.1" id="Capa_1" xmlns="http://www.w3.org/2000/svg" xmlns:xlink="http://www.w3.org/1999/xlink" x="0px" y="0px"
	 viewBox="0 0 512.001 512.001" style="enable-background:new 0 0 512.001 512.001;" xml:space="preserve">
<path style="fill:#31A1F4;" d="M431.594,504.5H80.408c-13.095,0-23.711-10.616-23.711-23.711V129.603
	c0-13.095,10.616-23.711,23.711-23.711h351.186c13.095,0,23.711,10.616,23.711,23.711v351.186
	C455.305,493.884,444.689,504.5,431.594,504.5z"/>
<path style="fill:#0781E5;" d="M455.301,129.604v351.19c0,13.09-10.61,23.71-23.71,23.71h-15v-398.61h15
	C444.691,105.894,455.301,116.504,455.301,129.604z"/>
<g>
	<circle style="fill:#ECF1F7;" cx="304.301" cy="223.35" r="20.314"/>
	<circle style="fill:#ECF1F7;" cx="304.301" cy="328.25" r="20.314"/>
	<circle style="fill:#ECF1F7;" cx="304.301" cy="433.15" r="20.314"/>
</g>
<g>
	<path style="fill:#DCDEE0;" d="M324.611,223.354c0,11.22-9.09,20.31-20.31,20.31c-6.59,0-12.46-3.14-16.17-8.01
		c11.01-0.23,19.87-9.23,19.87-20.3c0-4.63-1.55-8.89-4.15-12.31c0.15-0.01,0.3-0.01,0.45-0.01
		C315.521,203.034,324.611,212.134,324.611,223.354z"/>
	<path style="fill:#DCDEE0;" d="M324.611,328.254c0,11.22-9.09,20.31-20.31,20.31c-6.59,0-12.46-3.14-16.17-8.01
		c11.01-0.23,19.87-9.23,19.87-20.3c0-4.63-1.55-8.89-4.15-12.31c0.15-0.01,0.3-0.01,0.45-0.01
		C315.521,307.934,324.611,317.034,324.611,328.254z"/>
	<path style="fill:#DCDEE0;" d="M324.611,433.154c0,11.22-9.09,20.31-20.31,20.31c-6.59,0-12.46-3.14-16.17-8.01
		c11.01-0.23,19.87-9.23,19.87-20.3c0-4.63-1.55-8.89-4.15-12.31c0.15-0.01,0.3-0.01,0.45-0.01
		C315.521,412.834,324.611,421.934,324.611,433.154z"/>
</g>
<path style="fill:#31A1F4;" d="M404.841,105.893h-297.68V31.211c0-13.095,10.616-23.711,23.711-23.711h250.259
	c13.095,0,23.711,10.616,23.711,23.711v74.682H404.841z"/>
<path style="fill:#0781E5;" d="M404.841,31.214v74.68h-38.71V7.504h15C394.221,7.504,404.841,18.114,404.841,31.214z"/>
<path style="fill:#F97A41;" d="M343.882,180.635c15.951-4.822,23.227-20.372,25.423-35.752c2.458-17.212,2.851-37.021-1.789-53.848
	c-3.388-12.283-10.973-23.169-23.634-26.997c0,0-37.745-11.211-72.873,34.381v23.917v23.917
	C306.138,191.847,343.882,180.635,343.882,180.635z"/>
<path style="fill:#F2662F;" d="M369.307,144.882c-2.2,15.38-9.47,30.93-25.42,35.75c0,0-9.64,2.86-23.71-0.19
	c15.55-5.01,22.68-20.37,24.85-35.56c2.45-17.21,2.85-37.02-1.79-53.85c-3.34-12.09-10.75-22.83-23.06-26.8
	c14.07-3.05,23.71-0.19,23.71-0.19c12.66,3.82,20.24,14.71,23.63,26.99C372.157,107.862,371.767,127.672,369.307,144.882z"/>
<path style="fill:#F97A41;" d="M168.118,180.635c-15.951-4.822-23.227-20.372-25.423-35.752
	c-2.458-17.212-2.851-37.021,1.789-53.848c3.388-12.283,10.973-23.169,23.634-26.997c0,0,37.744-11.211,72.873,34.381v23.917v23.917
	C205.863,191.847,168.118,180.635,168.118,180.635z"/>
<path d="M343.882,180.636h0.01H343.882z"/>
<path style="fill:#F97A41;" d="M255.881,152.171h-0.774c-16.075,0-29.227-13.152-29.227-29.227l0,0
	c0-16.075,13.152-29.227,29.227-29.227h0.774c16.075,0,29.227,13.152,29.227,29.227l0,0
	C285.109,139.019,271.957,152.171,255.881,152.171z"/>
<path style="fill:#F2662F;" d="M285.107,122.942c0,8.04-3.29,15.35-8.58,20.64c-5.3,5.3-12.61,8.59-20.65,8.59h-0.77
	c-2.94,0-5.79-0.44-8.47-1.26c4.65-1.42,8.81-3.97,12.17-7.33c5.29-5.29,8.58-12.6,8.58-20.64c0-13.13-8.78-24.32-20.75-27.97
	c2.68-0.82,5.53-1.26,8.47-1.26h0.77C271.957,93.712,285.107,106.872,285.107,122.942z"/>
<path d="M304.299,195.536c-15.337,0-27.814,12.478-27.814,27.814s12.478,27.814,27.814,27.814s27.814-12.478,27.814-27.814
	S319.636,195.536,304.299,195.536z M304.299,236.165c-7.065,0-12.814-5.749-12.814-12.814s5.749-12.814,12.814-12.814
	s12.814,5.749,12.814,12.814S311.364,236.165,304.299,236.165z"/>
<path d="M304.299,300.438c-15.337,0-27.814,12.478-27.814,27.814s12.478,27.813,27.814,27.813s27.814-12.478,27.814-27.813
	C332.113,312.915,319.636,300.438,304.299,300.438z M304.299,341.065c-7.065,0-12.814-5.748-12.814-12.813
	s5.749-12.814,12.814-12.814s12.814,5.749,12.814,12.814S311.364,341.065,304.299,341.065z"/>
<path d="M304.299,405.338c-15.337,0-27.814,12.478-27.814,27.814s12.478,27.814,27.814,27.814s27.814-12.478,27.814-27.814
	S319.636,405.338,304.299,405.338z M304.299,445.967c-7.065,0-12.814-5.749-12.814-12.814s5.749-12.814,12.814-12.814
	s12.814,5.749,12.814,12.814S311.364,445.967,304.299,445.967z"/>
<path d="M248.501,190.479v284.985c0,4.143,3.357,7.5,7.5,7.5s7.5-3.357,7.5-7.5V190.479c0-4.143-3.357-7.5-7.5-7.5
	S248.501,186.336,248.501,190.479z"/>
<path d="M455.305,359.504c4.143,0,7.5-3.357,7.5-7.5v-222.4c0-17.21-14.001-31.211-31.211-31.211h-19.253V31.211
	C412.341,14.001,398.34,0,381.13,0H231.001c-4.143,0-7.5,3.357-7.5,7.5s3.357,7.5,7.5,7.5H381.13
	c8.938,0,16.211,7.272,16.211,16.211v67.182h-20.534c-0.543-3.143-1.211-6.272-2.06-9.352c-2.402-8.706-6.377-15.979-11.63-21.548
	l8.272-4.065c2.566-1.262,4.192-3.872,4.192-6.731V32.985c0-4.143-3.357-7.5-7.5-7.5s-7.5,3.357-7.5,7.5v19.04l-11.778,5.788
	c-0.912-0.352-1.839-0.678-2.786-0.964c-1.681-0.499-40.157-11.273-76.809,31.882c-4.135-1.616-8.627-2.514-13.327-2.514h-0.774
	c-4.413,0-8.647,0.783-12.57,2.217c-36.576-42.809-74.88-32.082-76.59-31.574c-0.969,0.293-1.916,0.629-2.848,0.991l-11.679-5.803
	V32.985c0-4.143-3.357-7.5-7.5-7.5s-7.5,3.357-7.5,7.5v23.711c0,2.848,1.612,5.449,4.163,6.717l8.268,4.108
	c-5.235,5.564-9.201,12.827-11.598,21.52c-0.849,3.079-1.517,6.209-2.061,9.352h-20.531V31.211c0-8.938,7.272-16.211,16.211-16.211
	h52.629c4.143,0,7.5-3.357,7.5-7.5s-3.357-7.5-7.5-7.5h-52.629c-17.21,0-31.211,14.001-31.211,31.211v67.182H80.408
	c-17.21,0-31.211,14.001-31.211,31.211V480.79c0,17.21,14.001,31.211,31.211,31.211h351.186c17.21,0,31.211-14.001,31.211-31.211
	v-82.285c0-4.143-3.357-7.5-7.5-7.5s-7.5,3.357-7.5,7.5v82.285c0,8.938-7.272,16.211-16.211,16.211H80.408
	c-8.938,0-16.211-7.272-16.211-16.211V129.604c0-8.938,7.272-16.211,16.211-16.211h26.753h26.414
	c-0.584,12.08,0.415,23.588,1.695,32.551c3.092,21.649,14.273,36.911,30.677,41.871c0.012,0.004,0.023,0.008,0.035,0.011
	c0.576,0.171,5.479,1.552,13.153,1.552c14.489,0,38.851-4.957,62.602-32.236c4.146,1.627,8.653,2.53,13.37,2.53h0.774
	c4.994,0,9.757-1.006,14.101-2.819c23.841,27.562,48.337,32.525,62.881,32.525c7.673,0,12.577-1.381,13.153-1.552
	c0.012-0.003,0.023-0.007,0.035-0.011c16.404-4.96,27.586-20.222,30.678-41.872c1.28-8.963,2.278-20.47,1.694-32.55h26.416h26.753
	c8.938,0,16.211,7.272,16.211,16.211v222.4C447.805,356.146,451.162,359.504,455.305,359.504z M205.561,110.576
	c4.695,0.888,9.506,2.703,13.654,4.597c-0.542,2.506-0.835,5.105-0.835,7.771c0,2.273,0.218,4.496,0.616,6.656
	c-4.098,1.858-8.822,3.625-13.435,4.497c-4.069,0.77-6.745,4.693-5.975,8.764c0.681,3.599,3.827,6.106,7.36,6.106
	c0.463,0,0.932-0.043,1.403-0.132c5.731-1.084,11.425-3.162,16.328-5.348c1.298,1.917,2.773,3.703,4.4,5.339
	c-29.069,32.151-57.213,25.061-58.849,24.612c-14.443-4.409-18.799-20.442-20.108-29.616c-2.731-19.123-2.165-37.162,1.595-50.794
	c1.819-6.599,6.651-18.206,18.539-21.801c0.307-0.093,29.551-8.254,59.41,25.268c-1.587,1.528-3.038,3.195-4.331,4.984
	c-5.047-2.292-10.995-4.509-16.983-5.642c-4.068-0.765-7.994,1.905-8.764,5.975C198.815,105.883,201.491,109.807,205.561,110.576z
	 M255.882,144.671h-0.774c-11.98,0-21.728-9.747-21.728-21.728s9.747-21.727,21.728-21.727h0.774
	c11.98,0,21.727,9.747,21.727,21.728S267.862,144.671,255.882,144.671z M361.881,143.822c-1.311,9.181-5.671,25.232-20.144,29.627
	c-0.657,0.186-29.666,8.03-59.308-25.166c1.522-1.594,2.904-3.321,4.122-5.168c5.083,2.32,11.101,4.574,17.158,5.72
	c0.472,0.089,0.94,0.132,1.403,0.132c3.532,0,6.68-2.508,7.36-6.106c0.771-4.07-1.905-7.994-5.975-8.764
	c-4.987-0.944-10.111-2.931-14.424-4.95c0.345-2.018,0.535-4.089,0.535-6.204c0-2.506-0.254-4.954-0.735-7.32
	c4.356-2.052,9.557-4.088,14.624-5.047c4.069-0.77,6.745-4.693,5.975-8.764c-0.77-4.07-4.69-6.745-8.764-5.975
	c-6.309,1.194-12.577,3.591-17.79,6.012c-1.214-1.723-2.564-3.343-4.049-4.831c29.644-33.737,58.64-26.134,59.841-25.802
	c11.922,3.604,16.756,15.214,18.575,21.812C364.045,106.659,364.611,124.698,361.881,143.822z"/>
<g>
</g>
<g>
</g>
<g>
</g>
<g>
</g>
<g>
</g>
<g>
</g>
<g>
</g>
<g>
</g>
<g>
</g>
<g>
</g>
<g>
</g>
<g>
</g>
<g>
</g>
<g>
</g>
<g>
</g>
</svg>
