<?xml version="1.0" encoding="iso-8859-1"?>
<!-- Generator: Adobe Illustrator 19.0.0, SVG Export Plug-In . SVG Version: 6.00 Build 0)  -->
<svg version="1.1" id="Capa_1" xmlns="http://www.w3.org/2000/svg" xmlns:xlink="http://www.w3.org/1999/xlink" x="0px" y="0px"
	 viewBox="0 0 512 512" style="enable-background:new 0 0 512 512;" xml:space="preserve">
<circle style="fill:#FFB125;" cx="138.79" cy="138.79" r="131.38"/>
<path style="fill:#FF901D;" d="M138.79,7.411c-8.161,0-16.146,0.75-23.895,2.174c61.149,11.237,107.484,64.807,107.484,129.205
	s-46.335,117.968-107.484,129.205c7.749,1.424,15.734,2.174,23.895,2.174c72.559,0,131.379-58.821,131.379-131.379
	S211.349,7.411,138.79,7.411z"/>
<circle style="fill:#FEE570;" cx="138.79" cy="138.79" r="106.17"/>
<circle style="fill:#FFB125;" cx="373.21" cy="373.21" r="131.38"/>
<path style="fill:#FF901D;" d="M373.21,241.831c-8.01,0-15.852,0.719-23.466,2.092c61.362,11.064,107.913,64.738,107.913,129.287
	s-46.551,118.223-107.913,129.287c7.614,1.373,15.456,2.092,23.466,2.092c72.559,0,131.379-58.821,131.379-131.379
	S445.769,241.831,373.21,241.831z"/>
<circle style="fill:#FEE570;" cx="373.21" cy="373.21" r="106.17"/>
<g>
	<path style="fill:#F4D451;" d="M213.864,213.864c41.462-41.462,41.462-108.685,0-150.147L63.716,213.864
		C105.178,255.326,172.402,255.326,213.864,213.864z"/>
	<path style="fill:#F4D451;" d="M448.284,298.136L298.136,448.284c41.462,41.462,108.685,41.462,150.147,0
		S489.746,339.598,448.284,298.136z"/>
</g>
<path d="M236.376,469.928c-0.004-0.096-0.007-0.192-0.014-0.288c-0.018-0.215-0.047-0.425-0.082-0.635
	c-0.009-0.056-0.015-0.112-0.026-0.167c-0.106-0.551-0.275-1.078-0.496-1.578c-0.023-0.052-0.05-0.102-0.074-0.154
	c-0.09-0.192-0.188-0.38-0.294-0.563c-0.041-0.07-0.083-0.138-0.126-0.207c-0.102-0.163-0.21-0.321-0.324-0.475
	c-0.05-0.068-0.1-0.137-0.152-0.204c-0.132-0.166-0.271-0.325-0.416-0.479c-0.041-0.043-0.078-0.089-0.119-0.131
	c-0.191-0.193-0.392-0.375-0.603-0.546c-0.01-0.008-0.018-0.017-0.028-0.026l-35.077-28.172c-3.192-2.564-7.856-2.053-10.418,1.138
	c-2.563,3.191-2.053,7.855,1.138,10.418l17.268,13.87c-45.673-4.524-86.861-22.862-117.705-52.788
	c-34.991-33.951-54.261-80.07-54.261-129.864c0-4.093-3.317-7.411-7.411-7.411s-7.411,3.318-7.411,7.411
	c0,53.837,20.868,103.734,58.761,140.501c33.416,32.423,77.951,52.225,127.212,56.965l-17.293,11.248
	c-3.431,2.231-4.404,6.821-2.172,10.253c1.42,2.183,3.795,3.371,6.219,3.371c1.385,0,2.787-0.388,4.033-1.199l36.515-23.749
	c0.012-0.008,0.022-0.017,0.033-0.024c0.23-0.152,0.453-0.315,0.664-0.491c0.031-0.026,0.058-0.055,0.089-0.081
	c0.173-0.149,0.34-0.305,0.498-0.469c0.061-0.063,0.117-0.129,0.176-0.193c0.124-0.138,0.244-0.28,0.358-0.427
	c0.054-0.07,0.107-0.141,0.159-0.213c0.115-0.16,0.223-0.326,0.325-0.495c0.036-0.06,0.075-0.118,0.109-0.179
	c0.269-0.475,0.487-0.981,0.646-1.514c0.012-0.041,0.02-0.083,0.032-0.124c0.061-0.218,0.114-0.44,0.155-0.666
	c0.015-0.083,0.026-0.166,0.038-0.25c0.027-0.186,0.049-0.374,0.062-0.564c0.004-0.051,0.014-0.101,0.017-0.152
	c0.003-0.05-0.003-0.1-0.001-0.15c0.002-0.074,0.011-0.146,0.011-0.22C236.392,470.143,236.38,470.037,236.376,469.928z"/>
<path d="M276.068,46.844c0.004,0.096,0.007,0.192,0.014,0.288c0.018,0.215,0.047,0.425,0.082,0.635
	c0.009,0.056,0.015,0.112,0.026,0.167c0.106,0.55,0.275,1.078,0.496,1.578c0.023,0.053,0.05,0.103,0.075,0.155
	c0.09,0.192,0.187,0.38,0.293,0.562c0.041,0.07,0.083,0.138,0.126,0.207c0.102,0.163,0.21,0.321,0.324,0.475
	c0.05,0.068,0.1,0.137,0.152,0.204c0.132,0.166,0.271,0.325,0.416,0.479c0.041,0.043,0.078,0.089,0.119,0.131
	c0.191,0.193,0.392,0.375,0.603,0.546c0.01,0.008,0.018,0.017,0.028,0.026l35.077,28.172c1.368,1.099,3.008,1.633,4.635,1.633
	c2.169,0,4.319-0.948,5.783-2.771c2.563-3.191,2.053-7.855-1.138-10.418l-17.269-13.87c45.673,4.524,86.862,22.861,117.706,52.788
	c34.991,33.95,54.261,80.07,54.261,129.864c0,4.093,3.317,7.411,7.411,7.411c4.093,0,7.411-3.318,7.411-7.411
	c0-53.837-20.868-103.734-58.761-140.501C400.52,64.773,355.985,44.971,306.724,40.23l17.294-11.248
	c3.431-2.231,4.404-6.821,2.172-10.253c-2.232-3.431-6.824-4.404-10.252-2.172l-36.515,23.75c-0.012,0.008-0.022,0.017-0.033,0.024
	c-0.23,0.152-0.453,0.315-0.664,0.491c-0.031,0.026-0.058,0.054-0.089,0.08c-0.173,0.149-0.34,0.305-0.499,0.469
	c-0.06,0.063-0.117,0.128-0.175,0.192c-0.125,0.138-0.244,0.28-0.359,0.428c-0.054,0.07-0.107,0.141-0.159,0.213
	c-0.115,0.16-0.223,0.326-0.325,0.495c-0.036,0.06-0.075,0.118-0.109,0.179c-0.269,0.475-0.487,0.981-0.647,1.514
	c-0.012,0.04-0.02,0.081-0.031,0.121c-0.061,0.219-0.114,0.441-0.155,0.668c-0.015,0.083-0.026,0.166-0.038,0.25
	c-0.027,0.186-0.049,0.374-0.062,0.564c-0.004,0.051-0.014,0.101-0.017,0.152c-0.003,0.05,0.003,0.1,0.001,0.15
	c-0.002,0.074-0.011,0.146-0.011,0.22C276.052,46.629,276.064,46.736,276.068,46.844z"/>
<path d="M138.79,277.58c76.529,0,138.79-62.261,138.79-138.79S215.319,0,138.79,0S0,62.261,0,138.79S62.261,277.58,138.79,277.58z
	 M138.79,14.821c68.356,0,123.969,55.612,123.969,123.969c0,68.356-55.613,123.969-123.969,123.969S14.821,207.146,14.821,138.79
	C14.821,70.433,70.434,14.821,138.79,14.821z"/>
<path d="M138.79,252.371c30.339,0,58.861-11.814,80.313-33.267c16.023-16.021,26.789-36.198,31.135-58.349
	c0.788-4.016-1.829-7.91-5.844-8.699c-4.025-0.79-7.911,1.829-8.699,5.845c-3.778,19.251-13.138,36.79-27.072,50.723
	c-18.653,18.653-43.453,28.926-69.833,28.926s-51.181-10.273-69.834-28.926c-13.899-13.899-23.251-31.392-27.045-50.588
	c-0.793-4.015-4.684-6.625-8.706-5.833c-4.015,0.794-6.627,4.692-5.833,8.707c4.365,22.088,15.12,42.212,31.103,58.195
	C79.929,240.557,108.451,252.371,138.79,252.371z"/>
<path d="M34.137,119.373c3.968,1.02,8.005-1.364,9.026-5.327c4.383-17.006,13.302-32.598,25.794-45.09
	C87.609,50.303,112.41,40.03,138.79,40.03s51.18,10.272,69.833,28.926c12.521,12.52,21.45,28.15,25.823,45.199
	c0.858,3.347,3.87,5.571,7.173,5.571c0.609,0,1.228-0.076,1.846-0.234c3.965-1.017,6.354-5.055,5.337-9.019
	c-5.032-19.62-15.302-37.6-29.698-51.997c-21.453-21.452-49.975-33.267-80.314-33.267S79.929,37.024,58.476,58.476
	C44.112,72.841,33.854,90.778,28.81,110.347C27.789,114.311,30.174,118.351,34.137,119.373z"/>
<path d="M373.21,234.42c-76.529,0-138.79,62.261-138.79,138.79S296.681,512,373.21,512S512,449.739,512,373.21
	S449.739,234.42,373.21,234.42z M373.21,497.179c-68.356,0-123.969-55.612-123.969-123.969c0-68.356,55.613-123.969,123.969-123.969
	s123.969,55.612,123.969,123.969S441.566,497.179,373.21,497.179z"/>
<path d="M268.337,355.031c3.974,0.979,7.988-1.459,8.961-5.433c4.278-17.457,13.296-33.44,26.079-46.222
	c18.653-18.653,43.453-28.926,69.833-28.926s51.181,10.273,69.834,28.926c12.903,12.902,21.959,29.049,26.193,46.694
	c0.815,3.399,3.852,5.684,7.2,5.683c0.572,0,1.154-0.067,1.735-0.206c3.979-0.955,6.432-4.955,5.477-8.935
	c-4.871-20.306-15.288-38.881-30.124-53.717c-21.453-21.453-49.976-33.267-80.314-33.267s-58.861,11.814-80.314,33.267
	c-14.698,14.698-25.068,33.085-29.992,53.173C261.929,350.045,264.362,354.057,268.337,355.031z"/>
<path d="M478.694,387.4c-4.014-0.821-7.927,1.76-8.75,5.769c-3.883,18.913-13.185,36.159-26.901,49.875
	c-18.653,18.653-43.454,28.926-69.834,28.926s-51.18-10.272-69.833-28.926c-13.607-13.606-22.879-30.705-26.813-49.449
	c-0.839-4.006-4.77-6.571-8.775-5.73c-4.005,0.84-6.571,4.769-5.73,8.774c4.526,21.568,15.19,41.238,30.837,56.884
	c21.453,21.452,49.975,33.267,80.314,33.267s58.862-11.814,80.314-33.267c15.772-15.772,26.47-35.612,30.938-57.374
	C485.285,392.14,482.702,388.223,478.694,387.4z"/>
<g>
	<path style="fill:#FF901D;" d="M398.26,369.435c8.451-3.738,13.815-12.839,13.815-26.329c0-17.049-8.549-24.288-20.086-26.88h0.413
		v-7.582c0-4.188-3.395-7.582-7.582-7.582s-7.582,3.395-7.582,7.582v6.346h-8.29v-6.346c0-4.188-3.395-7.582-7.582-7.582
		c-4.188,0-7.582,3.395-7.582,7.582v6.346h-2.134h-1.983h-7.428c-4.426,0-8.015,3.588-8.015,8.015c0,4.355,3.476,7.892,7.805,8.004
		v86.767c-4.328,0.112-7.805,3.649-7.805,8.004c0,4.426,3.588,8.015,8.015,8.015h7.428h1.983h2.134v6.744
		c0,4.188,3.395,7.582,7.582,7.582s7.582-3.395,7.582-7.582v-6.744h8.29v6.744c0,4.188,3.395,7.582,7.582,7.582
		c4.188,0,7.582-3.395,7.582-7.582v-7.582h-0.766C405.303,430.231,415,420.523,415,399.665v-3.088
		C415,380,408.337,373.336,398.26,369.435z M359.092,330.267h19.016c10.238,0,16.739,4.714,16.739,15.602
		c0,11.052-5.363,16.74-16.414,16.74h-19.341V330.267z M397.773,398.365c0,13.977-6.827,20.153-18.365,20.153h-20.316v-42.256
		h20.316c11.539,0,18.365,5.201,18.365,19.503V398.365z"/>
	<path style="fill:#FF901D;" d="M137.492,201.891c-22.686-0.366-38.054-12.624-38.054-21.588c0-4.391,3.842-10.428,8.416-10.428
		c6.037,0,10.977,12.807,29.638,14.27v-42.993c-16.465-5.854-34.76-12.441-34.76-35.858c0-23.052,17.38-32.199,34.76-34.029V65.96
		c0-2.196,2.196-4.208,5.306-4.208c2.744,0,5.488,2.012,5.488,4.208v4.94c12.441,0.366,30.004,4.208,30.004,13.173
		c0,3.476-2.561,10.428-8.05,10.428c-4.391,0-9.147-5.854-21.954-6.769v37.139c15.917,5.854,33.297,13.904,33.297,38.786
		c0,22.503-13.538,34.944-33.297,37.688v6.22c0,2.196-2.744,4.208-5.488,4.208c-3.11,0-5.306-2.012-5.306-4.208V201.891z
		 M138.59,121.392V88.095c-10.246,1.28-17.563,5.854-17.563,15.368C121.027,113.891,128.894,117.733,138.59,121.392z
		 M147.189,145.176v38.603c9.879-1.829,16.1-7.684,16.1-18.112C163.289,154.14,156.154,149.017,147.189,145.176z"/>
</g>
<g>
</g>
<g>
</g>
<g>
</g>
<g>
</g>
<g>
</g>
<g>
</g>
<g>
</g>
<g>
</g>
<g>
</g>
<g>
</g>
<g>
</g>
<g>
</g>
<g>
</g>
<g>
</g>
<g>
</g>
</svg>
