<?xml version="1.0" encoding="iso-8859-1"?>
<!-- Generator: Adobe Illustrator 19.0.0, SVG Export Plug-In . SVG Version: 6.00 Build 0)  -->
<svg version="1.1" id="Layer_1" xmlns="http://www.w3.org/2000/svg" xmlns:xlink="http://www.w3.org/1999/xlink" x="0px" y="0px"
	 viewBox="0 0 512 512" style="enable-background:new 0 0 512 512; fill:#fff;" xml:space="preserve">
<g>
	<g>
		<path d="M478.609,225.48v-52.959c0-27.618-22.469-50.087-50.087-50.087h-64.609L255.962,26.478
			c-6.325-5.623-15.859-5.623-22.184,0l-107.952,95.957H83.478C37.448,122.435,0,159.883,0,205.913v200.348
			c0,46.03,37.448,83.478,83.478,83.478h345.043c27.618,0,50.087-22.469,50.087-50.087v-52.959
			c19.433-6.892,33.391-25.45,33.391-47.215v-66.783C512,250.93,498.041,232.372,478.609,225.48z M244.87,61.294l68.783,61.141
			H176.087L244.87,61.294z M445.217,439.652c0,9.206-7.49,16.696-16.696,16.696H83.478c-27.618,0-50.087-22.469-50.087-50.087
			V205.913c0-27.618,22.469-50.087,50.087-50.087h345.043c9.206,0,16.696,7.49,16.696,16.696v50.087H395.13
			c-46.03,0-83.478,37.448-83.478,83.478c0,46.03,37.448,83.478,83.478,83.478h50.087V439.652z M478.609,339.478
			c0,9.206-7.49,16.696-16.696,16.696H395.13c-27.618,0-50.087-22.469-50.087-50.087c0-27.618,22.469-50.087,50.087-50.087h66.783
			c9.206,0,16.696,7.49,16.696,16.696V339.478z"/>
	</g>
</g>
<g>
	<g>
		<circle cx="395.13" cy="306.087" r="16.696"/>
	</g>
</g>
<g>
</g>
<g>
</g>
<g>
</g>
<g>
</g>
<g>
</g>
<g>
</g>
<g>
</g>
<g>
</g>
<g>
</g>
<g>
</g>
<g>
</g>
<g>
</g>
<g>
</g>
<g>
</g>
<g>
</g>
</svg>
