<?xml version="1.0" encoding="iso-8859-1"?>
<!-- Generator: Adobe Illustrator 19.0.0, SVG Export Plug-In . SVG Version: 6.00 Build 0)  -->
<svg version="1.1" id="Capa_1" xmlns="http://www.w3.org/2000/svg" xmlns:xlink="http://www.w3.org/1999/xlink" x="0px" y="0px"
	 viewBox="0 0 408.002 408.002" style="enable-background:new 0 0 408.002 408.002;" xml:space="preserve">
<path style="fill:#F0D215;" d="M238.803,163.201c19.2-0.4,38.8,6.4,53.6,21.2c28.4,28.4,28.4,74.8,0,103.6
	c-28.4,28.4-74.8,28.4-103.6,0c-12-12-19.2-27.2-20.8-43.2"/>
<path style="fill:#F39200;" d="M218.003,223.601c-13.6,13.6-31.6,20.8-49.6,21.2c-19.6,0.4-38.8-6.4-53.6-21.2
	c-28.4-28.4-28.4-74.8,0-103.6c28.4-28.4,74.8-28.4,103.6,0c12,12,19.2,27.2,20.8,43.2
	C241.603,184.801,234.403,207.201,218.003,223.601z"/>
<g>
	<path style="fill:#321D00;" d="M243.603,157.601c-2.8-15.6-10.4-30-21.6-41.6c-14.8-14.8-34.8-23.2-55.6-23.2
		c-21.2,0-40.8,8-55.6,23.2c-15.2,14.8-23.2,34.8-23.2,55.6c0,21.2,8.4,40.8,23.2,55.6c14.4,14.4,32.8,22.4,52.8,22.8
		c2.8,15.6,10.4,30,21.6,41.6c15.2,15.2,35.6,23.2,55.6,23.2s40.4-7.6,55.6-23.2c15.2-14.4,23.2-34.4,23.2-55.2
		c0-21.2-8-40.8-23.2-55.6C282.403,166.401,263.603,158.401,243.603,157.601z M98.803,171.601c0-18,7.2-34.8,19.6-47.6
		c12.8-12.8,29.6-19.6,47.6-19.6s34.8,7.2,47.6,19.6c10.8,10.8,17.6,24.4,19.2,39.6c2.4,20.8-4.4,40.8-19.2,55.6
		c-12.4,12.4-28.4,19.2-46,19.6h-2c-18,0-34.8-7.2-47.6-19.6C105.603,206.801,98.803,190.001,98.803,171.601z M288.803,284.001
		c-26.4,26.4-69.2,26.4-95.6,0c-9.6-9.6-15.6-21.2-18.4-34c17.6-2,34.4-9.6,47.2-22.4c15.6-15.6,23.6-36.8,22.8-58.8
		c16.4,0.8,32,7.6,43.6,19.6c12.8,12.8,19.6,29.6,19.6,47.6C308.403,254.401,301.603,271.201,288.803,284.001z"/>
	<path style="fill:#321D00;" d="M166.803,209.601v5.6c0,3.2,2.4,5.6,5.6,5.6c3.2,0,5.6-2.4,5.6-5.6v-6c11.2-1.2,19.6-10.4,19.6-21.6
		c0-6.4-2.8-12-7.2-16c4.4-4,7.2-9.6,7.2-16c0-11.2-8.8-20.4-19.6-21.6v-6c0-3.2-2.4-5.6-5.6-5.6c-3.2,0-5.6,2.4-5.6,5.6v5.6h-7.2
		v-5.6c0-3.2-2.4-5.6-5.6-5.6c-3.2,0-5.6,2.4-5.6,5.6v5.6h-7.6c-3.2,0-5.6,2.4-5.6,5.6c0,3.2,2.4,5.6,5.6,5.6h7.6v20.8
		c-2.8,0-5.2,2.4-5.2,5.6c0,3.2,2.4,5.6,5.2,5.6v20.8h-7.6c-3.2,0-5.6,2.4-5.6,5.6s2.4,5.6,5.6,5.6h7.6v5.6c0,3.2,2.4,5.6,5.6,5.6
		c3.2,0,5.6-2.4,5.6-5.6v-5.6h7.2V209.601z M176.003,145.201c5.6,0,10.4,4.8,10.4,10.4c0,5.6-4.8,10.4-10.4,10.4h-16.4v-20.8
		L176.003,145.201L176.003,145.201z M159.603,177.601h16.4c5.6,0,10.4,4.8,10.4,10.4c0,5.6-4.8,10.4-10.4,10.4h-3.6l0,0l0,0h-12.8
		V177.601z"/>
	<path style="fill:#321D00;" d="M293.603,345.201c-26.8,16.8-57.2,25.6-88.8,25.6c-92,0-167.2-74.8-167.2-167.2
		c0-25.6,6-50.8,17.2-73.6l13.6,37.6c0.8,2.4,3.2,3.6,5.2,3.6c0.8,0,1.2,0,2-0.4c2.8-1.2,4.4-4.4,3.6-7.2l-17.6-49.6l0,0
		c-0.4-0.4-0.4-1.2-0.8-1.6l0,0l-0.4-0.4c-0.4-0.4-0.8-0.8-1.2-0.8c0,0-0.4,0-0.8-0.4c-0.4,0-0.8-0.4-1.2-0.4c-0.4,0-0.4,0-0.8,0
		s-1.2,0-1.6,0.4c0,0,0,0-0.4,0l0,0l0,0l-50.8,19.6c-2.8,1.2-4.4,4.4-3.2,7.2s4.4,4.4,7.2,3.2l36.8-14c-11.6,24-17.2,50-17.2,76.8
		c0,98.4,80,178.4,178.4,178.4c33.6,0,66.4-9.6,94.8-27.2c2.8-1.6,3.6-5.2,1.6-8C299.603,344.401,296.003,343.601,293.603,345.201z"
		/>
	<path style="fill:#321D00;" d="M407.603,270.401c-1.2-2.8-4.4-4.4-7.2-3.2l-36.8,14c11.2-24,17.2-50,17.2-76.8
		c0-98.4-80-178.4-178.4-178.4c-33.6,0-66.4,9.6-94.8,27.2c-2.8,1.6-3.6,5.2-1.6,8c1.6,2.8,5.2,3.6,8,1.6
		c26.8-16.8,57.2-25.6,88.8-25.6c92,0,167.2,74.8,167.2,167.2c0,25.6-6,50.8-17.2,73.6l-13.6-37.6c-1.2-2.8-4.4-4.4-7.2-3.6
		c-2.8,1.2-4.4,4.4-3.6,7.2l17.6,49.6l0,0c0,0.4,0.4,0.4,0.4,0.8s0.4,0.4,0.4,0.8l0,0c0,0,0,0,0.4,0c0.4,0.4,0.8,0.8,1.6,1.2
		c0,0,0.4,0,0.4,0.4c0.8,0.4,1.2,0.4,2,0.4s1.2,0,2-0.4l0,0l0,0l50.8-19.6C407.203,276.401,408.803,273.201,407.603,270.401z"/>
	<path style="fill:#321D00;" d="M265.203,242.801c-3.2-1.2-6.4-2.4-9.6-3.6c-2.8-1.2-5.6-2.4-7.6-4c-1.6-1.2-2.4-2.8-2.4-4.4
		s0-5.6,8.8-5.6c4.8,0,8.4,1.6,11.6,4.8c2.4,2.4,6,2.4,8,0c1.2-1.2,1.6-2.4,1.6-4c0-1.2-0.4-2.4-1.2-3.6c-3.2-4.8-8-7.6-14-8.8v-7.6
		c0-3.2-2.8-6-6-6c-3.2,0-6,2.8-6,6v7.6c-3.6,0.8-6.8,2-9.2,4c-4,3.2-6,7.6-6,13.6c0,4.4,1.2,8,3.6,11.2c2.4,2.8,5.2,5.2,8.8,6.4
		c3.2,1.2,6.4,2.4,9.6,3.6c2.8,1.2,5.2,2.4,7.2,3.6c1.6,1.2,2.4,2.8,2.4,4.4c0,2.4-0.8,4-2.4,5.2s-4,1.6-7.2,2c-0.4,0-1.6,0-2,0
		c-5.2,0-9.6-2-12.8-5.6c-0.8-1.6-2.4-2-3.2-2c-1.6,0-2.8,0.8-4,1.6c-1.2,1.2-1.6,2.4-1.6,4c0,1.2,0.4,2.4,1.2,3.6
		c2,2.8,4.8,5.2,9.2,7.2c2.4,1.2,4.8,2,7.6,2.4v7.6c0,3.2,2.8,6,6,6c3.2,0,6-2.8,6-6v-7.6c4-0.8,7.6-2,10.4-4.4
		c4.4-3.2,6.4-8.4,6.4-14.4c0-4.4-1.2-8-3.6-11.2C271.603,246.401,268.803,244.401,265.203,242.801z"/>
</g>
<g>
</g>
<g>
</g>
<g>
</g>
<g>
</g>
<g>
</g>
<g>
</g>
<g>
</g>
<g>
</g>
<g>
</g>
<g>
</g>
<g>
</g>
<g>
</g>
<g>
</g>
<g>
</g>
<g>
</g>
</svg>
