<?xml version="1.0" encoding="iso-8859-1"?>
<!-- Generator: Adobe Illustrator 19.0.0, SVG Export Plug-In . SVG Version: 6.00 Build 0)  -->
<svg version="1.1" id="Capa_1" xmlns="http://www.w3.org/2000/svg" xmlns:xlink="http://www.w3.org/1999/xlink" x="0px" y="0px"
	 viewBox="0 0 512 512" style="enable-background:new 0 0 512 512;" xml:space="preserve">
<path style="fill:#FFDA4F;" d="M443.385,453H68.615C34.862,453,7.5,425.638,7.5,391.885v-271.77C7.5,86.362,34.862,59,68.615,59
	h374.77c33.753,0,61.115,27.362,61.115,61.115v271.77C504.5,425.638,477.138,453,443.385,453z"/>
<path style="fill:#FFC30A;" d="M443.385,59h-30c33.753,0,61.115,27.362,61.115,61.115v271.77c0,33.753-27.362,61.115-61.115,61.115
	h30c33.753,0,61.115-27.362,61.115-61.115v-271.77C504.5,86.362,477.138,59,443.385,59z"/>
<rect x="7.5" y="170.83" style="fill:#F24D3F;" width="497" height="30"/>
<rect x="474.5" y="170.83" style="fill:#D63B36;" width="30" height="30"/>
<rect x="353" y="58.653" style="fill:#F24D3F;" width="30" height="394.35"/>
<path style="fill:#FFAF25;" d="M154.045,337.826h-43.09c-7.983,0-14.455-6.472-14.455-14.455V279.93
	c0-7.789,6.314-14.104,14.104-14.104h43.441c7.983,0,14.455,6.472,14.455,14.455v43.09
	C168.5,331.354,162.028,337.826,154.045,337.826z"/>
<g>
	<path style="fill:#D53B36;" d="M352.063,173.71c0,0-49.709-70.092-73.35-26.125s73.35,43.507,73.35,43.507V173.71z"/>
	<path style="fill:#D53B36;" d="M383.937,173.71c0,0,49.709-70.092,73.35-26.125s-73.35,43.507-73.35,43.507V173.71z"/>
	<path style="fill:#D53B36;" d="M367.854,205.142c0.383-0.002-37.039,67.951-37.039,67.951l-31.896-32.822l53.515-52.178
		L367.854,205.142z"/>
	<path style="fill:#D53B36;" d="M367.984,205.142c-0.383-0.002,37.039,67.951,37.039,67.951l31.896-32.822l-53.515-52.178
		L367.984,205.142z"/>
</g>
<path style="fill:#C63030;" d="M376.228,211.352h-16.456c-7.882,0-14.272-6.39-14.272-14.272v-25.456
	c0-7.882,6.39-14.272,14.272-14.272h16.456c7.882,0,14.272,6.39,14.272,14.272v25.456C390.5,204.962,384.11,211.352,376.228,211.352
	z"/>
<path d="M443.385,51.5H127.833c-4.143,0-7.5,3.358-7.5,7.5s3.357,7.5,7.5,7.5H345.5v87.371
	c-22.475-24.758-38.956-29.138-49.146-28.152c-6.932,0.67-16.765,4.391-24.25,18.314c-4.104,7.633-5.011,14.081-4.414,19.292H15
	v-43.211C15,90.551,39.052,66.5,68.615,66.5H96.5c4.143,0,7.5-3.358,7.5-7.5s-3.357-7.5-7.5-7.5H68.615
	C30.78,51.5,0,82.28,0,120.115v50.711v30v191.059C0,429.719,30.78,460.5,68.615,460.5h331.552c4.143,0,7.5-3.358,7.5-7.5
	s-3.357-7.5-7.5-7.5H390.5V262.259c4.59,8.354,7.888,14.343,7.95,14.455c1.146,2.082,3.213,3.497,5.569,3.814
	c0.334,0.045,0.668,0.067,1,0.067c2.013,0,3.957-0.811,5.379-2.273l31.9-32.83c2.884-2.967,2.819-7.709-0.144-10.597l-27.256-26.569
	H497v183.559c0,29.563-24.052,53.615-53.615,53.615h-11.218c-4.143,0-7.5,3.358-7.5,7.5s3.357,7.5,7.5,7.5h11.218
	c37.835,0,68.615-30.781,68.615-68.615V200.826v-30v-50.711C512,82.28,481.22,51.5,443.385,51.5z M443.385,66.5
	C472.948,66.5,497,90.551,497,120.115v43.211h-28.691c0.597-5.211-0.309-11.659-4.414-19.292
	c-7.485-13.924-17.318-17.645-24.25-18.315c-10.178-0.984-26.668,3.393-49.146,28.152V111.66c0-4.142-3.357-7.5-7.5-7.5
	s-7.5,3.358-7.5,7.5v38.196h-15V66.543h15v12.95c0,4.142,3.357,7.5,7.5,7.5s7.5-3.358,7.5-7.5V66.5H443.385z M376.23,164.856
	c3.732,0,6.77,3.037,6.77,6.77v6.43c0,0.008,0,0.015,0,0.023v18.998c0,0.615-0.076,1.202-0.24,1.793
	c-0.794,2.936-3.479,4.987-6.529,4.987h-4.946c-0.015,0-0.031,0-0.046,0h-6.647c-0.011,0-0.022,0-0.033,0h-4.79
	c-3.732,0-6.77-3.042-6.77-6.78v-18.998c0-0.008,0-0.015,0-0.023v-6.43c0-3.733,3.037-6.77,6.77-6.77H376.23z M341.631,209.102
	c2.618,3.939,6.482,6.978,11.025,8.554c-7.29,13.394-17.534,32.052-23.521,42.943l-19.618-20.189L341.631,209.102z M360.5,234.599
	c2.693-4.928,5.247-9.611,7.413-13.602c2.092,3.855,4.649,8.539,7.587,13.9v210.599h-15V234.599z M398,182.745
	c10.431-5.318,19.096-9.192,23.635-10.539c3.971-1.179,6.234-5.354,5.055-9.325c-1.178-3.971-5.355-6.234-9.324-5.055
	c-4.369,1.297-10.378,3.896-16.225,6.657c14.387-15.918,27.937-24.721,37.063-23.833c1.785,0.172,7.218,0.697,12.481,10.488
	c4.664,8.673,2.3,12.812,1.522,14.172c-5.115,8.952-26.02,15.681-54.207,17.706L398,182.745L398,182.745z M285.315,151.137
	c5.264-9.79,10.696-10.314,12.481-10.487c9.116-0.883,22.673,7.914,37.062,23.832c-5.847-2.761-11.856-5.359-16.224-6.656
	c-3.968-1.179-8.146,1.084-9.324,5.055c-1.18,3.971,1.084,8.146,5.055,9.325c4.539,1.347,13.204,5.221,23.635,10.539v0.272
	c-28.187-2.026-49.092-8.754-54.207-17.706C283.016,163.95,280.651,159.812,285.315,151.137z M275.022,178.326
	c7.083,7.287,18.425,11.984,30.602,15H15v-15H275.022z M68.615,445.5C39.052,445.5,15,421.448,15,391.885V208.326h305.939
	l-27.254,26.57c-2.963,2.888-3.026,7.629-0.144,10.597l31.9,32.83c1.422,1.463,3.366,2.273,5.378,2.273
	c0.333,0,0.668-0.022,1.002-0.067c2.356-0.317,4.423-1.733,5.569-3.816c0.09-0.165,3.45-6.267,8.109-14.749V445.5H68.615z
	 M406.704,260.6c-4.377-7.961-11.024-20.064-17.098-31.176c-0.009-0.016-0.018-0.032-0.027-0.048
	c-0.001-0.002-0.002-0.004-0.003-0.007c-2.374-4.328-4.512-8.238-6.379-11.665c4.536-1.537,8.455-4.534,11.117-8.496l32.008,31.201
	L406.704,260.6z M430.376,193.326c12.177-3.016,23.518-7.713,30.602-15H497v15H430.376z"/>
<path d="M154.045,258.326h-43.441C98.691,258.326,89,268.018,89,279.93v43.441c0,12.106,9.849,21.955,21.955,21.955h43.09
	c12.106,0,21.955-9.849,21.955-21.955v-43.09C176,268.175,166.151,258.326,154.045,258.326z M161,323.371
	c0,3.835-3.12,6.955-6.955,6.955h-43.09c-3.835,0-6.955-3.12-6.955-6.955V279.93c0-3.641,2.962-6.604,6.604-6.604h43.441
	c3.835,0,6.955,3.12,6.955,6.955L161,323.371L161,323.371z"/>
<path d="M96.765,372.326h71.471c4.143,0,7.5-3.358,7.5-7.5s-3.357-7.5-7.5-7.5H96.765c-4.143,0-7.5,3.358-7.5,7.5
	S92.622,372.326,96.765,372.326z"/>
<path d="M168.5,383.326h-72c-4.143,0-7.5,3.358-7.5,7.5s3.357,7.5,7.5,7.5h72c4.143,0,7.5-3.358,7.5-7.5
	S172.643,383.326,168.5,383.326z"/>
<g>
</g>
<g>
</g>
<g>
</g>
<g>
</g>
<g>
</g>
<g>
</g>
<g>
</g>
<g>
</g>
<g>
</g>
<g>
</g>
<g>
</g>
<g>
</g>
<g>
</g>
<g>
</g>
<g>
</g>
</svg>
