<?xml version="1.0" encoding="iso-8859-1"?>
<!-- Generator: Adobe Illustrator 19.0.0, SVG Export Plug-In . SVG Version: 6.00 Build 0)  -->
<svg version="1.1" id="Capa_1" xmlns="http://www.w3.org/2000/svg" xmlns:xlink="http://www.w3.org/1999/xlink" x="0px" y="0px"
	 viewBox="0 0 511.997 511.997" style="enable-background:new 0 0 511.997 511.997;" xml:space="preserve">
<polygon style="fill:#00AEEF;" points="26.133,315.744 26.133,503.464 94.395,503.464 94.395,486.399 94.395,477.866 
	94.395,384.006 94.395,315.744 "/>
<path style="fill:#F9F7E4;" d="M473.847,315.658c-13.345-13.311-34.95-13.311-48.295,0l-92.239,93.946v-8.533
	c0-18.849-15.282-34.131-34.131-34.131h-62.716c-7.185-20.47-26.52-34.157-48.21-34.131h-42.664
	c-28.278,0-51.197,22.919-51.197,51.197v93.86l241.221,0.171l150.262-150.262L473.847,315.658z"/>
<circle style="fill:#FFDE17;" cx="307.689" cy="76.792" r="68.262"/>
<g>
	<path style="fill:#00A14B;" d="M316.247,213.35v17.066h17.066c18.849,0,34.131-15.282,34.131-34.131v-17.066h-17.066
		C331.521,179.219,316.247,194.501,316.247,213.35z"/>
	<path style="fill:#00A14B;" d="M299.182,213.35v-17.066c0-18.849-15.282-34.131-34.131-34.131h-17.066v17.066
		c0,18.849,15.282,34.131,34.131,34.131H299.182z"/>
</g>
<polygon style="fill:#A97C50;" points="265.051,332.809 350.378,332.809 367.444,264.547 307.715,264.547 247.985,264.547 "/>
<path d="M491.937,321.768l-12.031-12.117l0,0c-16.724-16.605-43.73-16.579-60.421,0.06l-79.022,80.49
	c-4.966-18.729-21.904-31.776-41.282-31.793h-56.99c-9.864-20.854-30.872-34.148-53.936-34.131h-42.664
	c-16.067,0-31.46,6.493-42.664,18.013v-26.545c0-4.71-3.823-8.533-8.533-8.533H26.133c-4.71,0-8.533,3.823-8.533,8.533v187.721
	c0,4.71,3.823,8.533,8.533,8.533h68.262c4.71,0,8.533-3.823,8.533-8.533v-17.066l232.68,0.162l0,0c2.261,0,4.437-0.896,6.033-2.5
	l150.262-150.262C495.214,330.48,495.231,325.104,491.937,321.768z M85.863,494.932H34.666V324.276h51.197V494.932z
	 M332.076,469.504l-229.147-0.171v-85.328c0.026-23.55,19.113-42.638,42.664-42.664h42.664
	c18.064-0.034,34.174,11.357,40.155,28.406c1.195,3.43,4.428,5.725,8.055,5.725h62.716c14.139,0,25.598,11.459,25.598,25.598
	H196.789v17.066h136.524v-0.077c2.278,0.026,4.471-0.87,6.092-2.475l92.154-93.86c10.017-9.966,26.187-9.983,36.23-0.043
	l6.033,6.084L332.076,469.504z"/>
<rect x="43.199" y="341.308" width="17.066" height="17.066"/>
<path d="M307.715,102.424c-4.71,0-8.533-3.823-8.533-8.533h-17.066c0.043,10.811,6.877,20.427,17.066,24.028v10.103h17.066V117.92
	c13.303-4.684,20.291-19.267,15.606-32.57c-3.609-10.239-13.286-17.074-24.139-17.057c-4.71,0-8.533-3.823-8.533-8.533
	s3.823-8.533,8.533-8.533c4.71,0,8.533,3.823,8.533,8.533h17.066c-0.043-10.811-6.877-20.427-17.066-24.028V25.63h-17.066v10.103
	c-13.303,4.684-20.291,19.267-15.606,32.57c3.609,10.239,13.285,17.074,24.139,17.057c4.71,0,8.533,3.823,8.533,8.533
	C316.247,98.602,312.425,102.424,307.715,102.424z"/>
<path d="M299.182,153.118v17.833c-7.987-10.862-20.649-17.296-34.131-17.33h-17.066c-4.71,0-8.533,3.823-8.533,8.533v17.066
	c0.026,23.55,19.113,42.638,42.664,42.664h17.066v34.131h-51.197c-4.71,0-8.533,3.823-8.533,8.533c0,0.7,0.085,1.399,0.256,2.073
	l17.066,68.262c0.947,3.797,4.36,6.459,8.277,6.459h85.328c3.917,0,7.33-2.662,8.277-6.459l17.066-68.262
	c1.143-4.574-1.63-9.207-6.203-10.35c-0.674-0.171-1.374-0.256-2.073-0.256h-51.197v-17.066h17.066
	c23.55-0.026,42.638-19.113,42.664-42.664v-17.066c0-4.71-3.823-8.533-8.533-8.533h-17.066c-13.482,0.034-26.144,6.468-34.131,17.33
	v-34.899c42.152-4.71,72.503-42.698,67.784-84.85s-42.698-72.503-84.85-67.784s-72.503,42.698-67.784,84.85
	C235.382,120.992,263.523,149.133,299.182,153.118z M290.649,204.818h-8.533c-14.139,0-25.598-11.46-25.598-25.598v-8.533h8.533
	c14.139,0,25.598,11.46,25.598,25.598V204.818z M343.714,324.276h-71.999l-12.799-51.197h97.598L343.714,324.276z M324.78,213.35
	c0-14.139,11.459-25.598,25.598-25.598h8.533v8.533c0,14.139-11.46,25.598-25.598,25.598h-8.533V213.35z M307.715,17.097
	c32.988,0,59.729,26.742,59.729,59.729s-26.742,59.729-59.729,59.729s-59.729-26.742-59.729-59.729
	C248.019,43.856,274.735,17.131,307.715,17.097z"/>
<rect x="341.82" y="68.259" width="17.066" height="17.066"/>
<rect x="256.492" y="68.259" width="17.066" height="17.066"/>
<g>
</g>
<g>
</g>
<g>
</g>
<g>
</g>
<g>
</g>
<g>
</g>
<g>
</g>
<g>
</g>
<g>
</g>
<g>
</g>
<g>
</g>
<g>
</g>
<g>
</g>
<g>
</g>
<g>
</g>
</svg>
