<?xml version="1.0" encoding="iso-8859-1"?>
<!-- Generator: Adobe Illustrator 19.0.0, SVG Export Plug-In . SVG Version: 6.00 Build 0)  -->
<svg version="1.1" id="Capa_1" xmlns="http://www.w3.org/2000/svg" xmlns:xlink="http://www.w3.org/1999/xlink" x="0px" y="0px"
	 viewBox="0 0 512 512" style="enable-background:new 0 0 512 512;" xml:space="preserve">
<path style="fill:#D7C8C5;" d="M336.157,432.344H175.843c-17.708,0-32.063-14.355-32.063-32.063V111.718
	c0-17.708,14.355-32.063,32.063-32.063h160.313c17.708,0,32.063,14.355,32.063,32.063v288.564
	C368.219,417.989,353.864,432.344,336.157,432.344z"/>
<g>
	<path style="fill:#885951;" d="M143.781,400.282c0,17.708,14.355,32.063,32.063,32.063h160.313
		c17.708,0,32.063-14.355,32.063-32.063v-32.063H143.781V400.282z"/>
	<path style="fill:#885951;" d="M336.157,79.656H175.843c-17.708,0-32.063,14.355-32.063,32.063v16.031h224.438v-16.031
		C368.219,94.011,353.864,79.656,336.157,79.656z"/>
</g>
<path style="fill:#E4DAD8;" d="M424.329,31.562c-44.269,0-80.157,35.887-80.157,80.157c0,20.203,7.491,38.645,19.826,52.743
	l-11.81,35.429l34.649-17.324c11.19,5.934,23.945,9.308,37.492,9.308c44.269,0,80.157-35.887,80.157-80.157
	S468.598,31.562,424.329,31.562z"/>
<path style="fill:#FA892D;" d="M384.25,111.718c0-22.134,17.944-40.078,40.078-40.078s40.078,17.944,40.078,40.078"/>
<path style="fill:#956B64;" d="M464.407,127.75H384.25c-4.427,0-8.016-3.589-8.016-8.016v-8.016c0-4.427,3.589-8.016,8.016-8.016
	h80.157c4.427,0,8.016,3.589,8.016,8.016v8.016C472.423,124.16,468.834,127.75,464.407,127.75z"/>
<path style="fill:#FA892D;" d="M448.376,151.796h-48.094c-8.854,0-16.031-7.177-16.031-16.031v-8.016h80.157v8.016
	C464.407,144.619,457.23,151.796,448.376,151.796z"/>
<circle style="fill:#FEF3BF;" cx="256" cy="247.984" r="82.16"/>
<circle style="fill:#FCE780;" cx="256" cy="247.984" r="56.11"/>
<path style="fill:#E4DAD8;" d="M87.671,480.438c44.269,0,80.157-35.887,80.157-80.157c0-20.203-7.491-38.645-19.826-52.743
	l11.81-35.429l-34.649,17.324c-11.19-5.934-23.945-9.308-37.492-9.308c-44.269,0-80.157,35.887-80.157,80.157
	S43.402,480.438,87.671,480.438z"/>
<g>
	<path style="fill:#FBA761;" d="M119.734,440.36H55.609c-4.427,0-8.016-3.589-8.016-8.016v-16.031h80.157v16.031
		C127.75,436.771,124.16,440.36,119.734,440.36z"/>
	<path style="fill:#FBA761;" d="M119.734,392.266H55.609c-4.427,0-8.016-3.589-8.016-8.016v-8.016c0-4.427,3.589-8.016,8.016-8.016
		h64.125c4.427,0,8.016,3.589,8.016,8.016v8.016C127.75,388.677,124.16,392.266,119.734,392.266z"/>
</g>
<path style="fill:#F56C6C;" d="M131.757,416.313H43.585c-6.64,0-12.023-5.384-12.023-12.023l0,0c0-6.64,5.384-12.023,12.023-12.023
	h88.172c6.64,0,12.023,5.383,12.023,12.023l0,0C143.781,410.93,138.397,416.313,131.757,416.313z"/>
<path d="M256,96.188c-4.15,0-7.515,3.364-7.515,7.515c0,4.151,3.365,7.515,7.515,7.515h1.002c4.15,0,7.515-3.364,7.515-7.515
	c0-4.151-3.365-7.515-7.515-7.515H256z"/>
<path d="M296.078,96.188c-4.15,0-7.515,3.364-7.515,7.515c0,4.151,3.365,7.515,7.515,7.515h1.002c4.15,0,7.515-3.364,7.515-7.515
	c0-4.151-3.365-7.515-7.515-7.515H296.078z"/>
<path d="M215.922,96.188c-4.15,0-7.515,3.364-7.515,7.515c0,4.151,3.365,7.515,7.515,7.515h1.002c4.15,0,7.515-3.364,7.515-7.515
	c0-4.151-3.365-7.515-7.515-7.515H215.922z"/>
<path d="M272.031,407.796c4.15,0,7.515-3.364,7.515-7.515s-3.365-7.515-7.515-7.515h-32.063c-4.15,0-7.515,3.364-7.515,7.515
	s3.365,7.515,7.515,7.515H272.031z"/>
<path d="M424.329,24.047c-48.342,0-87.671,39.329-87.671,87.671c0,2.857,0.156,5.696,0.432,8.517H151.296v-8.517
	c0-13.536,11.012-24.548,24.548-24.548h151.296c4.15,0,7.515-3.364,7.515-7.515c0-4.151-3.365-7.515-7.515-7.515H175.843
	c-21.823,0-39.577,17.755-39.577,39.577V315.48l-11.1,5.55c-11.664-5.518-24.545-8.419-37.495-8.419
	C39.329,312.611,0,351.939,0,400.282s39.329,87.671,87.671,87.671s87.671-39.329,87.671-87.671c0-8.375-1.212-16.633-3.524-24.548
	h188.886v24.548c0,13.536-11.013,24.548-24.548,24.548h-149.96c-4.15,0-7.515,3.364-7.515,7.515s3.365,7.515,7.515,7.515h149.96
	c21.823,0,39.577-17.755,39.577-39.577V197.886c0-0.447-0.046-0.882-0.121-1.307l11.221-5.61
	c11.664,5.518,24.545,8.419,37.495,8.419c48.342,0,87.671-39.329,87.671-87.671S472.671,24.047,424.329,24.047z M87.671,472.924
	c-40.055,0-72.642-32.587-72.642-72.642s32.587-72.642,72.642-72.642c11.821,0,23.569,2.916,33.972,8.432
	c2.147,1.138,4.71,1.169,6.881,0.082l18.422-9.21l-6.073,18.219c-0.844,2.53-0.283,5.318,1.474,7.325
	c11.585,13.24,17.965,30.213,17.965,47.793C160.313,440.337,127.726,472.924,87.671,472.924z M360.704,360.704h-194.83
	c-2.63-5.191-5.773-10.14-9.421-14.755l10.488-31.463c2.07-6.211-4.624-12.036-10.489-9.098l-5.157,2.578V135.264h188.606
	c3.109,11.134,8.392,21.612,15.646,30.786l-10.488,31.463c-2.067,6.204,4.614,12.039,10.489,9.098l5.156-2.578V360.704z
	 M424.329,184.36c-11.821,0-23.569-2.916-33.972-8.432c-2.146-1.137-4.709-1.168-6.881-0.082l-18.422,9.21l6.073-18.218
	c0.844-2.53,0.283-5.318-1.474-7.325c-11.585-13.241-17.965-30.215-17.965-47.794c0-40.055,32.587-72.642,72.642-72.642
	s72.642,32.587,72.642,72.642S464.384,184.36,424.329,184.36z"/>
<path d="M469.633,97.112c-6.357-19.737-24.543-32.986-45.304-32.986c-20.411,0-38.526,12.979-45.08,32.297
	c-0.076,0.225-0.138,0.451-0.192,0.677c-6.013,2.144-10.336,7.878-10.336,14.619v8.016c0,5.838,3.241,10.929,8.016,13.582v2.45
	c0,12.983,10.563,23.546,23.546,23.546h48.094c12.983,0,23.546-10.563,23.546-23.546v-2.45c4.774-2.652,8.016-7.743,8.016-13.582
	v-8.016C479.937,104.99,475.63,99.265,469.633,97.112z M383.75,119.734v-8.016c0-0.276,0.224-0.501,0.501-0.501h80.157
	c0.277,0,0.501,0.225,0.501,0.501v8.016c0,0.276-0.224,0.501-0.501,0.501H384.25C383.974,120.235,383.75,120.009,383.75,119.734z
	 M424.329,79.155c12.161,0,23.011,6.654,28.618,17.033h-57.241C401.327,85.821,412.234,79.155,424.329,79.155z M456.892,135.765
	c0,4.696-3.82,8.517-8.517,8.517h-48.094c-4.696,0-8.517-3.82-8.517-8.517v-0.501h65.127V135.765z"/>
<path d="M256,158.309c-49.448,0-89.675,40.228-89.675,89.675s40.228,89.675,89.675,89.675s89.675-40.228,89.675-89.675
	S305.448,158.309,256,158.309z M256,322.63c-41.16,0-74.646-33.486-74.646-74.646S214.84,173.339,256,173.339
	s74.646,33.486,74.646,74.646S297.16,322.63,256,322.63z"/>
<path d="M303.487,217.152c-3.748,1.78-5.343,6.263-3.563,10.012c3.1,6.527,4.672,13.531,4.672,20.821
	c0,26.795-21.8,48.595-48.595,48.595s-48.596-21.8-48.596-48.595s21.8-48.595,48.595-48.595c7.056,0,13.857,1.477,20.214,4.389
	c3.771,1.729,8.233,0.071,9.961-3.701c1.729-3.774,0.071-8.234-3.702-9.961c-8.334-3.818-17.241-5.755-26.473-5.755
	c-35.083,0-63.624,28.542-63.624,63.624s28.542,63.624,63.624,63.624s63.624-28.542,63.624-63.624
	c0-9.539-2.061-18.713-6.126-27.269C311.718,216.966,307.237,215.372,303.487,217.152z"/>
<path d="M263.515,254.27c9.31-3.144,16.031-11.96,16.031-22.317c0-12.983-10.563-23.546-23.546-23.546s-23.546,10.563-23.546,23.546
	c0,4.151,3.365,7.515,7.515,7.515s7.515-3.364,7.515-7.515c0-4.696,3.82-8.517,8.517-8.517s8.517,3.82,8.517,8.517
	s-3.82,8.517-8.517,8.517c-4.15,0-7.515,3.364-7.515,7.515V256c0,4.151,3.365,7.515,7.515,7.515c4.15,0,7.515-3.364,7.515-7.515
	V254.27z"/>
<path d="M262.252,275.879c-3.677-5.391-12.327-3.777-13.617,2.694c-0.625,3.139,0.868,6.442,3.664,8.011
	c2.909,1.632,6.651,1.139,9.011-1.227C263.796,282.863,264.233,278.817,262.252,275.879z"/>
<path d="M135.264,384.25v-8.016c0-8.564-6.967-15.53-15.53-15.53H55.609c-8.564,0-15.53,6.967-15.53,15.53v8.016
	c0,0.28,0.027,0.551,0.042,0.827c-9.124,1.643-16.073,9.624-16.073,19.212c0,9.575,6.929,17.546,16.031,19.206v8.849
	c0,8.564,6.967,15.53,15.53,15.53h64.125c8.564,0,15.53-6.967,15.53-15.53v-8.849c9.103-1.659,16.031-9.631,16.031-19.206
	c0-9.589-6.95-17.569-16.073-19.212C135.237,384.802,135.264,384.53,135.264,384.25z M55.108,376.235
	c0-0.276,0.224-0.501,0.501-0.501h64.125c0.277,0,0.501,0.225,0.501,0.501v8.016c0,0.276-0.224,0.501-0.501,0.501H55.609
	c-0.277,0-0.501-0.225-0.501-0.501V376.235z M120.235,432.344c0,0.276-0.224,0.501-0.501,0.501H55.609
	c-0.277,0-0.501-0.225-0.501-0.501v-8.517h65.127V432.344z M131.757,408.798H43.585c-2.486,0-4.509-2.023-4.509-4.509
	c0-2.486,2.023-4.509,4.509-4.509h88.172c2.486,0,4.509,2.023,4.509,4.509C136.266,406.775,134.243,408.798,131.757,408.798z"/>
<g>
</g>
<g>
</g>
<g>
</g>
<g>
</g>
<g>
</g>
<g>
</g>
<g>
</g>
<g>
</g>
<g>
</g>
<g>
</g>
<g>
</g>
<g>
</g>
<g>
</g>
<g>
</g>
<g>
</g>
</svg>
