<?xml version="1.0" encoding="iso-8859-1"?>
<!-- Generator: Adobe Illustrator 19.0.0, SVG Export Plug-In . SVG Version: 6.00 Build 0)  -->
<svg version="1.1" id="Capa_1" xmlns="http://www.w3.org/2000/svg" xmlns:xlink="http://www.w3.org/1999/xlink" x="0px" y="0px"
	 viewBox="0 0 512 512" style="enable-background:new 0 0 512 512;" xml:space="preserve">
<path style="fill:#FFC78A;" d="M496.858,339.867L496.858,339.867c-6.44-14.586-23.486-21.19-38.071-14.75l-122.236,54.815
	l-8.036-6.512c11.862,0.531,23.139-6.732,27.175-18.527c4.828-14.111-2.501-29.494-16.501-34.636l-97.35-35.75
	c-26.831-9.853-56.44-8.908-82.588,2.637l-59.278,26.173l44.17,100.039l10.001-4.415c23.58-10.411,50.569-9.8,73.654,1.669
	l48.41,24.051c23.085,11.469,50.074,12.08,73.654,1.669l132.248-58.392C496.694,371.498,503.298,354.453,496.858,339.867z"/>
<path style="fill:#47D4FF;" d="M144.143,413.356L97.618,307.985c-3.384-7.664-12.339-11.133-20.002-7.749L13.171,328.69
	l-0.489,174.257l126.271-63.789c7.663-3.384,11.133-12.339,7.749-20.002L144.143,413.356"/>
<path style="fill:#3BA0FF;" d="M144.143,413.356L97.618,307.985c-3.384-7.664-12.339-11.133-20.002-7.749l-32.988,14.565
	l61.319,141.031l33.007-16.674c7.663-3.384,11.133-12.339,7.749-20.002L144.143,413.356"/>
<circle style="fill:#FFDC47;" cx="366.74" cy="136.1" r="126.04"/>
<circle style="fill:#FFA438;" cx="366.74" cy="136.1" r="100.31"/>
<path d="M375.923,181.432h-20.357c-5.766,0-10.457-4.691-10.457-10.457c0-5.555-4.504-10.059-10.059-10.059
	s-10.059,4.504-10.059,10.059c0,16.859,13.716,30.575,30.575,30.575h1.111v12.157c0,5.555,4.504,10.059,10.059,10.059
	s10.059-4.504,10.059-10.059v-12.179c17.549-0.465,31.685-14.875,31.685-32.536v-10.687c0-17.952-14.605-32.557-32.557-32.557
	h-6.937h-4.5h-6.936c-6.86,0-12.44-5.581-12.44-12.439v-10.687c0-6.859,5.581-12.439,12.44-12.439h20.357
	c5.765,0,10.456,4.691,10.456,10.456c0,5.555,4.504,10.059,10.059,10.059s10.059-4.504,10.059-10.059
	c0-16.859-13.715-30.574-30.574-30.574h-1.111V57.908c0-5.555-4.504-10.059-10.059-10.059s-10.059,4.504-10.059,10.059v12.18
	c-17.55,0.465-31.686,14.875-31.686,32.535v10.687c0,17.952,14.605,32.557,32.558,32.557h6.936h4.5h6.937
	c6.859,0,12.439,5.581,12.439,12.439v10.687C388.362,175.852,382.782,181.432,375.923,181.432z"/>
<path d="M505.14,336.209c-8.447-19.129-30.883-27.818-50.011-19.374c-0.044,0.02-0.089,0.04-0.134,0.061l-64.625,29.803
	c-4.54,2.094-6.524,7.472-4.43,12.012c2.093,4.54,7.471,6.523,12.012,4.43l64.552-29.769c4.824-2.111,10.184-2.229,15.102-0.322
	c4.936,1.912,8.832,5.632,10.97,10.473c4.414,9.997-0.128,21.72-10.124,26.134l-132.249,58.391
	c-21.185,9.354-45.231,8.808-65.971-1.495l-48.409-24.049c-25.569-12.703-55.215-13.378-81.338-1.845l-1.72,0.759l-36.857-83.475
	l50.997-22.516c24.128-10.653,51.051-11.513,75.809-2.421l97.35,35.75c9.306,3.417,14.265,13.828,11.056,23.207
	c-3.269,9.557-13.715,14.696-23.283,11.464l-75.281-25.463c-4.737-1.602-9.875,0.939-11.476,5.675
	c-1.602,4.737,0.939,9.874,5.675,11.476l75.281,25.463c3.855,1.305,7.778,1.922,11.642,1.922c15.178,0,29.401-9.555,34.574-24.677
	c6.369-18.616-3.475-39.281-21.946-46.064l-97.35-35.75c-29.186-10.72-60.925-9.704-89.364,2.854l-51.199,22.606
	c-6.228-10.188-19.219-14.466-30.435-9.514L9.516,320.408c-3.272,1.445-5.387,4.68-5.397,8.256L3.63,502.921
	c-0.009,3.149,1.619,6.076,4.299,7.73C9.382,511.548,11.03,512,12.683,512c1.396,0,2.796-0.322,4.083-0.973l126.084-63.694
	c5.802-2.635,10.257-7.349,12.564-13.301c2.007-5.182,2.178-10.768,0.53-15.991l1.856-0.819c21.185-9.354,45.23-8.808,65.97,1.496
	l48.41,24.05c25.571,12.704,55.217,13.374,81.338,1.843l132.249-58.391C504.895,377.773,513.586,355.339,505.14,336.209z
	 M138.53,427.491c-0.59,1.524-1.739,2.725-3.233,3.385c-0.143,0.064-0.286,0.131-0.426,0.201l-24.464,12.359L83.24,381.308
	c-2.004-4.582-7.345-6.669-11.921-4.668c-4.582,2.003-6.671,7.341-4.668,11.921l27.571,63.051L21.777,488.21l0.431-153.614
	l59.064-26.079c1.495-0.659,3.157-0.698,4.68-0.108s2.725,1.738,3.384,3.232l46.513,105.343c0.004,0.009,0.008,0.019,0.012,0.027
	l2.562,5.802C139.081,424.307,139.12,425.969,138.53,427.491z"/>
<circle cx="60.5" cy="351.91" r="10.1"/>
<path d="M366.737,272.199c75.045,0,136.099-61.054,136.099-136.1C502.836,61.054,441.782,0,366.737,0
	c-75.046,0-136.1,61.054-136.1,136.099C230.636,211.145,291.69,272.199,366.737,272.199z M366.737,20.118
	c63.952,0,115.981,52.029,115.981,115.981c0,63.953-52.029,115.982-115.981,115.982c-63.953,0-115.982-52.029-115.982-115.982
	C250.754,72.147,302.784,20.118,366.737,20.118z"/>
<g>
</g>
<g>
</g>
<g>
</g>
<g>
</g>
<g>
</g>
<g>
</g>
<g>
</g>
<g>
</g>
<g>
</g>
<g>
</g>
<g>
</g>
<g>
</g>
<g>
</g>
<g>
</g>
<g>
</g>
</svg>
