<?xml version="1.0" standalone="no"?>
<!DOCTYPE svg PUBLIC "-//W3C//DTD SVG 20010904//EN"
 "http://www.w3.org/TR/2001/REC-SVG-20010904/DTD/svg10.dtd">
<svg version="1.0" xmlns="http://www.w3.org/2000/svg"
 width="160.000000pt" height="160.000000pt" viewBox="0 0 160.000000 160.000000"
 preserveAspectRatio="xMidYMid meet">
<metadata>
Created by potrace 1.11, written by Peter Selinger 2001-2013
</metadata>
<g transform="translate(0.000000,160.000000) scale(0.100000,-0.100000)"
fill="#000000" stroke="none">
<path d="M675 1518 c-169 -39 -273 -93 -383 -201 -54 -52 -134 -164 -146 -204
-4 -13 -12 -23 -18 -23 -6 0 -9 -3 -6 -6 3 -3 -2 -29 -13 -59 -51 -144 -47
-371 7 -478 8 -15 12 -27 9 -27 -6 0 47 -99 79 -146 99 -146 261 -253 457
-300 52 -13 217 -12 286 1 171 33 346 137 439 261 16 21 35 45 42 52 6 7 12
20 12 28 0 8 4 14 8 14 19 0 76 158 93 253 10 61 8 199 -4 252 -70 303 -282
514 -582 581 -48 10 -236 12 -280 2z"/>
</g>
</svg>
