<?xml version="1.0" encoding="iso-8859-1"?>
<!-- Generator: Adobe Illustrator 19.0.0, SVG Export Plug-In . SVG Version: 6.00 Build 0)  -->
<svg version="1.1" id="Capa_1" xmlns="http://www.w3.org/2000/svg" xmlns:xlink="http://www.w3.org/1999/xlink" x="0px" y="0px"
	 viewBox="0 0 468.293 468.293" style="enable-background:new 0 0 468.293 468.293;" xml:space="preserve">
<circle style="fill:#27A2DB;" cx="195.846" cy="204.553" r="195.846"/>
<path style="fill:#1C75A1;" d="M362.995,204.581c0,92.284-74.84,167.124-167.124,167.124c-51.547,0-97.663-23.345-128.268-60.008
	L310.56,82.998C342.836,113.446,362.995,156.637,362.995,204.581z"/>
<path style="fill:#2D93BA;" d="M310.56,82.998L67.603,311.697c-24.285-28.986-38.856-66.327-38.856-107.116
	c0-92.336,74.788-167.124,167.124-167.124C240.211,37.457,280.582,54.744,310.56,82.998z"/>
<path style="fill:#EBF0F3;" d="M230.245,204.561c11.778-8.964,18.68-22.712,18.68-37.659c0-26.164-21.287-47.451-47.451-47.451
	h-5.335V99.866h-9.792v19.585h-11.424V99.866h-9.792v19.585h-9.792h-12.564v19.585h12.564v55.733h-12.564v19.585h12.564v55.733
	h-12.564v19.585h12.564h9.792v19.585h9.792v-19.585h11.424v19.585h9.792v-19.585h5.335c26.164,0,47.451-21.287,47.451-47.451
	C248.925,227.273,242.023,213.525,230.245,204.561z M201.473,270.086h-26.551v-55.733h26.551c15.364,0,27.866,12.502,27.866,27.866
	C229.34,257.584,216.838,270.086,201.473,270.086z M201.473,194.768h-26.551v-55.733h26.551c15.364,0,27.866,12.502,27.866,27.866
	S216.838,194.768,201.473,194.768z"/>
<path style="fill:#D5D6DB;" d="M322.956,296.411V224.01c0-4.822,3.921-8.743,8.743-8.743h77.091c4.822,0,8.743,3.921,8.743,8.743
	v72.401h24.481V224.01c0-18.32-14.904-33.224-33.224-33.224h-77.091c-18.32,0-33.224,14.904-33.224,33.224v72.401H322.956z"/>
<path style="fill:#64798A;" d="M449.561,459.586H290.926c-10.345,0-18.732-8.386-18.732-18.732V292.926
	c0-3.448,2.795-6.244,6.244-6.244h183.611c3.448,0,6.244,2.795,6.244,6.244v147.928
	C468.293,451.199,459.906,459.586,449.561,459.586z"/>
<path style="fill:#E1E6E9;" d="M389.116,356.286c0-10.423-8.45-18.872-18.873-18.872c-10.423,0-18.872,8.45-18.872,18.872
	c0,7.446,4.35,13.824,10.613,16.894l-5.769,35.675h28.056l-5.769-35.675C384.766,370.109,389.116,363.732,389.116,356.286z"/>
<g>
</g>
<g>
</g>
<g>
</g>
<g>
</g>
<g>
</g>
<g>
</g>
<g>
</g>
<g>
</g>
<g>
</g>
<g>
</g>
<g>
</g>
<g>
</g>
<g>
</g>
<g>
</g>
<g>
</g>
</svg>
