<?xml version="1.0" encoding="iso-8859-1"?>
<!-- Generator: Adobe Illustrator 19.0.0, SVG Export Plug-In . SVG Version: 6.00 Build 0)  -->
<svg version="1.1" id="Capa_1" xmlns="http://www.w3.org/2000/svg" xmlns:xlink="http://www.w3.org/1999/xlink" x="0px" y="0px"
	 viewBox="0 0 511.767 511.767" style="enable-background:new 0 0 511.767 511.767;" xml:space="preserve">
<polygon style="fill:#ED5565;" points="193.912,462.109 146.652,470.425 99.182,365.215 146.652,356.985 "/>
<g style="opacity:0.2;">
	<polygon points="146.652,356.985 139.234,358.274 185.916,462.109 146.063,469.121 146.652,470.425 193.912,462.109 	"/>
</g>
<g style="opacity:0.3;">
	<polygon style="fill:#FFFFFF;" points="107.178,365.215 147.23,358.274 146.652,356.985 99.182,365.215 146.652,470.425 
		154.059,469.121 	"/>
</g>
<path style="fill:#FFCE54;" d="M375.595,136.016c-19.913,0-35.983-16.149-35.983-35.983c0-19.913,16.07-35.983,35.983-35.983
	c19.827,0,35.983,16.07,35.983,35.983C411.578,119.867,395.422,136.016,375.595,136.016z"/>
<g style="opacity:0.5;">
	<path style="fill:#FFFFFF;" d="M347.608,100.032c0-18.539,13.978-33.571,31.97-35.578c-1.327-0.148-2.624-0.406-3.982-0.406
		c-19.913,0-35.983,16.07-35.983,35.983c0,19.834,16.07,35.983,35.983,35.983c1.358,0,2.655-0.25,3.982-0.398
		C361.585,133.595,347.608,118.5,347.608,100.032z"/>
</g>
<g style="opacity:0.2;">
	<path d="M403.809,100.032c0,18.546-13.986,33.578-31.978,35.585c1.327,0.148,2.623,0.398,3.99,0.398
		c19.912,0,35.983-16.071,35.983-35.983c0-19.827-16.071-35.983-35.983-35.983c-1.367,0-2.663,0.257-3.99,0.406
		C389.822,66.469,403.809,81.572,403.809,100.032z"/>
</g>
<polygon style="fill:#656D78;" points="162.407,329.607 83.193,343.577 87.801,367.192 166.643,353.518 "/>
<g style="opacity:0.2;">
	<polygon points="162.407,329.607 154.653,330.973 158.647,353.518 87.539,365.856 87.801,367.192 166.643,353.518 	"/>
</g>
<g style="opacity:0.2;">
	<polygon style="fill:#FFFFFF;" points="91.189,343.577 162.649,330.973 162.407,329.607 83.193,343.577 87.801,367.192 
		95.535,365.856 	"/>
</g>
<path style="fill:#E6E9ED;" d="M438.198,358.555c7.364,0,13.361,5.997,13.361,13.354c0,18.632-23.988,29.346-23.988,29.346
	s-23.989-10.714-23.989-29.346c0-7.356,5.911-13.354,13.267-13.354c4.396,0,8.239,2.163,10.723,5.435
	C429.96,360.718,433.803,358.555,438.198,358.555z"/>
<path style="fill:#FFFFFF;" d="M411.578,371.908c0-5.943,3.889-10.941,9.246-12.659c-1.266-0.405-2.577-0.694-3.976-0.694
	c-7.355,0-13.267,5.997-13.267,13.354c0,18.632,23.989,29.346,23.989,29.346s1.616-0.727,3.998-2.116
	C424.744,395.17,411.578,385.722,411.578,371.908z"/>
<g style="opacity:0.2;">
	<path d="M443.564,371.908c0-5.943-3.889-10.941-9.254-12.659c1.258-0.405,2.569-0.694,3.975-0.694
		c7.356,0,13.275,5.997,13.275,13.354c0,18.632-23.988,29.346-23.988,29.346s-1.625-0.727-3.998-2.116
		C430.39,395.17,443.564,385.722,443.564,371.908z"/>
</g>
<path style="fill:#ED5565;" d="M475.549,375.906c0,26.472-21.514,47.978-47.978,47.978c-26.473,0-47.979-21.506-47.979-47.978
	c0-26.465,21.506-47.979,47.979-47.979C454.035,327.928,475.549,349.442,475.549,375.906z M451.56,371.908
	c0-7.356-5.997-13.354-13.361-13.354c-4.396,0-8.238,2.163-10.627,5.435c-2.483-3.271-6.326-5.435-10.723-5.435
	c-7.355,0-13.267,5.997-13.267,13.354c0,18.632,23.989,29.346,23.989,29.346S451.56,390.54,451.56,371.908z"/>
<g style="opacity:0.3;">
	<path style="fill:#FFFFFF;" d="M387.589,375.906c0-25.114,19.382-45.737,43.98-47.775c-1.328-0.109-2.655-0.203-3.998-0.203
		c-26.473,0-47.979,21.514-47.979,47.979c0,26.472,21.506,47.978,47.979,47.978c1.343,0,2.67-0.094,3.998-0.203
		C406.971,421.643,387.589,401.028,387.589,375.906z"/>
</g>
<g style="opacity:0.3;">
	<path d="M467.553,375.906c0,25.121-19.382,45.736-43.979,47.774c1.319,0.109,2.639,0.203,3.998,0.203
		c26.464,0,47.978-21.506,47.978-47.978c0-26.465-21.514-47.979-47.978-47.979c-1.359,0-2.679,0.094-3.998,0.203
		C448.171,330.169,467.553,350.792,467.553,375.906z"/>
</g>
<path style="fill:#967ADC;" d="M451.794,67.891c0,15.431,12.557,27.987,27.987,27.987s27.987-12.557,27.987-27.987v15.992
	c0,15.43-12.557,27.987-27.987,27.987s-27.987-12.556-27.987-27.987V67.891z"/>
<path style="fill:#AC92EC;" d="M479.781,95.878c-15.431,0-27.987-12.557-27.987-27.987c0-15.438,12.557-27.987,27.987-27.987
	s27.987,12.549,27.987,27.987C507.769,83.321,495.212,95.878,479.781,95.878z"/>
<g style="opacity:0.3;">
	<path style="fill:#FFFFFF;" d="M459.79,67.891c0-14.064,10.465-25.621,23.989-27.581c-1.312-0.195-2.624-0.406-3.998-0.406
		c-15.431,0-27.987,12.549-27.987,27.987c0,15.431,12.557,27.987,27.987,27.987c1.374,0,2.687-0.219,3.998-0.406
		C470.255,93.512,459.79,81.954,459.79,67.891z"/>
</g>
<g style="opacity:0.2;">
	<path d="M499.773,67.891c0,14.063-10.465,25.621-23.989,27.581c1.312,0.188,2.624,0.406,3.998,0.406
		c15.431,0,27.987-12.557,27.987-27.987c0-15.438-12.557-27.987-27.987-27.987c-1.374,0-2.687,0.211-3.998,0.406
		C489.308,42.27,499.773,53.827,499.773,67.891z"/>
</g>
<polygon style="fill:#5D9CEC;" points="419.809,247.965 419.809,255.961 395.82,255.961 395.82,215.979 419.809,215.979 
	419.809,223.976 "/>
<path style="fill:#F5F7FA;" d="M459.79,215.979h7.997c7.996,7.997,7.996,31.985,0,39.982h-31.985l-7.996-7.997h-7.997v-23.989
	c0,0,6.481,0,15.993-7.997c9.511-7.997,15.992-23.989,15.992-23.989h7.996L459.79,215.979L459.79,215.979z"/>
<g style="opacity:0.2;">
	<rect x="451.794" y="191.993" width="7.996" height="23.989"/>
	<path d="M467.787,215.979h-7.997c7.997,7.997,7.997,31.985,0,39.982h7.997C475.783,247.965,475.783,223.976,467.787,215.979z"/>
</g>
<path style="fill:#5D9CEC;" d="M451.794,191.99c0,0-6.481,15.992-15.992,23.989c-9.512,7.997-15.993,7.997-15.993,7.997v-7.997
	H395.82v39.982h23.989v-7.997h7.997l7.996,7.997h31.985c7.996-7.997,7.996-31.985,0-39.982h-7.997V191.99L451.794,191.99
	L451.794,191.99z M439.8,295.943c-37.584,0-67.969-30.463-67.969-67.969c0-37.584,30.385-67.969,67.969-67.969
	c37.498,0,67.969,30.384,67.969,67.969C507.769,265.48,477.298,295.943,439.8,295.943z"/>
<g style="opacity:0.3;">
	<path style="fill:#FFFFFF;" d="M379.827,227.974c0-36.233,28.261-65.688,63.971-67.766c-1.328-0.078-2.655-0.203-3.998-0.203
		c-37.584,0-67.969,30.384-67.969,67.969c0,37.506,30.385,67.969,67.969,67.969c1.343,0,2.67-0.125,3.998-0.203
		C408.088,293.662,379.827,264.129,379.827,227.974z"/>
</g>
<g style="opacity:0.3;">
	<path d="M499.773,227.974c0,36.233-28.261,65.688-63.971,67.766c1.327,0.078,2.654,0.203,3.998,0.203
		c37.584,0,67.969-30.385,67.969-67.969c0-37.499-30.385-67.969-67.969-67.969c-1.344,0-2.671,0.125-3.998,0.203
		C471.512,162.293,499.773,191.819,499.773,227.974z"/>
</g>
<polygon style="fill:#ED5565;" points="56.373,234.69 75.806,344.881 17.914,338.884 3.999,260.123 "/>
<g style="opacity:0.3;">
	<polygon style="fill:#FFFFFF;" points="25.911,338.884 11.995,260.123 57.006,238.266 56.373,234.69 3.999,260.123 17.914,338.884 
		75.806,344.881 75.657,344.037 	"/>
</g>
<polygon style="fill:#E6E9ED;" points="159.607,313.934 162.407,329.607 75.806,344.881 56.373,234.69 142.974,219.423 
	145.774,235.174 "/>
<path style="fill:#F5F7FA;" d="M305.143,125.864l41.575,236.212l-15.665,2.796c-5.599-31.501-168.646-35.266-168.646-35.266
	l-2.8-15.673l-13.833-78.76l-2.8-15.75c0,0,154.734-43.582,146.41-90.763L305.143,125.864z"/>
<g style="opacity:0.2;">
	<path d="M305.143,125.864l-7.755,1.374l41.333,234.838l-8.129,1.452c0.148,0.445,0.375,0.883,0.461,1.344l15.665-2.796
		L305.143,125.864z"/>
</g>
<g style="opacity:0.1;">
	<rect x="419.814" y="223.973" width="7.997" height="23.989"/>
</g>
<g style="opacity:0.3;">
	<rect x="395.824" y="215.983" style="fill:#FFFFFF;" width="7.763" height="39.982"/>
</g>
<g style="opacity:0.2;">
	<rect x="412.044" y="215.983" width="7.762" height="39.982"/>
</g>
<g>
	<path style="fill:#3A3847;" d="M363.82,92.028c-2.203,0-4.038-1.788-4.038-3.998s1.749-3.999,3.96-3.999h0.078
		c2.209,0,3.998,1.789,3.998,3.999S366.029,92.028,363.82,92.028z"/>
	<path style="fill:#3A3847;" d="M387.808,92.028c-2.202,0-4.037-1.788-4.037-3.998s1.749-3.999,3.959-3.999h0.078
		c2.21,0,3.998,1.789,3.998,3.999S390.018,92.028,387.808,92.028z"/>
	<path style="fill:#3A3847;" d="M326.805,345.279c-1.905,0-3.593-1.367-3.936-3.303l-33.267-189.039
		c-0.375-2.171,1.078-4.24,3.249-4.631c2.155-0.367,4.248,1.078,4.638,3.249l33.267,189.038c0.375,2.171-1.077,4.24-3.249,4.631
		C327.273,345.264,327.039,345.279,326.805,345.279z"/>
	<path style="fill:#3A3847;" d="M331.045,368.87c-1.897,0-3.585-1.358-3.928-3.296c-3.663-20.607-103.032-30.54-164.804-31.97
		c-2.206-0.047-3.955-1.882-3.904-4.092c0.051-2.202,1.831-4.1,4.092-3.904c27.772,0.641,166.616,5.513,172.488,38.568
		c0.383,2.171-1.062,4.248-3.241,4.631C331.513,368.855,331.272,368.87,331.045,368.87z"/>
	<path style="fill:#3A3847;" d="M142.97,223.421c-1.745,0-3.346-1.156-3.846-2.913c-0.598-2.132,0.64-4.333,2.764-4.935
		c42.071-11.854,149.869-50.446,143.56-86.219c-0.383-2.171,1.07-4.248,3.249-4.631c2.147-0.39,4.248,1.07,4.622,3.241
		c3.812,21.607-20.545,44.292-72.393,67.422c-37.471,16.711-76.481,27.776-76.867,27.886
		C143.696,223.374,143.33,223.421,142.97,223.421z"/>
	<path style="fill:#3A3847;" d="M289.384,132.658c-1.905,0-3.592-1.359-3.936-3.295c-0.383-2.179,1.062-4.248,3.241-4.639
		l15.75-2.795c2.187-0.382,4.256,1.07,4.639,3.233c0.391,2.179-1.062,4.248-3.233,4.639l-15.758,2.795
		C289.853,132.642,289.618,132.658,289.384,132.658z"/>
	<path style="fill:#3A3847;" d="M346.718,366.074c-1.906,0-3.593-1.366-3.937-3.303l-41.574-236.212
		c-0.391-2.179,1.069-4.248,3.24-4.631c2.21-0.414,4.248,1.07,4.631,3.241l41.583,236.212c0.383,2.171-1.07,4.248-3.241,4.631
		C347.178,366.051,346.951,366.074,346.718,366.074z"/>
	<path style="fill:#3A3847;" d="M331.045,368.87c-1.897,0-3.585-1.358-3.928-3.296c-0.391-2.17,1.054-4.248,3.232-4.639
		l15.665-2.795c2.194-0.367,4.248,1.054,4.639,3.232c0.391,2.171-1.055,4.248-3.233,4.639l-15.665,2.796
		C331.513,368.855,331.28,368.87,331.045,368.87z"/>
	<path style="fill:#3A3847;" d="M75.802,348.879c-1.906,0-3.592-1.358-3.932-3.303c-0.386-2.171,1.066-4.248,3.241-4.631
		l86.601-15.274c2.183-0.391,4.248,1.062,4.631,3.241c0.387,2.178-1.066,4.248-3.241,4.631l-86.601,15.273
		C76.266,348.863,76.032,348.879,75.802,348.879z"/>
	<path style="fill:#3A3847;" d="M56.369,238.688c-1.905,0-3.592-1.359-3.932-3.303c-0.387-2.171,1.066-4.248,3.241-4.631
		l86.601-15.266c2.175-0.398,4.248,1.062,4.631,3.24c0.387,2.171-1.066,4.248-3.24,4.631l-86.602,15.267
		C56.834,238.672,56.6,238.688,56.369,238.688z"/>
	<path style="fill:#3A3847;" d="M75.806,348.879c-0.137,0-0.273-0.008-0.414-0.016L17.5,342.866
		c-1.773-0.188-3.214-1.53-3.522-3.288l-13.916-78.76c-0.312-1.766,0.582-3.515,2.19-4.295l52.374-25.426
		c1.125-0.562,2.448-0.539,3.565,0.031c1.116,0.57,1.901,1.632,2.116,2.866l19.432,110.191c0.219,1.242-0.156,2.507-1.011,3.421
		C77.973,348.426,76.911,348.879,75.806,348.879z M21.327,335.221l49.622,5.139l-17.594-99.759L8.462,262.396L21.327,335.221z"/>
	<path style="fill:#3A3847;" d="M159.603,317.933c-1.905,0-3.592-1.367-3.936-3.304l-13.833-78.769
		c-0.378-2.171,1.074-4.248,3.249-4.631c2.159-0.359,4.244,1.07,4.631,3.249l13.833,78.769c0.379,2.171-1.073,4.248-3.248,4.631
		C160.064,317.917,159.834,317.933,159.603,317.933z"/>
	<path style="fill:#3A3847;" d="M22.553,277.154c-1.417,0-2.792-0.758-3.518-2.093c-1.054-1.937-0.336-4.365,1.604-5.42
		l22.232-12.072c1.952-1.054,4.369-0.336,5.423,1.601c1.055,1.944,0.336,4.373-1.604,5.428L24.458,276.67
		C23.849,276.998,23.197,277.154,22.553,277.154z"/>
	<path style="fill:#3A3847;" d="M55.901,328.092c-0.195,0-0.398-0.016-0.598-0.047l-25.031-3.756
		c-2.183-0.328-3.69-2.366-3.362-4.553c0.332-2.179,2.39-3.662,4.549-3.357l25.032,3.756c2.183,0.328,3.69,2.365,3.362,4.553
		C59.551,326.67,57.849,328.092,55.901,328.092z"/>
	<path style="fill:#3A3847;" d="M26.703,300.745c-1.906,0-3.592-1.366-3.932-3.304c-0.386-2.179,1.066-4.248,3.241-4.631
		l23.591-4.162c2.144-0.406,4.248,1.062,4.63,3.241c0.386,2.179-1.066,4.248-3.241,4.631l-23.59,4.163
		C27.168,300.722,26.933,300.745,26.703,300.745z"/>
	<path style="fill:#3A3847;" d="M63.487,233.33c-1.901,0-3.588-1.358-3.932-3.295c-0.387-2.179,1.062-4.248,3.237-4.639
		l15.754-2.795c2.179-0.391,4.252,1.07,4.635,3.233c0.387,2.179-1.062,4.248-3.237,4.639l-15.754,2.795
		C63.956,233.315,63.717,233.33,63.487,233.33z"/>
	<path style="fill:#3A3847;" d="M193.916,466.107c-1.53,0-2.991-0.882-3.654-2.374l-40.302-90.278
		c-0.902-2.015,0.004-4.381,2.022-5.279c2.007-0.913,4.381,0.008,5.278,2.022l40.302,90.279c0.902,2.015-0.004,4.381-2.022,5.279
		C195.013,465.997,194.459,466.107,193.916,466.107z"/>
	<path style="fill:#3A3847;" d="M146.656,474.423c-1.53,0-2.99-0.882-3.654-2.374L102.7,381.771
		c-0.902-2.015,0.004-4.381,2.022-5.279c2.015-0.905,4.381,0.008,5.279,2.022l40.302,90.279c0.902,2.015-0.004,4.381-2.022,5.279
		C147.754,474.315,147.199,474.423,146.656,474.423z"/>
	<path style="fill:#3A3847;" d="M138.734,475.861c-1.894,0-3.577-1.352-3.928-3.28c-0.398-2.171,1.042-4.256,3.217-4.646
		l63.042-11.127c2.187-0.367,4.248,1.077,4.623,3.256c0.379,2.179-1.082,4.248-3.256,4.623l-62.979,11.112
		C139.211,475.845,138.972,475.861,138.734,475.861z"/>
	<path style="fill:#3A3847;" d="M87.797,371.19c-1.913,0-3.604-1.375-3.936-3.319l-1.52-8.878c-0.375-2.18,1.09-4.248,3.265-4.615
		c2.214-0.359,4.248,1.085,4.615,3.264l1.519,8.879c0.375,2.179-1.089,4.24-3.264,4.615C88.245,371.174,88.019,371.19,87.797,371.19
		z"/>
	<path style="fill:#3A3847;" d="M87.797,371.19c-1.909,0-3.6-1.367-3.936-3.312c-0.379-2.179,1.081-4.248,3.256-4.622l78.843-13.674
		c2.159-0.375,4.248,1.077,4.623,3.256c0.379,2.171-1.082,4.24-3.256,4.623l-78.843,13.674
		C88.253,371.174,88.023,371.19,87.797,371.19z"/>
	<path style="fill:#3A3847;" d="M166.639,357.516c-1.894,0-3.577-1.343-3.928-3.271l-1.437-7.841
		c-0.398-2.171,1.039-4.256,3.209-4.653c2.198-0.406,4.26,1.046,4.654,3.209l1.437,7.84c0.398,2.171-1.039,4.256-3.209,4.654
		C167.12,357.5,166.878,357.516,166.639,357.516z"/>
	<path style="fill:#3A3847;" d="M427.572,427.882c-28.659,0-51.977-23.317-51.977-51.976c0-28.659,23.317-51.977,51.977-51.977
		c28.658,0,51.976,23.317,51.976,51.977C479.547,404.565,456.23,427.882,427.572,427.882z M427.572,331.926
		c-24.255,0-43.98,19.733-43.98,43.98c0,24.254,19.726,43.979,43.98,43.979c24.246,0,43.979-19.726,43.979-43.979
		C471.551,351.659,451.818,331.926,427.572,331.926z"/>
	<path style="fill:#3A3847;" d="M375.595,140.014c-22.053,0-39.981-17.937-39.981-39.981c0-22.045,17.929-39.982,39.981-39.982
		c22.037,0,39.981,17.937,39.981,39.982C415.576,122.077,397.632,140.014,375.595,140.014z M375.595,68.047
		c-17.641,0-31.985,14.353-31.985,31.985c0,17.64,14.345,31.985,31.985,31.985c17.633,0,31.985-14.345,31.985-31.985
		C407.58,82.4,393.228,68.047,375.595,68.047z"/>
	<path style="fill:#3A3847;" d="M439.8,299.941c-39.686,0-71.967-32.282-71.967-71.967c0-39.677,32.281-71.967,71.967-71.967
		c39.685,0,71.967,32.29,71.967,71.967C511.767,267.658,479.485,299.941,439.8,299.941z M439.8,164.003
		c-35.273,0-63.971,28.698-63.971,63.971c0,35.272,28.697,63.971,63.971,63.971c35.272,0,63.971-28.698,63.971-63.971
		S475.072,164.003,439.8,164.003z"/>
	<path style="fill:#3A3847;" d="M427.572,405.252c-0.562,0-1.117-0.117-1.641-0.344c-1.069-0.484-26.347-12.018-26.347-33
		c0-9.566,7.746-17.352,17.265-17.352c3.929,0,7.646,1.327,10.691,3.725c2.998-2.397,6.707-3.725,10.658-3.725
		c9.566,0,17.359,7.785,17.359,17.352c0,20.982-25.285,32.516-26.362,33C428.68,405.135,428.117,405.252,427.572,405.252z
		 M416.849,362.553c-5.114,0-9.269,4.201-9.269,9.355c0,13.251,14.946,22.231,19.983,24.879
		c5.036-2.663,19.998-11.683,19.998-24.879c0-5.154-4.201-9.355-9.363-9.355c-2.943,0-5.638,1.39-7.41,3.803
		c-0.742,1.016-1.921,1.624-3.186,1.632c-1.086,0.031-2.46-0.569-3.218-1.585C422.527,363.958,419.778,362.553,416.849,362.553z"/>
	<path style="fill:#3A3847;" d="M467.787,259.959h-31.985c-1.062,0-2.077-0.422-2.827-1.172l-6.825-6.825h-6.341
		c-2.21,0-3.998-1.788-3.998-3.998s1.788-3.999,3.998-3.999h7.997c1.062,0,2.076,0.422,2.826,1.172l6.825,6.825h28.487
		c5.106-7.098,5.106-24.887,0-31.985h-6.154c-2.209,0-3.998-1.788-3.998-3.998v-19.991h-1.39
		c-2.312,5.029-8.121,16.406-16.024,23.052c-10.339,8.684-17.757,8.934-18.569,8.934c-2.21,0-3.998-1.788-3.998-3.998
		s1.788-3.999,3.998-3.999c-0.031,0,5.381-0.296,13.416-7.059c8.66-7.271,14.806-22.279,14.868-22.427
		c0.609-1.507,2.077-2.499,3.701-2.499h7.996c2.211,0,3.998,1.789,3.998,3.999v19.99h3.999c1.062,0,2.077,0.422,2.827,1.172
		c9.597,9.597,9.597,36.038,0,45.635C469.864,259.537,468.849,259.959,467.787,259.959z"/>
	<path style="fill:#3A3847;" d="M419.809,259.959H395.82c-2.209,0-3.998-1.788-3.998-3.998v-39.982c0-2.21,1.789-3.999,3.998-3.999
		h23.989c2.21,0,3.998,1.789,3.998,3.999v39.982C423.807,258.171,422.019,259.959,419.809,259.959z M399.818,251.963h15.993v-31.985
		h-15.993V251.963z"/>
	<path style="fill:#3A3847;" d="M375.595,124.021c-12.65,0-15.992-7.84-15.992-11.995c0-2.21,1.779-3.998,3.998-3.998
		c2.17,0,3.936,1.741,3.998,3.904c0.047,0.719,0.687,4.092,7.996,4.092c7.355,0,7.949-3.428,7.996-4.107
		c0.141-2.155,2.241-3.764,4.123-3.811c2.155,0.07,3.873,1.765,3.873,3.92C391.587,116.181,388.245,124.021,375.595,124.021z"/>
	<path style="fill:#3A3847;" d="M479.781,99.876c-17.633,0-31.985-14.353-31.985-31.985c0-17.641,14.353-31.985,31.985-31.985
		s31.985,14.345,31.985,31.985C511.767,85.524,497.414,99.876,479.781,99.876z M479.781,43.902
		c-13.229,0-23.989,10.761-23.989,23.989s10.761,23.989,23.989,23.989s23.989-10.761,23.989-23.989S493.01,43.902,479.781,43.902z"
		/>
	<path style="fill:#3A3847;" d="M479.781,115.869c-17.633,0-31.985-14.353-31.985-31.985c0-2.21,1.788-3.999,3.998-3.999
		s3.998,1.789,3.998,3.999c0,13.228,10.761,23.989,23.989,23.989s23.99-10.761,23.99-23.99c0-2.21,1.788-3.999,3.998-3.999
		s3.998,1.789,3.998,3.999C511.767,101.516,497.414,115.869,479.781,115.869z"/>
	<path style="fill:#3A3847;" d="M479.781,83.883c-2.21,0-3.998-1.789-3.998-3.999V55.896c0-2.21,1.788-3.998,3.998-3.998
		s3.998,1.788,3.998,3.998v23.989C483.78,82.095,481.991,83.883,479.781,83.883z"/>
	<path style="fill:#3A3847;" d="M491.777,71.889h-23.989c-2.21,0-3.999-1.788-3.999-3.998s1.789-3.998,3.999-3.998h23.989
		c2.209,0,3.998,1.788,3.998,3.998S493.986,71.889,491.777,71.889z"/>
	<path style="fill:#3A3847;" d="M451.794,87.882c-2.21,0-3.998-1.789-3.998-3.998V67.891c0-2.21,1.788-3.998,3.998-3.998
		s3.998,1.788,3.998,3.998v15.992C455.792,86.093,454.004,87.882,451.794,87.882z"/>
	<path style="fill:#3A3847;" d="M507.769,87.882c-2.21,0-3.998-1.789-3.998-3.998V67.891c0-2.21,1.788-3.998,3.998-3.998
		s3.998,1.788,3.998,3.998v15.992C511.767,86.093,509.979,87.882,507.769,87.882z"/>
</g>
<g>
</g>
<g>
</g>
<g>
</g>
<g>
</g>
<g>
</g>
<g>
</g>
<g>
</g>
<g>
</g>
<g>
</g>
<g>
</g>
<g>
</g>
<g>
</g>
<g>
</g>
<g>
</g>
<g>
</g>
</svg>
