<?xml version="1.0" encoding="iso-8859-1"?>
<!-- Generator: Adobe Illustrator 19.0.0, SVG Export Plug-In . SVG Version: 6.00 Build 0)  -->
<svg version="1.1" id="Capa_1" xmlns="http://www.w3.org/2000/svg" xmlns:xlink="http://www.w3.org/1999/xlink" x="0px" y="0px"
	 viewBox="0 0 512 512" style="enable-background:new 0 0 512 512; fill:#fff;" xml:space="preserve">
<g>
	<g>
		<path d="M496,0.016H16c-8.832,0-16,7.168-16,16v224c0,8.832,7.168,16,16,16h58.816c12.736-22.304,21.28-43.872,26.528-64H96
			c-17.664,0-32-14.336-32-32v-64c0-17.664,14.336-32,32-32h320c17.664,0,32,14.336,32,32v64c0,14.72-10.144,26.56-23.648,30.304
			c-3.744,20.768-9.92,42.816-19.04,65.696H496c8.832,0,16-7.168,16-16v-224C512,7.184,504.832,0.016,496,0.016z"/>
	</g>
</g>
<g>
	<g>
		<path d="M395.36,96.016H139.104c5.664,41.6,4.288,109.76-40.736,183.648C16.352,414.192,64.096,500.336,66.144,503.952
			c2.848,4.96,8.16,8.032,13.888,8.032h224c5.664,0,10.88-3.072,13.76-7.936s2.944-10.976,0.192-15.936
			c-1.664-2.976-39.744-74.496,31.712-191.776C398.368,216.496,401.216,143.312,395.36,96.016z M192,144.016c0-8.832,7.168-16,16-16
			c8.832,0,16,7.168,16,16v32c0,8.832-7.168,16-16,16c-8.832,0-16-7.168-16-16V144.016z M256,432.016c0,8.832-7.168,16-16,16
			c-8.832,0-16-7.168-16-16v-32c0-8.832,7.168-16,16-16c8.832,0,16,7.168,16,16V432.016z M224,344.016c-26.464,0-48-25.12-48-56
			s21.536-56,48-56s48,25.12,48,56S250.464,344.016,224,344.016z"/>
	</g>
</g>
<g>
</g>
<g>
</g>
<g>
</g>
<g>
</g>
<g>
</g>
<g>
</g>
<g>
</g>
<g>
</g>
<g>
</g>
<g>
</g>
<g>
</g>
<g>
</g>
<g>
</g>
<g>
</g>
<g>
</g>
</svg>
