<?xml version="1.0" encoding="iso-8859-1"?>
<!-- Generator: Adobe Illustrator 19.0.0, SVG Export Plug-In . SVG Version: 6.00 Build 0)  -->
<svg version="1.1" id="Layer_1" xmlns="http://www.w3.org/2000/svg" xmlns:xlink="http://www.w3.org/1999/xlink" x="0px" y="0px"
	 viewBox="0 0 511.996 511.996" style="enable-background:new 0 0 511.996 511.996;" xml:space="preserve">
<ellipse transform="matrix(0.2623 -0.965 0.965 0.2623 37.6074 529.7366)" style="fill:#F59F3F;" cx="365.277" cy="240.271" rx="240.475" ry="68.134"/>
<g>
	<path style="fill:#F2821C;" d="M323.582,222.389c29.465-108.415,75.275-193.732,110.672-211.476
		c-1.854-1.223-3.817-2.142-5.904-2.709c-36.312-9.868-93.985,86.025-128.817,214.185s-33.631,240.055,2.681,249.923
		c5.594,1.52,11.697,0.522,18.144-2.709C289.938,449.522,290.752,343.189,323.582,222.389z"/>
	<circle style="fill:#F2821C;" cx="416.314" cy="71.636" r="8.016"/>
	<circle style="fill:#F2821C;" cx="432.345" cy="111.715" r="8.016"/>
	<circle style="fill:#F2821C;" cx="400.282" cy="159.809" r="8.016"/>
	<circle style="fill:#F2821C;" cx="416.314" cy="199.888" r="8.016"/>
</g>
<path style="fill:#E6608D;" d="M251.868,187.598c-67.958-11.677-68.93,60.012-48.007,103.316s74.902,43.931,110.776,26.598
	s68.93-60.012,48.007-103.316C341.722,170.892,284.954,127.1,251.868,187.598z"/>
<path style="fill:#D4506F;" d="M267.041,250.835c-10.529-21.792-15.508-50.768-9.202-72.695c-2.061,2.822-4.057,5.958-5.972,9.458
	c-67.958-11.677-68.93,60.012-48.007,103.316s74.902,43.931,110.776,26.598c14.49-7.001,28.519-18.139,38.718-31.78
	C320.775,292.626,283.581,285.067,267.041,250.835z"/>
<path style="fill:#00B5B8;" d="M246.45,110.095c-8.013,3.872-12.899,11.606-13.518,19.885c6.87,4.661,15.966,5.639,23.979,1.767
	c8.013-3.872,12.899-11.606,13.517-19.885C263.558,107.201,254.463,106.223,246.45,110.095z"/>
<polygon style="fill:#E1E0E4;" points="456.39,480.434 135.762,480.434 135.762,223.931 167.825,247.978 199.888,223.931 
	231.95,247.978 264.013,223.931 296.076,247.978 328.139,223.931 360.202,247.978 392.265,223.931 424.328,247.978 456.39,223.931 
	"/>
<polygon style="fill:#D2D1D6;" points="264.013,223.931 231.95,247.978 199.888,223.931 167.825,247.978 135.762,223.931 
	135.762,480.434 264.347,480.434 264.347,224.182 "/>
<path style="fill:#68DEC8;" d="M159.809,127.743V79.648h-48.094v48.094L66.802,166.24c-7.107,6.091-11.197,14.984-11.197,24.344
	v281.835c0,17.708,14.355,32.063,32.063,32.063h96.189c17.708,0,32.063-14.355,32.063-32.063V190.583
	c0-9.36-4.09-18.253-11.197-24.344L159.809,127.743z"/>
<path style="fill:#38C7C2;" d="M79.652,480.434V198.598c0-9.36,4.09-18.253,11.197-24.344l44.913-38.497v-56.11h-24.047v48.094
	l-44.913,38.497c-7.107,6.091-11.197,14.984-11.197,24.344v281.835c0,17.708,14.355,32.063,32.063,32.063h2.851
	C83.858,498.606,79.652,490.013,79.652,480.434z"/>
<rect x="103.701" y="31.554" style="fill:#878493;" width="64.126" height="48.094"/>
<rect x="103.701" y="31.554" style="fill:#787485;" width="24.047" height="48.094"/>
<rect x="55.607" y="247.982" style="fill:#FCDE76;" width="120.236" height="176.346"/>
<rect x="55.607" y="247.982" style="fill:#FCCF6F;" width="24.047" height="176.346"/>
<path style="fill:#F59F3F;" d="M71.636,296.073c-5.394,0-10.642,0.34-15.698,0.963v78.231c5.056,0.623,10.304,0.963,15.698,0.963
	c39.843,0,72.141-17.944,72.141-40.079C143.777,314.016,111.478,296.073,71.636,296.073z"/>
<path style="fill:#F2821C;" d="M71.636,296.073c-5.394,0-10.642,0.34-15.698,0.963v78.231c5.056,0.623,10.304,0.963,15.698,0.963
	c2.71,0,5.383-0.09,8.016-0.253v-79.653C77.019,296.163,74.346,296.073,71.636,296.073z"/>
<path d="M456.39,408.794c-4.15,0-7.515,3.365-7.515,7.515v56.611H231.95c-4.15,0-7.515,3.365-7.515,7.515
	c0,4.15,3.365,7.515,7.515,7.515h224.44c4.15,0,7.515-3.365,7.515-7.515v-64.126C463.905,412.157,460.541,408.794,456.39,408.794z"
	/>
<path d="M459.751,217.21c-2.546-1.273-5.593-0.999-7.869,0.709l-27.554,20.666l-27.554-20.666c-2.672-2.004-6.345-2.004-9.018,0
	l-12.648,9.486c-1.209-5.594-3.104-11.111-5.697-16.478c-2.217-4.589-4.825-9.196-7.763-13.708l25.882,7.034
	c4.058,1.104,8.339-1.462,9.291-5.554c0.903-3.884-1.503-7.904-5.349-8.949l-43.419-11.8c-0.636-0.173-1.275-0.249-1.905-0.256
	c-6-6.242-12.59-11.811-19.539-16.269c5.547-15.351,11.425-30.025,17.508-43.754c0.15,0.051,0.298,0.106,0.453,0.148l54.146,14.716
	c4.058,1.104,8.339-1.462,9.291-5.554c0.903-3.885-1.503-7.903-5.349-8.949l-52.192-14.185
	c9.793-20.582,19.979-38.587,30.052-52.944c17.942-25.572,34.663-38.487,45.865-35.446c11.52,3.131,19.698,24.564,21.876,57.334
	c2.396,36.033-2.234,84.285-13.037,135.868c-0.817,3.901,1.67,7.872,5.541,8.832c4.082,1.013,8.308-1.637,9.17-5.752
	c20.263-96.76,22.058-199.461-19.607-210.785c-18.194-4.945-39.675,9.34-62.11,41.317c-19.135,27.27-38.558,66.887-55.065,112.188
	c-6.19-2.439-12.527-3.891-18.871-4.05c-11.625-0.284-27.462,3.622-41.452,21.895l-15.462-32.002
	c7.513,2.249,15.752,1.627,22.818-1.787c10.107-4.884,16.906-14.881,17.743-26.092c0.2-2.682-1.048-5.267-3.275-6.778
	c-9.303-6.311-21.362-7.199-31.467-2.316c-7.187,3.472-12.687,9.538-15.575,16.78l-2.352-4.867
	c-1.806-3.736-6.298-5.303-10.036-3.497c-3.737,1.806-5.302,6.298-3.497,10.036l27.564,57.049c-0.866-0.016-1.723-0.019-2.568-0.005
	c-4.15,0.067-7.46,3.486-7.393,7.635c0.067,4.15,3.505,7.458,7.635,7.393c4.204-0.065,8.791,0.32,13.635,1.151
	c3.163,0.543,6.324-0.983,7.865-3.8c9.545-17.451,21.455-26.107,35.436-25.771c6.526,0.164,13.163,2.231,19.614,5.629
	c0.288,0.178,0.592,0.336,0.909,0.476c17.148,9.389,32.865,28.143,41.458,45.926c3.088,6.392,4.957,13.003,5.555,19.65
	c0.053,0.586,0.029,0.525-0.434,0.872c-0.267,0.199-0.532,0.399-0.799,0.598l-27.554-20.666c-2.672-2.004-6.345-2.004-9.018,0
	l-27.554,20.666l-27.554-20.666c-2.672-2.004-6.345-2.004-9.018,0l-27.173,20.38c-3.32,2.49-3.993,7.201-1.503,10.521
	c2.49,3.321,7.201,3.993,10.521,1.503l22.664-16.998l27.554,20.666c2.672,2.004,6.345,2.004,9.018,0l27.554-20.666l27.554,20.666
	c2.672,2.004,6.345,2.004,9.018,0l27.554-20.666l27.554,20.666c2.672,2.004,6.345,2.004,9.018,0l20.039-15.029v145.285
	c0,4.15,3.365,7.515,7.515,7.515c4.15,0,7.515-3.365,7.515-7.515V223.932C463.905,221.085,462.297,218.482,459.751,217.21z
	 M249.718,116.861c3.83-1.851,8.196-2.117,12.165-0.87c-1.49,3.885-4.413,7.139-8.242,8.99c-3.83,1.85-8.195,2.117-12.165,0.87
	C242.967,121.966,245.889,118.712,249.718,116.861z"/>
<path d="M255.998,327.634h56.11c4.15,0,7.515-3.365,7.515-7.515c0-4.15-3.365-7.515-7.515-7.515h-56.11
	c-4.15,0-7.515,3.365-7.515,7.515C248.483,324.27,251.847,327.634,255.998,327.634z"/>
<path d="M255.998,375.729h104.204c4.15,0,7.515-3.365,7.515-7.515c0-4.15-3.365-7.515-7.515-7.515H255.998
	c-4.15,0-7.515,3.365-7.515,7.515C248.483,372.364,251.847,375.729,255.998,375.729z"/>
<path d="M255.998,423.823h104.204c4.15,0,7.515-3.365,7.515-7.515c0-4.15-3.365-7.515-7.515-7.515H255.998
	c-4.15,0-7.515,3.365-7.515,7.515C248.483,420.459,251.847,423.823,255.998,423.823z"/>
<path d="M209.613,160.534l-42.289-36.248V87.163h0.501h8.016c4.15,0,7.515-3.365,7.515-7.515c0-4.15-3.365-7.515-7.515-7.515h-0.501
	v-40.58c0-4.15-3.365-7.515-7.515-7.515h-64.126c-4.15,0-7.515,3.365-7.515,7.515v40.58h-0.501c-4.15,0-7.515,3.365-7.515,7.515
	c0,4.15,3.365,7.515,7.515,7.515h8.016h0.501v37.123l-42.289,36.248c-8.783,7.529-13.821,18.481-13.821,30.05v281.835
	c0,21.823,17.755,39.578,39.578,39.578h96.189c21.823,0,39.578-17.755,39.578-39.578V190.583
	C223.434,179.014,218.396,168.062,209.613,160.534z M111.214,39.069h49.096v33.065h-0.501h-48.094h-0.501V39.069z M63.119,303.9
	c2.837-0.2,5.683-0.313,8.517-0.313c38.659,0,64.627,16.838,64.627,32.564c0,15.726-25.968,32.564-64.627,32.564
	c-2.834,0-5.68-0.112-8.517-0.313V303.9z M63.119,383.474c2.839,0.178,5.684,0.271,8.517,0.271
	c44.668,0,79.656-20.905,79.656-47.593c0-26.688-34.989-47.593-79.656-47.593c-2.833,0-5.678,0.092-8.517,0.271v-33.335h105.206
	v161.316H63.119V383.474z M208.404,472.418c0,13.536-11.013,24.548-24.548,24.548H87.667c-13.536,0-24.548-11.013-24.548-24.548
	v-40.58H175.84c4.15,0,7.515-3.365,7.515-7.515V247.978c0-4.15-3.365-7.515-7.515-7.515H63.119v-49.88
	c0-7.175,3.124-13.968,8.573-18.639l44.913-38.497c1.666-1.428,2.624-3.512,2.624-5.705v-40.58h33.065v40.58
	c0,2.193,0.959,4.278,2.624,5.705l44.913,38.497c5.449,4.669,8.573,11.462,8.573,18.638V472.418z"/>
<g>
</g>
<g>
</g>
<g>
</g>
<g>
</g>
<g>
</g>
<g>
</g>
<g>
</g>
<g>
</g>
<g>
</g>
<g>
</g>
<g>
</g>
<g>
</g>
<g>
</g>
<g>
</g>
<g>
</g>
</svg>
