<?xml version="1.0" encoding="iso-8859-1"?>
<!-- Generator: Adobe Illustrator 19.0.0, SVG Export Plug-In . SVG Version: 6.00 Build 0)  -->
<svg version="1.1" id="Layer_1" xmlns="http://www.w3.org/2000/svg" xmlns:xlink="http://www.w3.org/1999/xlink" x="0px" y="0px"
	 viewBox="0 0 512 512" style="enable-background:new 0 0 512 512;" xml:space="preserve">
<path style="fill:#634E9B;" d="M114.143,472.172h225.713c17.11,0,30.982,13.87,30.982,30.982v0.432H83.161v-0.432
	C83.161,486.043,97.033,472.172,114.143,472.172z"/>
<path style="fill:#FFDB6C;" d="M154.455,472.178c-14.438-16.356-23.198-37.842-23.198-61.376c0-51.244,41.541-92.784,92.784-92.784
	s92.784,41.541,92.784,92.784c0,23.532-8.76,45.018-23.198,61.375"/>
<path style="fill:#FFB04C;" d="M224.041,318.018c-6.39,0-12.629,0.647-18.658,1.877c42.301,8.635,74.127,46.055,74.127,90.907
	c0,23.532-8.76,45.018-23.198,61.375H154.454l0,0l139.173-0.001c14.437-16.356,23.198-37.842,23.198-61.375
	C316.824,359.558,275.283,318.018,224.041,318.018z"/>
<path style="fill:#6EAECD;" d="M263.461,318.018h-72.925c-12.393,0-22.438-10.046-22.438-22.438l0,0
	c0-12.393,10.046-22.438,22.438-22.438h72.925c12.393,0,22.438,10.046,22.438,22.438l0,0
	C285.9,307.971,275.854,318.018,263.461,318.018z"/>
<path style="fill:#5388B4;" d="M263.461,273.141h-27.674c12.393,0,22.438,10.046,22.438,22.438l0,0
	c0,12.393-10.046,22.438-22.438,22.438h27.674c12.393,0,22.438-10.046,22.438-22.438l0,0
	C285.9,283.187,275.854,273.141,263.461,273.141z"/>
<path style="fill:#634E9B;" d="M280.01,115.091H173.988c-12.393,0-22.438-10.046-22.438-22.438v-8.975h150.898v8.975
	C302.448,105.044,292.402,115.091,280.01,115.091z"/>
<path style="fill:#4C3A7A;" d="M273.747,83.677v8.975c0,12.393-10.046,22.438-22.438,22.438h28.702
	c12.393,0,22.438-10.046,22.438-22.438v-8.975H273.747z"/>
<path style="fill:#EE3446;" d="M189.415,273.141c0-20.758,16.827-37.584,37.584-37.584s37.584,16.827,37.584,37.584"/>
<path style="fill:#BA2C53;" d="M226.999,235.557c-4.038,0-7.924,0.644-11.57,1.823c15.094,4.88,26.015,19.042,26.015,35.761h23.14
	C264.583,252.384,247.757,235.557,226.999,235.557z"/>
<g>
	<circle style="fill:#42A555;" cx="226.661" cy="212.144" r="23.414"/>
	<circle style="fill:#42A555;" cx="227.177" cy="165.315" r="23.414"/>
</g>
<g>
	<path style="fill:#427451;" d="M226.667,188.727c-3.261,0-6.365,0.67-9.186,1.875c8.365,3.572,14.229,11.87,14.229,21.541
		c0,9.671-5.864,17.969-14.229,21.541c2.82,1.205,5.925,1.875,9.186,1.875c12.931,0,23.414-10.483,23.414-23.416
		C250.083,199.21,239.599,188.727,226.667,188.727z"/>
	<path style="fill:#427451;" d="M227.177,141.897c-3.261,0-6.365,0.67-9.186,1.875c8.365,3.572,14.229,11.87,14.229,21.541
		c0,9.671-5.864,17.969-14.229,21.54c2.821,1.205,5.925,1.875,9.186,1.875c12.931,0,23.414-10.483,23.414-23.414
		C250.592,152.38,240.109,141.897,227.177,141.897z"/>
</g>
<path style="fill:#FFDB6C;" d="M250.083,83.677h-46.83l-23.098-64.912c-1.796-5.046,1.947-10.35,7.303-10.35h75.439
	c5.223,0,8.951,5.059,7.404,10.047L250.083,83.677z"/>
<path style="fill:#FFB04C;" d="M248.494,8.415l-23.333,75.262h24.92L270.3,18.46c1.546-4.988-2.182-10.047-7.404-10.047h-14.402
	V8.415z"/>
<path style="fill:#4C3A7A;" d="M339.856,472.172h-46.482c17.11,0,30.982,13.87,30.982,30.982v0.432h46.482v-0.432
	C370.837,486.043,356.967,472.172,339.856,472.172z"/>
<path d="M436.774,32.417c-0.35-4.634-4.389-8.108-9.024-7.757c-4.634,0.35-8.107,4.39-7.757,9.024
	c1.795,23.766-0.748,58.43-23.058,88.606c-22.341,30.219-54.028,40.732-71.052,46.381c-25.21,8.363-48.352,10.542-69.817,9.979
	c1.881-4.059,2.939-8.576,2.939-13.337c0-14.823-10.186-27.312-23.925-30.836v-10.971h44.928c17.013,0,30.853-13.841,30.853-30.853
	v-8.975c0-4.648-3.767-8.414-8.414-8.414h-40.949l16.837-54.309c1.537-4.958,0.653-10.199-2.427-14.377s-7.823-6.574-13.014-6.574
	h-44.643c-4.647,0-8.414,3.766-8.414,8.414s3.767,8.414,8.414,8.414h43.744l-18.115,58.433h-34.692l-24.79-69.67
	c-1.557-4.378-6.372-6.66-10.748-5.107c-4.379,1.558-6.664,6.371-5.107,10.749l22.783,64.026H151.55
	c-4.647,0-8.414,3.766-8.414,8.414v8.975c0,17.012,13.84,30.853,30.853,30.853h44.264v11.26
	c-13.218,3.868-22.905,16.095-22.905,30.548c0,2.343,0.261,4.625,0.745,6.825c-33.415-4.715-62.472-7.003-86.439,15.173
	c-6.523,6.037-21.919,22.699-23.986,46.974c-0.14,1.644-3.061,40.486,28.382,61.555c12.524,8.392,25.511,10.719,36.061,10.719
	c4.212,0,8.032-0.371,11.281-0.875c2.441,7.023,7.351,12.896,13.687,16.582c-31.123,17.28-52.237,50.487-52.237,88.538
	c0,18.833,5.246,37.127,14.972,52.956h-23.671c-21.723,0-39.396,17.674-39.396,39.396v0.432c0,4.648,3.767,8.414,8.414,8.414
	h287.676c4.647,0,8.414-3.766,8.414-8.414v-0.432c0-21.723-17.672-39.396-39.396-39.396H158.359
	c-12.076-14.965-18.689-33.624-18.689-52.956c0-46.521,37.848-84.369,84.369-84.369s84.371,37.848,84.371,84.369
	c0,8.859-1.364,17.58-4.056,25.923c-1.426,4.422,1.003,9.164,5.426,10.59c4.424,1.427,9.164-1.003,10.591-5.426
	c3.229-10.014,4.867-20.474,4.867-31.088c0-36.91-19.866-69.262-49.463-86.941c10.899-4.765,18.539-15.645,18.539-28.281
	c0-13.885-9.222-25.654-21.862-29.512c-2.152-13.882-10.537-25.722-22.192-32.585c5.115-5.65,8.235-13.137,8.235-21.34
	c0-6.15-1.758-11.895-4.792-16.768c23.5,0.765,49.414-1.421,77.477-10.732c17.455-5.791,53.774-17.842,79.285-52.348
	C437.191,96.149,438.42,54.202,436.774,32.417z M159.964,92.653v-0.561h43.287h46.83h43.952v0.561
	c0,7.733-6.291,14.024-14.024,14.024H173.988C166.256,106.677,159.964,100.385,159.964,92.653z M360.965,495.171H93.034
	c3.231-8.516,11.475-14.585,21.109-14.585h40.208c0.036,0,0.071,0.006,0.107,0.006c0.042,0,0.083-0.004,0.125-0.006h185.274
	C349.49,480.586,357.734,486.655,360.965,495.171z M226.999,243.971c13.159,0,24.306,8.761,27.928,20.755h-55.855
	C202.693,252.731,213.84,243.971,226.999,243.971z M211.667,212.142c0-8.272,6.729-15.001,15-15.001
	c8.272,0,15.001,6.729,15.001,15.001c0,8.271-6.729,15-15.001,15C218.396,227.143,211.667,220.412,211.667,212.142z
	 M225.083,150.474c0.514,0.098,1.042,0.154,1.584,0.154c0.682,0,1.342-0.09,1.978-0.243c7.584,0.74,13.533,7.15,13.533,14.927
	c0,4.954-2.426,9.342-6.139,12.075c-6.957-0.669-13.732-1.526-20.343-2.441c-2.192-2.608-3.519-5.967-3.519-9.634
	C212.176,157.752,217.802,151.498,225.083,150.474z M123.418,281.858c-23.294-15.609-21.008-45.845-20.982-46.149
	c1.566-18.411,13.563-31.344,18.647-36.048c20.028-18.533,45.548-14.818,80.869-9.68c0.552,0.081,1.112,0.162,1.668,0.242
	c-5.436,5.713-8.782,13.43-8.782,21.919c0,8.326,3.217,15.911,8.467,21.588c-11.431,6.899-19.634,18.625-21.76,32.336
	c-10.505,3.206-18.641,11.88-21.092,22.69C152.387,290.225,137.272,291.141,123.418,281.858z M277.485,295.58
	c0,7.733-6.291,14.024-14.024,14.024h-72.925c-7.733,0-14.024-6.291-14.024-14.024s6.291-14.024,14.024-14.024h72.925
	C271.195,281.556,277.485,287.846,277.485,295.58z"/>
<g>
</g>
<g>
</g>
<g>
</g>
<g>
</g>
<g>
</g>
<g>
</g>
<g>
</g>
<g>
</g>
<g>
</g>
<g>
</g>
<g>
</g>
<g>
</g>
<g>
</g>
<g>
</g>
<g>
</g>
</svg>
