<?xml version="1.0" encoding="iso-8859-1"?>
<!-- Generator: Adobe Illustrator 19.0.0, SVG Export Plug-In . SVG Version: 6.00 Build 0)  -->
<svg version="1.1" id="Capa_1" xmlns="http://www.w3.org/2000/svg" xmlns:xlink="http://www.w3.org/1999/xlink" x="0px" y="0px"
	 viewBox="0 0 472 472" style="enable-background:new 0 0 472 472;" xml:space="preserve">
<path style="fill:#FEC9A3;" d="M464.569,287.104c-6.576-10.959-20.576-14.86-31.872-8.88L319.009,326.72
	c-1.986,0.843-4.122,1.278-6.28,1.28H172.001c-8.837,0-16-7.163-16-16s7.163-16,16-16h64c26.51,0,48-21.49,48-48H150.913
	c-22.064,0.002-42.933,10.03-56.72,27.256L52.001,328l71.2,104l194.672-44.752c9.395-2.156,18.484-5.478,27.056-9.888L456.489,320
	C467.755,313.111,471.361,298.428,464.569,287.104z"/>
<path style="fill:#3E8CC7;" d="M4.001,328v144h104l24-24l-96-144L4.001,328z"/>
<circle style="fill:#126099;" cx="76.001" cy="432" r="16"/>
<g>
	<path style="fill:#FDB62F;" d="M84.001,80c0-22.091,17.909-40,40-40c-22.091,0-40-17.909-40-40"/>
	<path style="fill:#FDB62F;" d="M84.001,0c0,22.091-17.909,40-40,40c22.091,0,40,17.909,40,40"/>
	<circle style="fill:#FDB62F;" cx="236.001" cy="104" r="96"/>
</g>
<circle style="fill:#FFA12E;" cx="236.001" cy="104" r="72"/>
<path style="fill:#F46B27;" d="M276.001,88c-0.042-10.134-6.445-19.15-16-22.528V48h-16v16h-16V48h-16v16h-8c-4.418,0-8,3.582-8,8
	v64c0,4.418,3.582,8,8,8h8v16h16v-16h16v16h16v-17.472c12.454-4.355,19.019-17.981,14.664-30.434
	c-1.045-2.989-2.674-5.74-4.792-8.094C273.823,99.607,276.007,93.907,276.001,88z M252.001,128h-40v-16h40c4.418,0,8,3.582,8,8
	S256.42,128,252.001,128z M252.001,96h-40V80h40c4.418,0,8,3.582,8,8S256.42,96,252.001,96z"/>
<g>
	<path style="fill:#87CED9;" d="M364.001,0h16v64h-16V0z"/>
	<path style="fill:#87CED9;" d="M396.001,56h16v72h-16V56z"/>
	<path style="fill:#87CED9;" d="M396.001,24h16v16h-16V24z"/>
	<path style="fill:#87CED9;" d="M84.001,152h16v64h-16V152z"/>
	<path style="fill:#87CED9;" d="M52.001,104h16v72h-16V104z"/>
</g>
<g>
</g>
<g>
</g>
<g>
</g>
<g>
</g>
<g>
</g>
<g>
</g>
<g>
</g>
<g>
</g>
<g>
</g>
<g>
</g>
<g>
</g>
<g>
</g>
<g>
</g>
<g>
</g>
<g>
</g>
</svg>
