<?xml version="1.0" encoding="iso-8859-1"?>
<!-- Generator: Adobe Illustrator 19.0.0, SVG Export Plug-In . SVG Version: 6.00 Build 0)  -->
<svg version="1.1" id="Capa_1" xmlns="http://www.w3.org/2000/svg" xmlns:xlink="http://www.w3.org/1999/xlink" x="0px" y="0px"
	 viewBox="0 0 512 512" style="enable-background:new 0 0 512 512;" xml:space="preserve">
<g>
	<path style="fill:#FFD173;" d="M197.438,117.961h37.647c11.553,0,20.915,9.362,20.915,20.915s-9.362,20.915-20.915,20.915h-36.727
		v-35.556l-0.92-0.167V117.961z"/>
	<path style="fill:#FFD173;" d="M205.804,76.131h29.281c11.553,0,20.915,9.362,20.915,20.915s-9.362,20.915-20.915,20.915h-37.647
		v-41.83H205.804z"/>
	<path style="fill:#FFD173;" d="M289.464,343.843v50.196l-21.082-7.027c-6.969-1.882-11.955-8.015-12.382-15.226v-0.084
		c0.151-7.688,3.74-14.908,9.788-19.66C272.481,346.629,280.855,343.734,289.464,343.843z"/>
	<path style="fill:#FFD173;" d="M205.804,159.791h29.281c11.553,0,20.915-9.362,20.915-20.915s-9.362-20.915-20.915-20.915
		c11.553,0,20.915-9.362,20.915-20.915s-9.362-20.915-20.915-20.915h-37.647v47.937l-32.209-5.103l-42.918,4.518
		c-0.084-1.841-0.167-3.681-0.167-5.522c-0.025-41.805,25.876-79.243,65.004-93.95c11.302-4.283,23.299-6.467,35.388-6.442
		c55.442,0.025,100.375,44.984,100.35,100.434c-0.025,55.442-44.984,100.375-100.434,100.35
		c-37.563-0.017-71.973-20.999-89.19-54.379l-0.084-1.339l26.52-1.841h38.651v-1.004H205.804z"/>
	<path style="fill:#FFD173;" d="M378.729,440.052c-25.416,49.276-85.961,68.626-135.237,43.21s-68.626-85.961-43.219-135.237
		c17.217-33.38,51.627-54.362,89.19-54.379c12.089-0.025,24.086,2.158,35.388,6.442c39.128,14.707,65.029,52.145,65.004,93.95
		c0,1.841-0.084,3.681-0.167,5.522l-42.918-4.518l-33.129,5.271v36.559h38.651l26.52,1.841L378.729,440.052z M289.464,394.039
		v-50.196c-8.609-0.109-16.983,2.786-23.676,8.199c-6.049,4.752-9.638,11.972-9.788,19.66v0.084
		c0.427,7.212,5.413,13.344,12.382,15.226L289.464,394.039z"/>
</g>
<g>
	<path style="fill:#F5D0C7;" d="M187.148,24.011c-39.128,14.707-65.029,52.145-65.004,93.95c0,1.841,0.084,3.681,0.167,5.522
		l42.918-4.518l32.209,5.103v35.723h0.92v1.004h-38.651l-26.52,1.841l-50.865,3.43l-33.129,52.288H5.02V103.655L58.98,49.694
		L173.678,9.203l13.302,14.473L187.148,24.011z"/>
	<path style="fill:#F5D0C7;" d="M389.856,394.039c0.025-41.805-25.876-79.243-65.004-93.95l0.167-0.335l13.302-14.473
		l114.698,40.491l51.535,51.535l2.426,2.426v114.698h-44.173l-33.129-52.288l-50.865-3.43l-26.52-1.841h-38.651v-36.559
		l33.129-5.271l42.918,4.518C389.773,397.72,389.856,395.88,389.856,394.039z"/>
</g>
<path style="fill:#FE7C26;" d="M289.464,502.797c-60.068,0-108.758-48.69-108.758-108.758s48.69-108.758,108.758-108.758
	c13.11-0.033,26.119,2.334,38.375,6.994c42.29,16.054,70.283,56.529,70.383,101.764c0,1.958-0.084,3.915-0.176,5.856l-16.732-0.276
	c0.084-2.175,0.167-3.89,0.167-5.605c-0.075-38.275-23.776-72.533-59.566-86.111c-10.365-3.932-21.367-5.931-32.452-5.89
	c-50.824,0.025-92.009,41.236-91.984,92.068s41.236,92.009,92.06,91.984c34.435-0.017,65.983-19.25,81.761-49.861l14.858,7.697
	C367.519,480.117,330.19,502.856,289.464,502.797z"/>
<g>
	<path style="fill:#454545;" d="M168.993,460.323C84.79,425.311,29.975,343.015,30.118,251.817H46.85
		c-0.142,84.43,50.598,160.636,128.552,193.063L168.993,460.323z"/>
	<path style="fill:#454545;" d="M481.882,251.817H465.15c0.142-84.43-50.598-160.636-128.552-193.062l6.45-15.444
		C427.236,78.339,482.033,160.636,481.882,251.817z"/>
	<path style="fill:#454545;" d="M473.516,260.183c-1.807,0-3.572-0.586-5.02-1.673l-33.464-25.098l10.039-13.386l28.444,21.333
		l28.444-21.333L512,233.412l-33.464,25.098C477.089,259.598,475.323,260.183,473.516,260.183z"/>
	<path style="fill:#454545;" d="M66.928,283.608l-28.444-21.333l-28.444,21.333L0,270.222l33.464-25.098
		c2.978-2.234,7.061-2.234,10.039,0l33.464,25.098L66.928,283.608z"/>
</g>
<g>
	<rect x="197.438" y="59.399" style="fill:#FE7C26;" width="16.732" height="16.732"/>
	<path style="fill:#FE7C26;" d="M222.536,226.719c-40.726,0.059-78.055-22.68-96.694-58.897l14.858-7.697
		c23.291,45.176,78.791,62.921,123.959,39.63s62.921-78.791,39.63-123.959c-15.77-30.611-47.318-49.845-81.753-49.861
		c-11.068-0.042-22.053,1.941-32.41,5.856c-35.823,13.57-59.549,47.862-59.616,86.17c0,1.673,0.084,3.43,0.159,5.137l-8.366,0.468
		h-8.366c-0.084-1.673-0.167-3.648-0.167-5.605c0.109-45.252,28.127-85.743,70.442-101.789c12.239-4.643,25.232-7.002,38.325-6.969
		c60.068,0,108.758,48.69,108.758,108.758S282.604,226.719,222.536,226.719z"/>
	<path style="fill:#FE7C26;" d="M235.085,126.327v-16.732c6.927,0,12.549-5.622,12.549-12.549c0-6.927-5.622-12.549-12.549-12.549
		h-29.281v33.464h-16.732v-41.83c0-4.618,3.748-8.366,8.366-8.366h37.647c16.172,0,29.281,13.11,29.281,29.281
		S251.256,126.327,235.085,126.327z"/>
	<path style="fill:#FE7C26;" d="M235.085,168.157h-37.647c-4.618,0-8.366-3.748-8.366-8.366v-41.83c0-4.618,3.748-8.366,8.366-8.366
		h37.647c16.172,0,29.281,13.11,29.281,29.281S251.256,168.157,235.085,168.157z M205.804,151.425h29.281
		c6.927,0,12.549-5.622,12.549-12.549c0-6.927-5.622-12.549-12.549-12.549h-29.281V151.425z"/>
	<rect x="180.706" y="67.765" style="fill:#FE7C26;" width="16.732" height="16.732"/>
	<rect x="230.902" y="59.399" style="fill:#FE7C26;" width="16.732" height="16.732"/>
	<rect x="230.902" y="159.791" style="fill:#FE7C26;" width="16.732" height="16.732"/>
	<rect x="197.438" y="159.791" style="fill:#FE7C26;" width="16.732" height="16.732"/>
	<path style="fill:#FE7C26;" d="M289.464,452.601c-10.566,0.109-20.84-3.472-29.038-10.14c-7.981-6.325-12.675-15.904-12.792-26.085
		h16.732c0.159,5.204,2.652,10.064,6.785,13.235c11.01,8.115,26.06,7.981,36.928-0.326c0.092-0.084,0.736-0.586,0.837-0.669
		l11.512,12.131c-0.561,0.544-1.163,1.046-1.799,1.498C310.454,449.071,300.114,452.744,289.464,452.601z"/>
	<path style="fill:#FE7C26;" d="M307.869,409.006l-42.156-14.055c-10.416-2.978-17.728-12.34-18.079-23.165
		c0.092-10.207,4.794-19.827,12.792-26.169c8.199-6.668,18.472-10.248,29.038-10.14c23.065,0,41.83,16.247,41.83,36.225h-16.732
		c0-10.75-11.261-19.493-25.098-19.493c-6.651-0.109-13.126,2.1-18.313,6.258c-4.133,3.171-6.626,8.031-6.785,13.235
		c0.46,3.622,3.129,6.567,6.693,7.379l42.131,14.047L307.869,409.006z"/>
	<rect x="281.098" y="327.111" style="fill:#FE7C26;" width="16.732" height="133.856"/>
</g>
<g>
</g>
<g>
</g>
<g>
</g>
<g>
</g>
<g>
</g>
<g>
</g>
<g>
</g>
<g>
</g>
<g>
</g>
<g>
</g>
<g>
</g>
<g>
</g>
<g>
</g>
<g>
</g>
<g>
</g>
</svg>
