<?xml version="1.0" encoding="iso-8859-1"?>
<!-- Generator: Adobe Illustrator 19.0.0, SVG Export Plug-In . SVG Version: 6.00 Build 0)  -->
<svg version="1.1" id="Capa_1" xmlns="http://www.w3.org/2000/svg" xmlns:xlink="http://www.w3.org/1999/xlink" x="0px" y="0px"
	 viewBox="0 0 512 512" style="enable-background:new 0 0 512 512;" xml:space="preserve">
<g>
	<path style="fill:#35495E;" d="M512,114.759v273.655H0l0-273.655c-0.003-9.366,3.717-18.348,10.339-24.971
		c6.623-6.623,15.605-10.342,24.971-10.339H476.69c9.366-0.003,18.348,3.717,24.971,10.339
		C508.283,96.41,512.003,105.393,512,114.759z"/>
	<rect x="185.379" y="414.897" style="fill:#95A5A5;" width="141.241" height="88.276"/>
	<path style="fill:#BDC3C7;" d="M512,370.759v35.31c0.002,9.366-3.717,18.348-10.34,24.971s-15.605,10.342-24.971,10.34H35.31
		c-9.366,0.002-18.348-3.717-24.971-10.34S-0.002,415.435,0,406.069l0-35.31H512z"/>
	<circle style="fill:#E4C05C;" cx="370.759" cy="229.517" r="105.931"/>
	<path style="fill:#46B29D;" d="M247.172,105.931c0,58.504-47.427,105.931-105.931,105.931S35.31,164.435,35.31,105.931
		c-0.017-8.935,1.111-17.835,3.354-26.483C50.746,32.677,92.935,0,141.241,0s90.496,32.677,102.577,79.448
		C246.062,88.097,247.189,96.997,247.172,105.931z"/>
	<path style="fill:#BDC3C7;" d="M123.586,476.69h264.828c4.875,0,8.828,3.952,8.828,8.828v17.655c0,4.875-3.952,8.828-8.828,8.828
		H123.586c-4.875,0-8.828-3.952-8.828-8.828v-17.655C114.759,480.642,118.711,476.69,123.586,476.69z"/>
	<path style="fill:#F9EAB0;" d="M408.341,226.938c4.2-5.078,6.516-11.451,6.556-18.041V206
		c-0.252-14.973-11.598-27.424-26.483-29.063v-9.213c0-4.875-3.952-8.828-8.828-8.828s-8.828,3.952-8.828,8.828v8.828h-17.655
		v-8.828c0-4.875-3.952-8.828-8.828-8.828s-8.828,3.952-8.828,8.828v8.828h-8.828c-4.875,0-8.828,3.952-8.828,8.828
		s3.952,8.828,8.828,8.828h57.853c6.776-0.252,12.482,5.019,12.767,11.793v2.897c-0.285,6.775-5.991,12.045-12.767,11.793h-31.371
		c0-4.875-3.952-8.828-8.828-8.828s-8.828,3.952-8.828,8.828V256c0,4.875,3.952,8.828,8.828,8.828s8.828-3.952,8.828-8.828v-17.655
		h34.759c9.668-0.354,17.805,7.17,18.207,16.836v1.638c-0.402,9.666-8.539,17.19-18.207,16.836h-61.241
		c-4.875,0-8.828,3.952-8.828,8.828s3.952,8.828,8.828,8.828h8.828v8.828c0,4.875,3.952,8.828,8.828,8.828s8.828-3.952,8.828-8.828
		v-8.828h17.655v8.828c0,4.875,3.952,8.828,8.828,8.828s8.828-3.952,8.828-8.828v-8.881c19.193,0.074,34.904-15.248,35.31-34.438
		v-1.638C423.64,243.787,417.867,233.189,408.341,226.938z"/>
	<path style="fill:#BDC3C7;" d="M255.938,301.078c0.29-2.652-0.638-5.293-2.524-7.181l-25.224-25.22
		c-3.447-3.447-9.036-3.447-12.483,0c-3.447,3.447-3.447,9.036,0,12.483l10.155,10.151h-3.914
		c-29.934-0.036-54.19-24.295-54.224-54.228c0-4.875-3.952-8.828-8.828-8.828s-8.828,3.952-8.828,8.828
		c0.042,39.681,32.198,71.839,71.879,71.884h5.175l-11.416,11.414c-2.253,2.225-3.142,5.487-2.328,8.547
		c0.813,3.06,3.204,5.451,6.264,6.264c3.061,0.813,6.322-0.076,8.547-2.329l25.224-25.22
		C255.138,305.905,256.054,303.523,255.938,301.078z"/>
	<path style="fill:#E6E7E8;" d="M150.069,97.973V65.24c7.498,1.527,13.183,7.674,14.121,15.268c0,4.875,3.952,8.828,8.828,8.828
		c4.875,0,8.828-3.952,8.828-8.828c-1.222-17.305-14.552-31.308-31.776-33.381v-4.757c0-4.875-3.952-8.828-8.828-8.828
		s-8.828,3.952-8.828,8.828v4.757c-17.224,2.073-30.554,16.076-31.776,33.381c1.222,17.305,14.552,31.308,31.776,33.381v32.732
		c-7.498-1.527-13.183-7.674-14.121-15.268c0-4.875-3.952-8.828-8.828-8.828c-4.875,0-8.828,3.952-8.828,8.828
		c1.222,17.305,14.552,31.308,31.776,33.381v4.757c0,4.875,3.952,8.828,8.828,8.828s8.828-3.952,8.828-8.828v-4.757
		c17.224-2.073,30.554-16.076,31.776-33.381C180.623,114.049,167.293,100.046,150.069,97.973z M118.293,80.509
		c0.938-7.595,6.622-13.741,14.121-15.268v30.537C124.916,94.25,119.231,88.103,118.293,80.509z M150.069,146.622v-30.537
		c7.498,1.527,13.183,7.674,14.121,15.268C163.252,138.948,157.567,145.095,150.069,146.622z"/>
</g>
<g>
</g>
<g>
</g>
<g>
</g>
<g>
</g>
<g>
</g>
<g>
</g>
<g>
</g>
<g>
</g>
<g>
</g>
<g>
</g>
<g>
</g>
<g>
</g>
<g>
</g>
<g>
</g>
<g>
</g>
</svg>
