<svg height="512pt" viewBox="0 0 512 512" width="512pt" xmlns="http://www.w3.org/2000/svg"><path d="m70.621094 229.515625c-4.875 0-8.828125-3.945313-8.828125-8.824219v-26.484375c0-82.75 67.320312-150.070312 150.070312-150.070312 4.871094 0 8.828125 3.945312 8.828125 8.828125 0 4.882812-3.957031 8.828125-8.828125 8.828125-73.015625 0-132.414062 59.402343-132.414062 132.414062v26.484375c0 4.878906-3.957031 8.824219-8.828125 8.824219zm0 0" fill="#dd352e"/><path d="m70.628906 229.515625c-2.585937 0-5.15625-1.128906-6.894531-3.308594l-35.308594-44.136719c-3.046875-3.816406-2.429687-9.367187 1.375-12.414062 3.804688-3.054688 9.367188-2.425781 12.414063 1.378906l35.308594 44.136719c3.046874 3.8125 2.429687 9.367187-1.375 12.414063-1.644532 1.304687-3.585938 1.929687-5.519532 1.929687zm0 0" fill="#dd352e"/><path d="m70.613281 229.515625c-1.933593 0-3.886719-.625-5.511719-1.929687-3.804687-3.054688-4.421874-8.609376-1.375-12.414063l35.308594-44.136719c3.046875-3.796875 8.597656-4.433594 12.414063-1.378906 3.804687 3.054688 4.421875 8.609375 1.375 12.414062l-35.308594 44.136719c-1.75 2.171875-4.308594 3.308594-6.902344 3.308594zm0 0" fill="#dd352e"/><path d="m300.136719 467.863281c-4.871094 0-8.828125-3.945312-8.828125-8.828125 0-4.882812 3.957031-8.828125 8.828125-8.828125 73.015625 0 132.414062-59.402343 132.414062-132.414062v-26.484375c0-4.878906 3.957031-8.824219 8.828125-8.824219 4.875 0 8.828125 3.945313 8.828125 8.824219v26.484375c0 82.75-67.320312 150.070312-150.070312 150.070312zm0 0" fill="#23a24d"/><path d="m476.699219 344.277344c-2.585938 0-5.15625-1.132813-6.894531-3.3125l-35.3125-44.136719c-3.042969-3.8125-2.425782-9.367187 1.378906-12.414063 3.804687-3.042968 9.367187-2.425781 12.410156 1.378907l35.3125 44.136719c3.042969 3.816406 2.425781 9.367187-1.378906 12.414062-1.640625 1.304688-3.582032 1.933594-5.515625 1.933594zm0 0" fill="#23a24d"/><path d="m406.058594 344.277344c-1.933594 0-3.882813-.628906-5.507813-1.933594-3.804687-3.054688-4.421875-8.609375-1.375-12.414062l35.308594-44.136719c3.046875-3.796875 8.597656-4.421875 12.414063-1.378907 3.804687 3.054688 4.421874 8.609376 1.375 12.414063l-35.308594 44.136719c-1.75 2.171875-4.308594 3.3125-6.90625 3.3125zm0 0" fill="#23a24d"/><path d="m512 123.585938c0 68.253906-55.332031 123.585937-123.585938 123.585937-68.253906 0-123.585937-55.332031-123.585937-123.585937 0-68.253907 55.332031-123.585938 123.585937-123.585938 68.253907 0 123.585938 55.332031 123.585938 123.585938zm0 0" fill="#ebba16"/><g fill="#dc691d"><path d="m406.070312 132.414062h-52.96875c-4.871093 0-8.824218-3.953124-8.824218-8.828124v-52.964844c0-4.875 3.953125-8.828125 8.824218-8.828125h52.96875c19.472657 0 35.308594 15.835937 35.308594 35.308593 0 19.476563-15.835937 35.3125-35.308594 35.3125zm-44.140624-17.65625h44.140624c9.734376 0 17.652344-7.917968 17.652344-17.65625 0-9.734374-7.917968-17.652343-17.652344-17.652343h-44.140624zm0 0"/><path d="m406.070312 185.378906h-52.96875c-4.871093 0-8.824218-3.953125-8.824218-8.828125v-52.964843c0-4.871094 3.953125-8.828126 8.824218-8.828126h52.96875c19.472657 0 35.308594 15.835938 35.308594 35.3125 0 19.472657-15.835937 35.308594-35.308594 35.308594zm-44.140624-17.65625h44.140624c9.734376 0 17.652344-7.917968 17.652344-17.652344 0-9.738281-7.917968-17.65625-17.652344-17.65625h-44.140624zm0 0"/><path d="m370.757812 79.449219c-4.871093 0-8.828124-3.957031-8.828124-8.828125v-26.484375c0-4.871094 3.957031-8.828125 8.828124-8.828125 4.875 0 8.828126 3.957031 8.828126 8.828125v26.484375c0 4.871094-3.953126 8.828125-8.828126 8.828125zm0 0"/><path d="m406.070312 79.449219c-4.875 0-8.828124-3.957031-8.828124-8.828125v-26.484375c0-4.871094 3.953124-8.828125 8.828124-8.828125 4.871094 0 8.828126 3.957031 8.828126 8.828125v26.484375c0 4.871094-3.957032 8.828125-8.828126 8.828125zm0 0"/><path d="m370.757812 211.863281c-4.871093 0-8.828124-3.957031-8.828124-8.828125v-26.484375c0-4.871093 3.957031-8.828125 8.828124-8.828125 4.875 0 8.828126 3.957032 8.828126 8.828125v26.484375c0 4.871094-3.953126 8.828125-8.828126 8.828125zm0 0"/><path d="m406.070312 211.863281c-4.875 0-8.828124-3.957031-8.828124-8.828125v-26.484375c0-4.871093 3.953124-8.828125 8.828124-8.828125 4.871094 0 8.828126 3.957032 8.828126 8.828125v26.484375c0 4.871094-3.957032 8.828125-8.828126 8.828125zm0 0"/><path d="m353.101562 79.449219h-17.652343c-4.875 0-8.828125-3.957031-8.828125-8.828125 0-4.875 3.953125-8.828125 8.828125-8.828125h17.652343c4.875 0 8.828126 3.953125 8.828126 8.828125 0 4.871094-3.953126 8.828125-8.828126 8.828125zm0 0"/><path d="m353.101562 185.378906h-17.652343c-4.875 0-8.828125-3.953125-8.828125-8.828125 0-4.871093 3.953125-8.828125 8.828125-8.828125h17.652343c4.875 0 8.828126 3.957032 8.828126 8.828125 0 4.875-3.953126 8.828125-8.828126 8.828125zm0 0"/></g><path d="m247.171875 388.414062c0 68.253907-55.332031 123.585938-123.585937 123.585938-68.253907 0-123.585938-55.332031-123.585938-123.585938 0-68.253906 55.332031-123.585937 123.585938-123.585937 68.253906 0 123.585937 55.332031 123.585937 123.585937zm0 0" fill="#57abc1"/><path d="m167.722656 406.070312-44.136718-26.484374-44.136719 26.484374 44.136719 52.964844zm0 0" fill="#2d6d77"/><path d="m167.722656 406.070312-44.136718-17.65625-44.136719 17.65625 44.136719-88.277343zm0 0" fill="#408a9b"/></svg>