<?xml version="1.0" encoding="iso-8859-1"?>
<!-- Generator: Adobe Illustrator 19.0.0, SVG Export Plug-In . SVG Version: 6.00 Build 0)  -->
<svg version="1.1" id="Capa_1" xmlns="http://www.w3.org/2000/svg" xmlns:xlink="http://www.w3.org/1999/xlink" x="0px" y="0px"
	 viewBox="0 0 464 464" style="enable-background:new 0 0 464 464;" xml:space="preserve">
<path style="fill:#4398D1;" d="M308,106.328V32c0-17.673-14.327-32-32-32H84C66.327,0,52,14.327,52,32v400c0,17.673,14.327,32,32,32
	h192c17.673,0,32-14.327,32-32V106.328z"/>
<path style="fill:#87CED9;" d="M52,64h256v336H52V64z"/>
<g>
	<path style="fill:#126099;" d="M140,24h80v16h-80V24z"/>
	<path style="fill:#126099;" d="M172,424h16v16h-16V424z"/>
</g>
<path style="fill:#78C3CF;" d="M52,392v8h256V136L52,392z"/>
<g>
	<path style="fill:#4398D1;" d="M100,144c1.429-0.017,2.853-0.162,4.256-0.432l30.088,30.088c1.5,1.5,3.534,2.344,5.656,2.344h64
		v-16h-60.688l-24.848-24.848c3.555-4.251,5.513-9.611,5.536-15.152c0-13.255-10.745-24-24-24s-24,10.745-24,24S86.745,144,100,144
		L100,144z M100,112c4.418,0,8,3.582,8,8s-3.582,8-8,8s-8-3.582-8-8S95.582,112,100,112z"/>
	<path style="fill:#4398D1;" d="M100,280c13.255-0.038,23.969-10.814,23.931-24.069c-0.023-8.077-4.107-15.6-10.867-20.019L128,216
		h60v-16h-64c-2.518,0-4.889,1.186-6.4,3.2l-21.928,29.24c-13.012,2.523-21.516,15.117-18.993,28.13
		C78.85,271.764,88.598,279.886,100,280L100,280z M100,248c4.418,0,8,3.582,8,8s-3.582,8-8,8s-8-3.582-8-8S95.582,248,100,248z"/>
	<path style="fill:#4398D1;" d="M84,296v16h48c1.731,0,3.415-0.561,4.8-1.6l64-48l-9.6-12.8L129.336,296H84z"/>
	<path style="fill:#4398D1;" d="M160.688,344h-38.16c-4.418-12.497-18.131-19.046-30.627-14.627
		C79.404,333.791,72.855,347.503,77.273,360s18.131,19.046,30.627,14.627c6.835-2.416,12.211-7.793,14.627-14.627H164
		c2.122,0,4.156-0.844,5.656-2.344l48-48l-11.312-11.312L160.688,344z M100,360c-4.418,0-8-3.582-8-8s3.582-8,8-8s8,3.582,8,8
		S104.418,360,100,360z"/>
	<path style="fill:#4398D1;" d="M192.648,89.488C191.291,88.52,189.667,88,188,88h-48v16h45.44l53.912,38.512l9.296-13.024
		L192.648,89.488z"/>
</g>
<path style="fill:#FDB62F;" d="M308,106.328c-69.406-13.215-136.383,32.337-149.598,101.742s32.337,136.383,101.742,149.598
	c69.406,13.215,136.383-32.337,149.598-101.742C411.244,248.039,412,240.029,412,232C411.862,170.624,368.267,117.945,308,106.328z"
	/>
<circle style="fill:#FFA12E;" cx="284" cy="232" r="96"/>
<g>
	<path style="fill:#F46B27;" d="M292,288v16h16v-17.136c17.064-4.357,27.364-21.722,23.007-38.786
		c-1.591-6.231-5.029-11.836-9.863-16.078c13.237-11.616,14.55-31.764,2.934-45.001c-4.242-4.834-9.847-8.272-16.078-9.863V160h-16
		v16h-16v-16h-16v16h-16c-4.418,0-8,3.582-8,8v96c0,4.418,3.582,8,8,8h16v16h16v-16H292z M252,192h48c8.837,0,16,7.163,16,16
		s-7.163,16-16,16h-48V192z M252,240h48c8.837,0,16,7.163,16,16s-7.163,16-16,16h-48V240z"/>
	<path style="fill:#F46B27;" d="M284,128c-57.41,0.066-103.934,46.59-104,104h16c0.057-48.577,39.423-87.943,88-88V128z"/>
	<path style="fill:#F46B27;" d="M372,232c-0.057,48.577-39.423,87.943-88,88v16c57.41-0.066,103.934-46.59,104-104H372z"/>
</g>
<g>
</g>
<g>
</g>
<g>
</g>
<g>
</g>
<g>
</g>
<g>
</g>
<g>
</g>
<g>
</g>
<g>
</g>
<g>
</g>
<g>
</g>
<g>
</g>
<g>
</g>
<g>
</g>
<g>
</g>
</svg>
