<svg height="512pt" viewBox="0 0 512 512" width="512pt" xmlns="http://www.w3.org/2000/svg"><path d="m512 406.070312c0 58.503907-47.425781 105.929688-105.929688 105.929688-58.503906 0-105.933593-47.425781-105.933593-105.929688 0-58.503906 47.429687-105.933593 105.933593-105.933593 58.503907 0 105.929688 47.429687 105.929688 105.933593zm0 0" fill="#57abc1"/><path d="m361.929688 105.929688c0 58.503906-47.425782 105.933593-105.929688 105.933593s-105.929688-47.429687-105.929688-105.933593c0-58.503907 47.425782-105.929688 105.929688-105.929688s105.929688 47.425781 105.929688 105.929688zm0 0" fill="#ebba16"/><path d="m211.863281 406.070312c0 58.503907-47.429687 105.929688-105.933593 105.929688-58.503907 0-105.929688-47.425781-105.929688-105.929688 0-58.503906 47.425781-105.933593 105.929688-105.933593 58.503906 0 105.933593 47.429687 105.933593 105.933593zm0 0" fill="#366db6"/><path d="m485.515625 282.484375c-4.871094 0-8.824219-3.957031-8.824219-8.828125 0-8.539062-.453125-17.117188-1.34375-25.503906-.511718-4.847656 3-9.199219 7.847656-9.71875 4.847657-.441406 9.199219 2.992187 9.71875 7.847656.945313 9.003906 1.429688 18.210938 1.429688 27.375 0 4.871094-3.953125 8.828125-8.828125 8.828125zm-5.640625-52.570313c-4.050781 0-7.703125-2.808593-8.613281-6.929687-1.828125-8.304687-4.140625-16.550781-6.867188-24.523437-1.582031-4.605469.871094-9.628907 5.488281-11.210938 4.617188-1.597656 9.632813.875 11.210938 5.492188 2.949219 8.597656 5.449219 17.496093 7.417969 26.457031 1.046875 4.765625-1.960938 9.46875-6.730469 10.511719-.640625.140624-1.277344.203124-1.90625.203124zm-17.167969-49.980468c-3.285156 0-6.445312-1.847656-7.960937-5.007813-3.675782-7.632812-7.824219-15.101562-12.351563-22.207031-2.621093-4.113281-1.414062-9.570312 2.703125-12.191406 4.101563-2.605469 9.558594-1.414063 12.1875 2.699218 4.902344 7.691407 9.402344 15.785157 13.375 24.054688 2.109375 4.398438.257813 9.667969-4.132812 11.777344-1.234375.601562-2.53125.875-3.820313.875zm-28.417969-44.542969c-2.550781 0-5.074218-1.097656-6.8125-3.214844-5.359374-6.507812-11.183593-12.757812-17.304687-18.574219-3.527344-3.363281-3.679687-8.949218-.316406-12.480468 3.363281-3.523438 8.941406-3.664063 12.484375-.320313 6.636718 6.3125 12.957031 13.09375 18.765625 20.15625 3.097656 3.757813 2.558593 9.328125-1.199219 12.429688-1.652344 1.347656-3.636719 2.003906-5.617188 2.003906zm0 0" fill="#61b872"/><path d="m26.484375 282.484375c-4.875 0-8.828125-3.957031-8.828125-8.828125 0-9.164062.484375-18.371094 1.4375-27.375.519531-4.847656 4.890625-8.28125 9.71875-7.847656 4.847656.519531 8.359375 4.863281 7.847656 9.71875-.898437 8.386718-1.351562 16.964844-1.351562 25.503906 0 4.871094-3.953125 8.828125-8.824219 8.828125zm5.640625-52.570313c-.628906 0-1.273438-.0625-1.90625-.203124-4.769531-1.050782-7.769531-5.753907-6.730469-10.511719 1.96875-8.960938 4.46875-17.859375 7.417969-26.457031 1.578125-4.617188 6.59375-7.089844 11.210938-5.492188 4.605468 1.582031 7.070312 6.605469 5.488281 11.210938-2.734375 7.972656-5.039063 16.21875-6.867188 24.523437-.910156 4.121094-4.5625 6.929687-8.613281 6.929687zm17.167969-49.980468c-1.289063 0-2.585938-.285156-3.820313-.875-4.398437-2.109375-6.25-7.378906-4.132812-11.777344 3.972656-8.269531 8.472656-16.363281 13.375-24.054688 2.621094-4.113281 8.09375-5.304687 12.1875-2.699218 4.117187 2.621094 5.324218 8.078125 2.703125 12.191406-4.527344 7.097656-8.675781 14.5625-12.351563 22.207031-1.515625 3.160157-4.675781 5.007813-7.960937 5.007813zm28.417969-44.542969c-1.980469 0-3.964844-.664063-5.605469-2.015625-3.761719-3.097656-4.300781-8.660156-1.203125-12.429688 5.816406-7.050781 12.128906-13.832031 18.769531-20.152343 3.53125-3.34375 9.117187-3.203125 12.480469.316406 3.355468 3.53125 3.214844 9.121094-.316406 12.484375-6.128907 5.816406-11.953126 12.066406-17.304688 18.574219-1.746094 2.125-4.269531 3.222656-6.820312 3.222656zm0 0" fill="#61b872"/><g fill="#dc691d"><path d="m264.828125 114.757812h-44.136719c-4.875 0-8.828125-3.953124-8.828125-8.828124v-52.964844c0-4.871094 3.953125-8.828125 8.828125-8.828125h44.136719c19.472656 0 35.308594 15.839843 35.308594 35.3125 0 19.472656-15.835938 35.308593-35.308594 35.308593zm-35.3125-17.65625h35.3125c9.734375 0 17.65625-7.917968 17.65625-17.652343 0-9.738281-7.921875-17.65625-17.65625-17.65625h-35.3125zm0 0"/><path d="m264.828125 167.722656h-44.136719c-4.875 0-8.828125-3.953125-8.828125-8.824218v-52.96875c0-4.871094 3.953125-8.828126 8.828125-8.828126h44.136719c19.472656 0 35.308594 15.839844 35.308594 35.3125 0 19.472657-15.835938 35.308594-35.308594 35.308594zm-35.3125-17.652344h35.3125c9.734375 0 17.65625-7.917968 17.65625-17.65625 0-9.738281-7.921875-17.65625-17.65625-17.65625h-35.3125zm0 0"/><path d="m229.515625 61.792969c-4.871094 0-8.824219-3.953125-8.824219-8.828125v-17.65625c0-4.871094 3.953125-8.824219 8.824219-8.824219 4.875 0 8.828125 3.953125 8.828125 8.824219v17.65625c0 4.875-3.953125 8.828125-8.828125 8.828125zm0 0"/><path d="m264.828125 61.792969c-4.875 0-8.828125-3.953125-8.828125-8.828125v-17.65625c0-4.871094 3.953125-8.824219 8.828125-8.824219 4.871094 0 8.828125 3.953125 8.828125 8.824219v17.65625c0 4.875-3.957031 8.828125-8.828125 8.828125zm0 0"/><path d="m229.515625 185.378906c-4.871094 0-8.824219-3.953125-8.824219-8.828125v-17.652343c0-4.875 3.953125-8.828126 8.824219-8.828126 4.875 0 8.828125 3.953126 8.828125 8.828126v17.652343c0 4.875-3.953125 8.828125-8.828125 8.828125zm0 0"/><path d="m264.828125 185.378906c-4.875 0-8.828125-3.953125-8.828125-8.828125v-17.652343c0-4.875 3.953125-8.828126 8.828125-8.828126 4.871094 0 8.828125 3.953126 8.828125 8.828126v17.652343c0 4.875-3.957031 8.828125-8.828125 8.828125zm0 0"/></g><path d="m132.414062 379.585938c0 14.625-11.855468 26.484374-26.484374 26.484374-14.625 0-26.480469-11.859374-26.480469-26.484374s11.855469-26.484376 26.480469-26.484376c14.628906 0 26.484374 11.859376 26.484374 26.484376zm0 0" fill="#ebba16"/><path d="m105.929688 432.550781c0 14.628907-11.855469 26.484375-26.480469 26.484375-14.628907 0-26.484375-11.855468-26.484375-26.484375 0-14.625 11.855468-26.480469 26.484375-26.480469 14.625 0 26.480469 11.855469 26.480469 26.480469zm0 0" fill="#ebba16"/><path d="m158.898438 432.550781c0 14.628907-11.859376 26.484375-26.484376 26.484375s-26.484374-11.855468-26.484374-26.484375c0-14.625 11.859374-26.480469 26.484374-26.480469s26.484376 11.855469 26.484376 26.480469zm0 0" fill="#ebba16"/><path d="m450.207031 423.722656-44.136719-26.480468-44.140624 26.480468 44.140624 52.96875zm0 0" fill="#2d6d77"/><path d="m450.207031 423.722656-44.136719-17.652344-44.140624 17.652344 44.140624-88.273437zm0 0" fill="#408a9b"/></svg>