<?xml version="1.0" encoding="iso-8859-1"?>
<!-- Generator: Adobe Illustrator 19.0.0, SVG Export Plug-In . SVG Version: 6.00 Build 0)  -->
<svg version="1.1" id="Layer_1" xmlns="http://www.w3.org/2000/svg" xmlns:xlink="http://www.w3.org/1999/xlink" x="0px" y="0px"
	 viewBox="0 0 491.52 491.52" style="enable-background:new 0 0 491.52 491.52;" xml:space="preserve">
<path style="fill:#3EA69B;" d="M431.957,32.735c-32.993,81.28-49.571,159.864-62.67,247.191
	c-45.232-3.372-65.948-5.897-110.691-13.531c7.968-87.956,10.486-168.258-2.308-255.135C332.135-7.761,362.811-4.011,431.957,32.735
	z"/>
<path style="fill:#44C4A1;" d="M347.904,267.975c-26.46-2.83-39.334-4.405-65.704-8.03c1.068-9.834-4.669-18.583-12.83-19.643
	c5.415-69.381,7.038-132.461,2.56-201.707c11.992-3.419,21.488-12.728,20.917-22.262c41.975-8.155,63.575-5.515,102.403,12.517
	c-2.808,9.121,4.21,20.449,15.044,26.658c-20.744,66.162-34.111,127.811-45.286,196.484
	C356.84,251.055,349.199,258.169,347.904,267.975z"/>
<g>
	<path style="fill:#3EA69B;" d="M334.481,102.258c25.378,3.102,41.537,26.073,37.685,45.426
		c-3.852,19.353-24.34,31.222-46.568,28.505c-22.226-2.717-39.31-19.179-38.47-38.9C287.97,117.568,309.107,99.157,334.481,102.258z
		"/>
	<path style="fill:#3EA69B;" d="M343.623,26.162c5.614,0.686,9.552,5.288,8.854,9.879c-0.698,4.591-5.536,7.501-10.863,6.85
		c-5.325-0.651-9.334-4.643-8.924-9.268C333.098,28.996,338.011,25.476,343.623,26.162z"/>
	
		<ellipse transform="matrix(-0.9928 -0.1194 0.1194 -0.9928 603.4669 524.0775)" style="fill:#3EA69B;" cx="317.439" cy="243.954" rx="6.83" ry="8.422"/>
</g>
<path style="fill:#44C4A1;" d="M363.692,147.484c-2.367-0.581-3.551-0.86-5.926-1.394c-2.142,7.932-6.248,14.593-12.214,20.244
	c-2.365-3.108-3.557-4.659-5.975-7.742c4.592-4.445,7.721-9.175,9.31-14.359c-6.34-1.224-9.524-1.748-15.914-2.605
	c-2.343,6.646-4.865,11.42-7.595,14.334c-2.731,2.913-6.377,4.127-11,3.739c-4.625-0.387-8.236-2.442-10.919-6.218
	c-2.679-3.775-3.987-8.511-3.881-14.308c-1.666-0.026-2.499-0.034-4.169-0.038c0.136-2.278,0.201-3.417,0.327-5.694
	c1.721-0.009,2.579-0.008,4.296,0.007c0.87-6.559,3.35-12.777,7.646-18.617c3.059,2.381,4.565,3.61,7.53,6.127
	c-3.039,3.856-5.014,8.104-6.008,12.718c6.315,0.26,9.468,0.479,15.75,1.111c0.012-0.11,0.017-0.165,0.029-0.274
	c2.273-6.822,4.928-11.731,7.956-14.673c3.035-2.948,7.12-4.058,12.143-3.162c5.028,0.897,8.811,3.657,11.273,8.047
	c2.471,4.391,3.253,9.627,2.478,15.716c2.361,0.549,3.542,0.836,5.895,1.434C364.306,144.117,364.101,145.239,363.692,147.484z
	 M310.124,145.939c1.094,1.611,2.547,2.477,4.373,2.613c1.823,0.136,3.324-0.353,4.51-1.467c1.185-1.113,2.455-3.325,3.815-6.627
	c-5.724-0.552-8.595-0.753-14.345-1.013C308.476,142.169,309.027,144.328,310.124,145.939z M348.765,131.262
	c-1.018-1.924-2.519-3.079-4.487-3.425c-1.965-0.346-3.622,0.064-4.954,1.212c-1.332,1.156-2.738,3.477-4.204,6.964
	c5.984,0.84,8.968,1.349,14.906,2.53C350.203,135.621,349.786,133.194,348.765,131.262z"/>
<path style="fill:#3EA69B;" d="M484.193,103.214c-54.483,65.688-92.783,134.72-130.349,213.352
	c-41.469-19.522-60.178-29.4-99.954-52.814c32.932-81.082,58.535-156.821,71.673-244.355
	C402.242,28.579,429.942,43.217,484.193,103.214z"/>
<path style="fill:#44C4A1;" d="M337.238,297.451c-24.01-12.239-35.636-18.382-59.331-31.348c3.848-9.001,0.997-19.42-6.354-23.373
	c25.161-64.271,44.94-123.895,60.779-191.605c12.243,1.059,23.847-4.404,26.071-13.709c41.749,7.346,61.254,17.652,92.471,48.859
	c-5.275,7.693-1.968,21.036,6.402,30.867c-38.613,55.673-68.999,109.699-99.361,171.219
	C350.521,284.522,341.291,288.558,337.238,297.451z"/>
<g>
	<path style="fill:#3EA69B;" d="M372.603,134.438c22.917,12.109,31.432,39.859,22.217,56.943
		c-9.216,17.084-31.876,21.028-51.948,10.422c-20.07-10.605-31.338-32.475-24.841-50.996
		C324.527,132.286,349.69,122.331,372.603,134.438z"/>
	<path style="fill:#3EA69B;" d="M403.204,65.1c5.07,2.679,7.433,8.491,5.45,12.621c-1.983,4.13-7.366,5.164-12.176,2.622
		c-4.808-2.54-7.415-7.796-5.692-12.063C392.508,64.011,398.137,62.422,403.204,65.1z"/>
	<path style="fill:#3EA69B;" d="M318.996,255.897c3.397,1.795,4.629,6.661,2.757,10.859c-1.87,4.199-6.118,6.162-9.486,4.382
		c-3.367-1.779-4.601-6.638-2.759-10.852C311.349,256.072,315.599,254.102,318.996,255.897z"/>
</g>
<path style="fill:#44C4A1;" d="M386.925,188.134c-2.053-1.407-3.083-2.1-5.158-3.466c-4.305,6.799-10.087,11.677-17.32,14.92
	c-1.319-3.819-1.99-5.729-3.366-9.544c5.596-2.587,9.901-5.974,12.892-10.35c-5.595-3.454-8.432-5.102-14.18-8.223
	c-4.122,5.499-7.87,9.147-11.276,10.944c-3.406,1.797-7.178,1.64-11.405-0.396c-4.228-2.037-7.021-5.3-8.447-9.871
	c-1.421-4.569-1.278-9.561,0.499-15.056c-1.556-0.626-2.335-0.933-3.901-1.539c0.787-2.126,1.177-3.189,1.955-5.317
	c1.618,0.611,2.423,0.922,4.029,1.555c2.714-5.947,6.841-10.989,12.563-15.014c2.181,3.375,3.239,5.091,5.293,8.562
	c-3.968,2.585-7.051,5.928-9.318,9.974c5.851,2.524,8.746,3.87,14.458,6.737c0.043-0.1,0.064-0.151,0.107-0.251
	c4.107-5.692,8.02-9.421,11.712-11.137c3.701-1.72,7.855-1.307,12.31,1.359c4.458,2.668,7.209,6.667,8.249,11.744
	c1.047,5.082,0.266,10.362-2.223,15.894c2.057,1.375,3.081,2.075,5.117,3.494C388.475,185.142,387.958,186.139,386.925,188.134z
	 M337.104,167.351c0.561,1.932,1.673,3.282,3.347,4.07c1.672,0.787,3.221,0.861,4.657,0.226c1.435-0.635,3.266-2.289,5.498-4.95
	c-5.211-2.59-7.847-3.816-13.168-6.138C336.649,163.158,336.541,165.418,337.104,167.351z M377.612,167.27
	c-0.399-2.203-1.473-3.846-3.22-4.887c-1.744-1.039-3.418-1.244-4.999-0.628c-1.585,0.623-3.576,2.331-5.961,5.131
	c5.372,2.959,8.025,4.52,13.256,7.788C377.7,171.949,378.011,169.482,377.612,167.27z"/>
<path style="fill:#FCD462;" d="M405.915,240.282L405.915,240.282c0-18.771-14.885-33.987-33.243-33.987h-2.258
	c-31.754-2.96-56.891-1.892-74.498,0h-4.421v0.509c-16.087,1.991-24.74,4.518-24.74,4.518l-1.766-51.248l-23.31,4.93
	c-13.289,2.973-25.354,9.932-34.581,19.948l-50.874,55.225c-12.659,13.742-30.491,21.56-49.176,21.56h-6.435L75.476,444.257
	l63.68,0.558c90.493,35.75,199.418,23.174,199.418,23.174h9.358c18.36,0,33.243-15.217,33.243-33.986v0
	c0-13.675-7.919-25.433-19.307-30.825h2.299c18.36,0,33.243-15.217,33.243-33.986v0c0-13.49-7.708-25.11-18.848-30.599
	c15.544-2.847,27.353-16.711,27.353-33.422v0c0-15.235-9.806-28.128-23.319-32.444C396.108,268.409,405.915,255.517,405.915,240.282
	z"/>
<rect x="7.327" y="232.55" style="fill:#27A2DB;" width="106.691" height="258.97"/>
<circle style="fill:#1C75A1;" cx="60.672" cy="450.662" r="18.714"/>
<g>
</g>
<g>
</g>
<g>
</g>
<g>
</g>
<g>
</g>
<g>
</g>
<g>
</g>
<g>
</g>
<g>
</g>
<g>
</g>
<g>
</g>
<g>
</g>
<g>
</g>
<g>
</g>
<g>
</g>
</svg>
