<?xml version="1.0" encoding="iso-8859-1"?>
<!-- Generator: Adobe Illustrator 19.0.0, SVG Export Plug-In . SVG Version: 6.00 Build 0)  -->
<svg version="1.1" id="Capa_1" xmlns="http://www.w3.org/2000/svg" xmlns:xlink="http://www.w3.org/1999/xlink" x="0px" y="0px"
	 viewBox="0 0 58 58" style="enable-background:new 0 0 58 58;" xml:space="preserve">
<path style="fill:#556080;" d="M29,0c0,0-6.667,8-22,8v19.085c0,9.966,4.328,19.577,12.164,25.735C21.937,55,25.208,56.875,29,58
	c3.792-1.125,7.062-3,9.836-5.18C46.672,46.662,51,37.051,51,27.085V8C35.667,8,29,0,29,0z"/>
<path style="fill:#4FBA6F;" d="M29,51.661c-2.123-0.833-4.178-2.025-6.128-3.558C16.69,43.245,13,35.388,13,27.085V13.628
	c7.391-0.943,12.639-3.514,16-5.798c3.361,2.284,8.609,4.855,16,5.798v13.457c0,8.303-3.69,16.16-9.871,21.018
	C33.178,49.636,31.123,50.828,29,51.661z"/>
<path style="fill:#FFFFFF;" d="M41.659,20.248c-0.416-0.364-1.047-0.321-1.411,0.094L26.951,35.537l-7.244-7.244
	c-0.391-0.391-1.023-0.391-1.414,0s-0.391,1.023,0,1.414l8,8C26.481,37.895,26.735,38,27,38c0.011,0,0.022,0,0.033,0
	c0.277-0.009,0.537-0.133,0.719-0.341l14-16C42.116,21.243,42.074,20.611,41.659,20.248z"/>
<g>
</g>
<g>
</g>
<g>
</g>
<g>
</g>
<g>
</g>
<g>
</g>
<g>
</g>
<g>
</g>
<g>
</g>
<g>
</g>
<g>
</g>
<g>
</g>
<g>
</g>
<g>
</g>
<g>
</g>
</svg>
