<?xml version="1.0" encoding="iso-8859-1"?>
<!-- Generator: Adobe Illustrator 19.0.0, SVG Export Plug-In . SVG Version: 6.00 Build 0)  -->
<svg version="1.1" id="Layer_1" xmlns="http://www.w3.org/2000/svg" xmlns:xlink="http://www.w3.org/1999/xlink" x="0px" y="0px"
	 viewBox="0 0 512 512" style="enable-background:new 0 0 512 512;" xml:space="preserve">
<path d="M503.467,247.467H358.4v-85.333c0-4.693-3.84-8.533-8.533-8.533h-85.333V8.533C264.533,3.84,260.693,0,256,0
	c-4.693,0-8.533,3.84-8.533,8.533V153.6h-85.333c-4.693,0-8.533,3.84-8.533,8.533v85.333H8.533C3.84,247.467,0,251.307,0,256
	c0,4.693,3.84,8.533,8.533,8.533H153.6v85.333c0,4.693,3.84,8.533,8.533,8.533h85.333v145.067c0,4.693,3.84,8.533,8.533,8.533
	c4.693,0,8.533-3.84,8.533-8.533V358.4h85.333c4.693,0,8.533-3.84,8.533-8.533v-85.333h145.067c4.693,0,8.533-3.84,8.533-8.533
	C512,251.307,508.16,247.467,503.467,247.467z M264.533,170.667h76.8v76.8h-76.8V170.667z M170.667,170.667h76.8v76.8h-76.8V170.667
	z M247.467,341.333h-76.8v-76.8h76.8V341.333z M341.333,341.333h-76.8v-76.8h76.8V341.333z"/>
<g>
	<rect x="170.667" y="264.533" style="fill:#A60916;" width="59.733" height="17.067"/>
	<rect x="230.4" y="281.6" style="fill:#A60916;" width="17.067" height="59.733"/>
</g>
<rect x="170.667" y="281.6" style="fill:#C90006;" width="59.733" height="59.733"/>
<g>
	<rect x="170.667" y="170.667" style="fill:#A60916;" width="59.733" height="17.067"/>
	<rect x="230.4" y="170.667" style="fill:#A60916;" width="17.067" height="17.067"/>
</g>
<rect x="170.667" y="187.733" style="fill:#C90006;" width="59.733" height="59.733"/>
<g>
	<rect x="264.533" y="170.667" style="fill:#A60916;" width="59.733" height="17.067"/>
	<rect x="324.267" y="170.667" style="fill:#A60916;" width="17.067" height="17.067"/>
	<rect x="324.267" y="187.733" style="fill:#A60916;" width="17.067" height="59.733"/>
</g>
<rect x="264.533" y="187.733" style="fill:#C90006;" width="59.733" height="59.733"/>
<g>
	<rect x="324.267" y="264.533" style="fill:#A60916;" width="17.067" height="17.067"/>
	<rect x="324.267" y="281.6" style="fill:#A60916;" width="17.067" height="59.733"/>
</g>
<rect x="264.533" y="281.6" style="fill:#C90006;" width="59.733" height="59.733"/>
<g>
	<rect x="230.4" y="187.733" style="fill:#A60916;" width="17.067" height="59.733"/>
	<rect x="264.533" y="264.533" style="fill:#A60916;" width="59.733" height="17.067"/>
	<rect x="230.4" y="264.533" style="fill:#A60916;" width="17.067" height="17.067"/>
</g>
<g>
</g>
<g>
</g>
<g>
</g>
<g>
</g>
<g>
</g>
<g>
</g>
<g>
</g>
<g>
</g>
<g>
</g>
<g>
</g>
<g>
</g>
<g>
</g>
<g>
</g>
<g>
</g>
<g>
</g>
</svg>
