<?xml version="1.0" encoding="iso-8859-1"?>
<!-- Generator: Adobe Illustrator 19.0.0, SVG Export Plug-In . SVG Version: 6.00 Build 0)  -->
<svg version="1.1" id="Capa_1" xmlns="http://www.w3.org/2000/svg" xmlns:xlink="http://www.w3.org/1999/xlink" x="0px" y="0px"
	 viewBox="0 0 496 496" style="enable-background:new 0 0 496 496;" xml:space="preserve">
<g>
	<path style="fill:#FFA64D;" d="M336,192h-6.232c-4.392,4.88-10.688,8-17.768,8h-2.104c-4.328,16.776-15.256,30.888-29.896,39.368
		V240c0,17.672-14.328,32-32,32s-32-14.328-32-32v-0.632c-14.64-8.48-25.568-22.592-29.896-39.368H184c-7.08,0-13.376-3.12-17.768-8
		H160l-30.544,15.272L160,264v96h176v-96l30.544-56.728L336,192z"/>
	<path style="fill:#FFA64D;" d="M384,360H112c-35.344,0-64,28.656-64,64s28.656,64,64,64h72v-64h24l11.904-23.8
		c2.512-5.024,7.648-8.2,13.264-8.2c8.192,0,14.832,6.64,14.832,14.832c0-8.192,6.64-14.832,14.832-14.832
		c5.616,0,10.752,3.176,13.264,8.2L288,424h24v64h72c35.344,0,64-28.656,64-64S419.344,360,384,360z"/>
</g>
<g>
	<path style="fill:#333333;" d="M384,352h-40v-85.984l49.904-92.68c3.992-7.408,6.096-15.768,6.096-24.168
		c0-15.72-7.44-30.824-19.896-40.408L294.608,43l-11.584-28.968C279.624,5.504,271.488,0,262.312,0
		C256.84,0,251.888,2.056,248,5.336C244.112,2.056,239.16,0,233.688,0c-9.176,0-17.312,5.504-20.712,14.024L201.392,43
		l-85.496,65.76C103.44,118.336,96,133.448,96,149.168c0,8.408,2.104,16.76,6.096,24.168L152,266.016V352h-40
		c-39.696,0-72,32.296-72,72s32.304,72,72,72h272c39.696,0,72-32.296,72-72S423.696,352,384,352z M262.312,16
		c2.592,0,4.896,1.552,5.856,3.968L281.384,53l88.96,68.432c8.552,6.576,13.656,16.944,13.656,27.736
		c0,5.768-1.448,11.504-4.176,16.584l-16.64,30.896L342.2,186.152c1.08-3.208,1.8-6.584,1.8-10.152v-16
		c0-50.232-38.808-91.504-88-95.592V22.312C256,18.832,258.832,16,262.312,16z M248,240c-30.88,0-56-25.12-56-56v-20.688
		c0-5.08,2.064-10.064,5.656-13.656S206.232,144,211.312,144c13.536,0,26.36-4.608,36.688-13.088
		c10.328,8.48,23.152,13.088,36.688,13.088c5.08,0,10.064,2.064,13.656,5.656S304,158.232,304,163.312V184
		C304,214.88,278.88,240,248,240z M268.064,253.096C263.776,259.648,256.4,264,248,264s-15.776-4.352-20.064-10.904
		C234.312,254.952,241.032,256,248,256C254.968,256,261.688,254.952,268.064,253.096z M284.688,128
		c-11.2,0-21.736-4.36-29.664-12.288L248,108.688l-7.024,7.024C233.048,123.64,222.512,128,211.312,128
		c-9.432,0-18.304,3.672-24.968,10.344c-1.808,1.808-3.352,3.8-4.704,5.896c-4.552,0.336-8.8,1.608-12.624,3.664
		C174.88,109.52,208.008,80,248,80s73.12,29.52,78.984,67.896c-3.824-2.048-8.08-3.32-12.624-3.664
		c-1.352-2.096-2.896-4.088-4.704-5.896C302.992,131.672,294.12,128,284.688,128z M176.304,189.936
		C171.376,187.208,168,182.016,168,176c0-5.944,3.288-11.08,8.112-13.832c-0.016,0.384-0.112,0.752-0.112,1.144V184
		C176,186.008,176.136,187.976,176.304,189.936z M319.888,162.168C324.712,164.92,328,170.056,328,176
		c0,6.016-3.376,11.208-8.304,13.936c0.168-1.96,0.304-3.928,0.304-5.936v-20.688C320,162.92,319.904,162.552,319.888,162.168z
		 M112,149.168c0-10.784,5.104-21.152,13.656-27.728l88.96-68.432l13.216-33.04c0.96-2.416,3.264-3.968,5.856-3.968
		c3.48,0,6.312,2.832,6.312,6.312v42.096c-49.192,4.088-88,45.36-88,95.592v16c0,3.568,0.72,6.944,1.808,10.152l-20.984,10.496
		l-16.64-30.896C113.448,160.664,112,154.936,112,149.168z M140.408,210.744l22.208-11.104c4.752,4.304,10.76,7.128,17.44,7.968
		c5.24,15.04,15.288,27.832,28.36,36.472C210.488,264.192,227.344,280,248,280s37.512-15.808,39.584-35.928
		c13.064-8.64,23.112-21.432,28.36-36.472c6.672-0.832,12.688-3.664,17.44-7.968l22.208,11.104L328,261.984V352H168v-90.016
		L140.408,210.744z M212.944,432l14.112-28.216c1.16-2.336,3.504-3.784,6.112-3.784c3.768,0,6.832,3.072,6.832,6.832V480h-48v-48
		H212.944z M256,406.832c0-3.76,3.064-6.832,6.832-6.832c2.608,0,4.952,1.448,6.112,3.784L283.056,432H304v48h-48V406.832z M384,480
		h-64v-48h48v-16h-75.048l-9.688-19.376C279.36,388.832,271.536,384,262.832,384c-5.688,0-10.832,2.168-14.832,5.616
		c-4-3.448-9.144-5.616-14.832-5.616c-8.704,0-16.528,4.832-20.424,12.624L203.056,416H96v16h80v48h-64c-30.88,0-56-25.128-56-56
		s25.12-56,56-56h272c30.88,0,56,25.128,56,56S414.88,480,384,480z"/>
	<rect x="384" y="416" style="fill:#333333;" width="16" height="16"/>
	<rect x="272" y="160" style="fill:#333333;" width="16" height="16"/>
	<rect x="208" y="160" style="fill:#333333;" width="16" height="16"/>
	<path style="fill:#333333;" d="M248,208c-8.824,0-16-7.176-16-16h-16c0,17.648,14.352,32,32,32s32-14.352,32-32h-16
		C264,200.824,256.824,208,248,208z"/>
</g>
<g>
</g>
<g>
</g>
<g>
</g>
<g>
</g>
<g>
</g>
<g>
</g>
<g>
</g>
<g>
</g>
<g>
</g>
<g>
</g>
<g>
</g>
<g>
</g>
<g>
</g>
<g>
</g>
<g>
</g>
</svg>
